<mxfile host="Electron" modified="2023-06-13T23:52:57.747Z" agent="Mozilla/5.0 (Macintosh; Intel Mac OS X 10_15_7) AppleWebKit/537.36 (KHTML, like Gecko) draw.io/21.2.8 Chrome/112.0.5615.165 Electron/24.2.0 Safari/537.36" etag="OKG0RNOtK6wffxeskTQD" version="21.2.8" type="device">
  <diagram name="第 1 页" id="kzM4Sd87N1CcjHORukVz">
    <mxGraphModel dx="768" dy="1182" grid="1" gridSize="10" guides="1" tooltips="1" connect="1" arrows="1" fold="1" page="1" pageScale="1" pageWidth="1600" pageHeight="900" math="0" shadow="0">
      <root>
        <mxCell id="0" />
        <mxCell id="1" parent="0" />
        <mxCell id="JbFGEDYey82dg0FfeBYf-1" value="" style="whiteSpace=wrap;html=1;textOpacity=10;fontColor=#d8caca;" parent="1" vertex="1">
          <mxGeometry y="190" width="1460" height="380" as="geometry" />
        </mxCell>
        <mxCell id="_Zf1_vYihe4TUAqM4NDD-5" value="&lt;font style=&quot;font-size: 23px;&quot;&gt;K=5&lt;/font&gt;" style="text;html=1;strokeColor=none;fillColor=none;align=center;verticalAlign=middle;whiteSpace=wrap;rounded=0;" parent="1" vertex="1">
          <mxGeometry x="80" y="240" width="60" height="30" as="geometry" />
        </mxCell>
        <mxCell id="_Zf1_vYihe4TUAqM4NDD-6" value="" style="shape=image;verticalLabelPosition=bottom;labelBackgroundColor=default;verticalAlign=top;aspect=fixed;imageAspect=0;image=data:image/svg+xml,PHN2ZyB4bWxuczp4bGluaz0iaHR0cDovL3d3dy53My5vcmcvMTk5OS94bGluayIgeG1sbnM9Imh0dHA6Ly93d3cudzMub3JnLzIwMDAvc3ZnIiB2aWV3Qm94PSIwIDAgMzYxLjQyNTc4MTI1IDUwMCI+JiN4YTsgICAgPHBhdGggdHJhbnNmb3JtPSJtYXRyaXgoMC4xNDY0ODQzNzUgMCAwIC0wLjE0NjQ4NDM3NSAxMDAgMzMxLjAwNTg1OTM3NSkiIGQ9Ik0gMjE2IDEzOTggUSAyNzkgMTQ5MCA0NTkgMTQ5MCBRIDQ3NiAxNDkwIDQ5NCAxNDg5IFEgNTEyIDE0ODggNTM1IDE0ODYgTCA1MzUgMTMyMiBRIDUwNyAxMzI0IDQ5NC41IDEzMjQuNSBRIDQ4MiAxMzI1IDQ3MSAxMzI1IFEgMzg5IDEzMjUgMzczIDEyODIuNSBRIDM1NyAxMjQwIDM1NyAxMDY2IEwgNTM1IDEwNjYgTCA1MzUgOTI0IEwgMzU1IDkyNCBMIDM1NSAwIEwgMTc3IDAgTCAxNzcgOTI0IEwgMjggOTI0IEwgMjggMTA2NiBMIDE3NyAxMDY2IEwgMTc3IDEyMzQgUSAxODEgMTM0NiAyMTYgMTM5OCBaIi8+JiN4YTsgICAgPHJlY3Qgc3Ryb2tlPSJncmVlbiIgZmlsbD0ibm9uZSIgaGVpZ2h0PSIzMDAiIHdpZHRoPSI4My4zNDk2MDkzNzUiIHk9IjEwMCIgeD0iMTAwIi8+JiN4YTsgICAgPHBhdGggdHJhbnNmb3JtPSJtYXRyaXgoMC4xNDY0ODQzNzUgMCAwIC0wLjE0NjQ4NDM3NSAxNzguMDc2MTcxODc1IDMzMS4wMDU4NTkzNzUpIiBkPSJNIDIxNiAxMzk4IFEgMjc5IDE0OTAgNDU5IDE0OTAgUSA0NzYgMTQ5MCA0OTQgMTQ4OSBRIDUxMiAxNDg4IDUzNSAxNDg2IEwgNTM1IDEzMjIgUSA1MDcgMTMyNCA0OTQuNSAxMzI0LjUgUSA0ODIgMTMyNSA0NzEgMTMyNSBRIDM4OSAxMzI1IDM3MyAxMjgyLjUgUSAzNTcgMTI0MCAzNTcgMTA2NiBMIDUzNSAxMDY2IEwgNTM1IDkyNCBMIDM1NSA5MjQgTCAzNTUgMCBMIDE3NyAwIEwgMTc3IDkyNCBMIDI4IDkyNCBMIDI4IDEwNjYgTCAxNzcgMTA2NiBMIDE3NyAxMjM0IFEgMTgxIDEzNDYgMjE2IDEzOTggWiIvPiYjeGE7ICAgIDxyZWN0IHN0cm9rZT0iZ3JlZW4iIGZpbGw9Im5vbmUiIGhlaWdodD0iMzAwIiB3aWR0aD0iODMuMzQ5NjA5Mzc1IiB5PSIxMDAiIHg9IjE3OC4wNzYxNzE4NzUiLz4mI3hhOyAgICA8cGF0aCBkPSJNIDE0MS42NzQ4MDQ2ODc1IDM1MCBMIDE5Ny4wNDU4OTg0Mzc1IDM1MCIgbWFya2VyLXN0YXJ0PSJ1cmwoI2hlYWQpIiBtYXJrZXItZW5kPSJ1cmwoI2hlYWQpIiBzdHJva2Utd2lkdGg9IjUiIHN0cm9rZS1vcGFjaXR5PSIwLjUiIHN0cm9rZT0icmVkIi8+JiN4YTsgICAgPHRleHQgZmlsbD0icmVkIiBmb250LXNpemU9IjUiIHk9IjM2MCIgeD0iMTY3LjM2MDM1MTU2MjUiPiYjeGE7ICAgICAgICAzNzgmI3hhOyAgICA8L3RleHQ+JiN4YTsgICAgPHBhdGggZD0iTSAxNDEuNjc0ODA0Njg3NSAzMDAgTCAxNDEuNjc0ODA0Njg3NSAzMDAiIG1hcmtlci1zdGFydD0idXJsKCNoZWFkKSIgbWFya2VyLWVuZD0idXJsKCNoZWFkKSIgc3Ryb2tlLXdpZHRoPSI1IiBzdHJva2Utb3BhY2l0eT0iMC41IiBzdHJva2U9InJlZCIvPiYjeGE7ICAgIDx0ZXh0IGZpbGw9InJlZCIgZm9udC1zaXplPSI1IiB5PSIzMTAiIHg9IjEzOS42NzQ4MDQ2ODc1Ij4mI3hhOyAgICAgICAgMCYjeGE7ICAgIDwvdGV4dD4mI3hhOyAgICA8cGF0aCBkPSJNIDE0MS42NzQ4MDQ2ODc1IDI1MCBMIDE0MS42NzQ4MDQ2ODc1IDI1MCIgbWFya2VyLXN0YXJ0PSJ1cmwoI2hlYWQpIiBtYXJrZXItZW5kPSJ1cmwoI2hlYWQpIiBzdHJva2Utd2lkdGg9IjUiIHN0cm9rZS1vcGFjaXR5PSIwLjUiIHN0cm9rZT0icmVkIi8+JiN4YTsgICAgPHRleHQgZmlsbD0icmVkIiBmb250LXNpemU9IjUiIHk9IjI2MCIgeD0iMTM5LjY3NDgwNDY4NzUiPiYjeGE7ICAgICAgICAwJiN4YTsgICAgPC90ZXh0PiYjeGE7ICAgIDxwYXRoIGQ9Ik0gMTQxLjY3NDgwNDY4NzUgMjAwIEwgMTQxLjY3NDgwNDY4NzUgMjAwIiBtYXJrZXItc3RhcnQ9InVybCgjaGVhZCkiIG1hcmtlci1lbmQ9InVybCgjaGVhZCkiIHN0cm9rZS13aWR0aD0iNSIgc3Ryb2tlLW9wYWNpdHk9IjAuNSIgc3Ryb2tlPSJyZWQiLz4mI3hhOyAgICA8dGV4dCBmaWxsPSJyZWQiIGZvbnQtc2l6ZT0iNSIgeT0iMjEwIiB4PSIxMzkuNjc0ODA0Njg3NSI+JiN4YTsgICAgICAgIDAmI3hhOyAgICA8L3RleHQ+JiN4YTsgICAgPHBhdGggZD0iTSAxNDEuNjc0ODA0Njg3NSAxNTAuMDAwMDAwMDAwMDAwMDMgTCAxOTYuODk5NDE0MDYyNSAxNTAuMDAwMDAwMDAwMDAwMDMiIG1hcmtlci1zdGFydD0idXJsKCNoZWFkKSIgbWFya2VyLWVuZD0idXJsKCNoZWFkKSIgc3Ryb2tlLXdpZHRoPSI1IiBzdHJva2Utb3BhY2l0eT0iMC41IiBzdHJva2U9InJlZCIvPiYjeGE7ICAgIDx0ZXh0IGZpbGw9InJlZCIgZm9udC1zaXplPSI1IiB5PSIxNjAuMDAwMDAwMDAwMDAwMDMiIHg9IjE2Ny4yODcxMDkzNzUiPiYjeGE7ICAgICAgICAzNzcmI3hhOyAgICA8L3RleHQ+JiN4YTsgICAgPHBhdGggZD0iTSAxNjQuMzc5ODgyODEyNSAzNTAgTCAyMTkuNzUwOTc2NTYyNSAzNTAiIG1hcmtlci1zdGFydD0idXJsKCNoZWFkKSIgbWFya2VyLWVuZD0idXJsKCNoZWFkKSIgc3Ryb2tlLXdpZHRoPSI1IiBzdHJva2Utb3BhY2l0eT0iMC41IiBzdHJva2U9ImJsdWUiLz4mI3hhOyAgICA8dGV4dCBmaWxsPSJibHVlIiBmb250LXNpemU9IjUiIHk9IjM2MCIgeD0iMTkwLjA2NTQyOTY4NzUiPiYjeGE7ICAgICAgICAzNzgmI3hhOyAgICA8L3RleHQ+JiN4YTsgICAgPHBhdGggZD0iTSAyMTkuNzUwOTc2NTYyNSAzMDAgTCAyMTkuNzUwOTc2NTYyNSAzMDAiIG1hcmtlci1zdGFydD0idXJsKCNoZWFkKSIgbWFya2VyLWVuZD0idXJsKCNoZWFkKSIgc3Ryb2tlLXdpZHRoPSI1IiBzdHJva2Utb3BhY2l0eT0iMC41IiBzdHJva2U9ImJsdWUiLz4mI3hhOyAgICA8dGV4dCBmaWxsPSJibHVlIiBmb250LXNpemU9IjUiIHk9IjMxMCIgeD0iMjE3Ljc1MDk3NjU2MjUiPiYjeGE7ICAgICAgICAwJiN4YTsgICAgPC90ZXh0PiYjeGE7ICAgIDxwYXRoIGQ9Ik0gMjE5Ljc1MDk3NjU2MjUgMjUwIEwgMjE5Ljc1MDk3NjU2MjUgMjUwIiBtYXJrZXItc3RhcnQ9InVybCgjaGVhZCkiIG1hcmtlci1lbmQ9InVybCgjaGVhZCkiIHN0cm9rZS13aWR0aD0iNSIgc3Ryb2tlLW9wYWNpdHk9IjAuNSIgc3Ryb2tlPSJibHVlIi8+JiN4YTsgICAgPHRleHQgZmlsbD0iYmx1ZSIgZm9udC1zaXplPSI1IiB5PSIyNjAiIHg9IjIxNy43NTA5NzY1NjI1Ij4mI3hhOyAgICAgICAgMCYjeGE7ICAgIDwvdGV4dD4mI3hhOyAgICA8cGF0aCBkPSJNIDIxOS43NTA5NzY1NjI1IDIwMCBMIDIxOS43NTA5NzY1NjI1IDIwMCIgbWFya2VyLXN0YXJ0PSJ1cmwoI2hlYWQpIiBtYXJrZXItZW5kPSJ1cmwoI2hlYWQpIiBzdHJva2Utd2lkdGg9IjUiIHN0cm9rZS1vcGFjaXR5PSIwLjUiIHN0cm9rZT0iYmx1ZSIvPiYjeGE7ICAgIDx0ZXh0IGZpbGw9ImJsdWUiIGZvbnQtc2l6ZT0iNSIgeT0iMjEwIiB4PSIyMTcuNzUwOTc2NTYyNSI+JiN4YTsgICAgICAgIDAmI3hhOyAgICA8L3RleHQ+JiN4YTsgICAgPHBhdGggZD0iTSAxNjQuNTI2MzY3MTg3NSAxNTAuMDAwMDAwMDAwMDAwMDMgTCAyMTkuNzUwOTc2NTYyNSAxNTAuMDAwMDAwMDAwMDAwMDMiIG1hcmtlci1zdGFydD0idXJsKCNoZWFkKSIgbWFya2VyLWVuZD0idXJsKCNoZWFkKSIgc3Ryb2tlLXdpZHRoPSI1IiBzdHJva2Utb3BhY2l0eT0iMC41IiBzdHJva2U9ImJsdWUiLz4mI3hhOyAgICA8dGV4dCBmaWxsPSJibHVlIiBmb250LXNpemU9IjUiIHk9IjE2MC4wMDAwMDAwMDAwMDAwMyIgeD0iMTkwLjEzODY3MTg3NSI+JiN4YTsgICAgICAgIDM3NyYjeGE7ICAgIDwvdGV4dD4mI3hhOzwvc3ZnPg==;" parent="1" vertex="1">
          <mxGeometry x="418" y="130" width="361" height="500" as="geometry" />
        </mxCell>
        <mxCell id="_Zf1_vYihe4TUAqM4NDD-7" value="" style="shape=image;verticalLabelPosition=bottom;labelBackgroundColor=default;verticalAlign=top;aspect=fixed;imageAspect=0;image=data:image/svg+xml,PHN2ZyB4bWxuczp4bGluaz0iaHR0cDovL3d3dy53My5vcmcvMTk5OS94bGluayIgeG1sbnM9Imh0dHA6Ly93d3cudzMub3JnLzIwMDAvc3ZnIiB2aWV3Qm94PSIwIDAgMzI4LjAyNzM0Mzc1IDUwMCI+JiN4YTsgICAgPHBhdGggdHJhbnNmb3JtPSJtYXRyaXgoMC4xNDY0ODQzNzUgMCAwIC0wLjE0NjQ4NDM3NSAxMDAgMzMxLjAwNTg1OTM3NSkiIGQ9Ik0gMzQ2IDEzODkgUSAyOTEgMTM4MCAyNjIuNSAxMzI3IFEgMjM0IDEyNzQgMjM0IDEyMDQgUSAyMzQgMTE5OCAyMzQuNSAxMTkyLjUgUSAyMzUgMTE4NyAyMzcgMTE4MCBMIDM0NiAxMTgwIEwgMzQ2IDk2MiBMIDEzMiA5NjIgTCAxMzIgMTE2MyBRIDEzMiAxMjgyIDE4MiAxMzc1LjUgUSAyMzIgMTQ2OSAzNDYgMTQ4MyBMIDM0NiAxMzg5IFoiLz4mI3hhOyAgICA8cmVjdCBzdHJva2U9ImdyZWVuIiBmaWxsPSJub25lIiBoZWlnaHQ9IjMwMCIgd2lkdGg9IjY2LjY1MDM5MDYyNSIgeT0iMTAwIiB4PSIxMDAiLz4mI3hhOyAgICA8cGF0aCB0cmFuc2Zvcm09Im1hdHJpeCgwLjE0NjQ4NDM3NSAwIDAgLTAuMTQ2NDg0Mzc1IDE2MS4zNzY5NTMxMjUgMzMxLjAwNTg1OTM3NSkiIGQ9Ik0gMzQ2IDEzODkgUSAyOTEgMTM4MCAyNjIuNSAxMzI3IFEgMjM0IDEyNzQgMjM0IDEyMDQgUSAyMzQgMTE5OCAyMzQuNSAxMTkyLjUgUSAyMzUgMTE4NyAyMzcgMTE4MCBMIDM0NiAxMTgwIEwgMzQ2IDk2MiBMIDEzMiA5NjIgTCAxMzIgMTE2MyBRIDEzMiAxMjgyIDE4MiAxMzc1LjUgUSAyMzIgMTQ2OSAzNDYgMTQ4MyBMIDM0NiAxMzg5IFoiLz4mI3hhOyAgICA8cmVjdCBzdHJva2U9ImdyZWVuIiBmaWxsPSJub25lIiBoZWlnaHQ9IjMwMCIgd2lkdGg9IjY2LjY1MDM5MDYyNSIgeT0iMTAwIiB4PSIxNjEuMzc2OTUzMTI1Ii8+JiN4YTsgICAgPHBhdGggZD0iTSAxMzMuMzI1MTk1MzEyNSAzNTAgTCAxMzMuMzI1MTk1MzEyNSAzNTAiIG1hcmtlci1zdGFydD0idXJsKCNoZWFkKSIgbWFya2VyLWVuZD0idXJsKCNoZWFkKSIgc3Ryb2tlLXdpZHRoPSI1IiBzdHJva2Utb3BhY2l0eT0iMC41IiBzdHJva2U9InJlZCIvPiYjeGE7ICAgIDx0ZXh0IGZpbGw9InJlZCIgZm9udC1zaXplPSI1IiB5PSIzNjAiIHg9IjEzMS4zMjUxOTUzMTI1Ij4mI3hhOyAgICAgICAgMCYjeGE7ICAgIDwvdGV4dD4mI3hhOyAgICA8cGF0aCBkPSJNIDEzMy4zMjUxOTUzMTI1IDMwMCBMIDEzMy4zMjUxOTUzMTI1IDMwMCIgbWFya2VyLXN0YXJ0PSJ1cmwoI2hlYWQpIiBtYXJrZXItZW5kPSJ1cmwoI2hlYWQpIiBzdHJva2Utd2lkdGg9IjUiIHN0cm9rZS1vcGFjaXR5PSIwLjUiIHN0cm9rZT0icmVkIi8+JiN4YTsgICAgPHRleHQgZmlsbD0icmVkIiBmb250LXNpemU9IjUiIHk9IjMxMCIgeD0iMTMxLjMyNTE5NTMxMjUiPiYjeGE7ICAgICAgICAwJiN4YTsgICAgPC90ZXh0PiYjeGE7ICAgIDxwYXRoIGQ9Ik0gMTMzLjMyNTE5NTMxMjUgMjUwIEwgMTMzLjMyNTE5NTMxMjUgMjUwIiBtYXJrZXItc3RhcnQ9InVybCgjaGVhZCkiIG1hcmtlci1lbmQ9InVybCgjaGVhZCkiIHN0cm9rZS13aWR0aD0iNSIgc3Ryb2tlLW9wYWNpdHk9IjAuNSIgc3Ryb2tlPSJyZWQiLz4mI3hhOyAgICA8dGV4dCBmaWxsPSJyZWQiIGZvbnQtc2l6ZT0iNSIgeT0iMjYwIiB4PSIxMzEuMzI1MTk1MzEyNSI+JiN4YTsgICAgICAgIDAmI3hhOyAgICA8L3RleHQ+JiN4YTsgICAgPHBhdGggZD0iTSAxMzMuMzI1MTk1MzEyNSAyMDAgTCAxMzMuMzI1MTk1MzEyNSAyMDAiIG1hcmtlci1zdGFydD0idXJsKCNoZWFkKSIgbWFya2VyLWVuZD0idXJsKCNoZWFkKSIgc3Ryb2tlLXdpZHRoPSI1IiBzdHJva2Utb3BhY2l0eT0iMC41IiBzdHJva2U9InJlZCIvPiYjeGE7ICAgIDx0ZXh0IGZpbGw9InJlZCIgZm9udC1zaXplPSI1IiB5PSIyMTAiIHg9IjEzMS4zMjUxOTUzMTI1Ij4mI3hhOyAgICAgICAgMCYjeGE7ICAgIDwvdGV4dD4mI3hhOyAgICA8cGF0aCBkPSJNIDEzMy4zMjUxOTUzMTI1IDE1MC4wMDAwMDAwMDAwMDAwMyBMIDEzMy4zMjUxOTUzMTI1IDE1MC4wMDAwMDAwMDAwMDAwMyIgbWFya2VyLXN0YXJ0PSJ1cmwoI2hlYWQpIiBtYXJrZXItZW5kPSJ1cmwoI2hlYWQpIiBzdHJva2Utd2lkdGg9IjUiIHN0cm9rZS1vcGFjaXR5PSIwLjUiIHN0cm9rZT0icmVkIi8+JiN4YTsgICAgPHRleHQgZmlsbD0icmVkIiBmb250LXNpemU9IjUiIHk9IjE2MC4wMDAwMDAwMDAwMDAwMyIgeD0iMTMxLjMyNTE5NTMxMjUiPiYjeGE7ICAgICAgICAwJiN4YTsgICAgPC90ZXh0PiYjeGE7ICAgIDxwYXRoIGQ9Ik0gMTk0LjcwMjE0ODQzNzUgMzUwIEwgMTk0LjcwMjE0ODQzNzUgMzUwIiBtYXJrZXItc3RhcnQ9InVybCgjaGVhZCkiIG1hcmtlci1lbmQ9InVybCgjaGVhZCkiIHN0cm9rZS13aWR0aD0iNSIgc3Ryb2tlLW9wYWNpdHk9IjAuNSIgc3Ryb2tlPSJibHVlIi8+JiN4YTsgICAgPHRleHQgZmlsbD0iYmx1ZSIgZm9udC1zaXplPSI1IiB5PSIzNjAiIHg9IjE5Mi43MDIxNDg0Mzc1Ij4mI3hhOyAgICAgICAgMCYjeGE7ICAgIDwvdGV4dD4mI3hhOyAgICA8cGF0aCBkPSJNIDE5NC43MDIxNDg0Mzc1IDMwMCBMIDE5NC43MDIxNDg0Mzc1IDMwMCIgbWFya2VyLXN0YXJ0PSJ1cmwoI2hlYWQpIiBtYXJrZXItZW5kPSJ1cmwoI2hlYWQpIiBzdHJva2Utd2lkdGg9IjUiIHN0cm9rZS1vcGFjaXR5PSIwLjUiIHN0cm9rZT0iYmx1ZSIvPiYjeGE7ICAgIDx0ZXh0IGZpbGw9ImJsdWUiIGZvbnQtc2l6ZT0iNSIgeT0iMzEwIiB4PSIxOTIuNzAyMTQ4NDM3NSI+JiN4YTsgICAgICAgIDAmI3hhOyAgICA8L3RleHQ+JiN4YTsgICAgPHBhdGggZD0iTSAxOTQuNzAyMTQ4NDM3NSAyNTAgTCAxOTQuNzAyMTQ4NDM3NSAyNTAiIG1hcmtlci1zdGFydD0idXJsKCNoZWFkKSIgbWFya2VyLWVuZD0idXJsKCNoZWFkKSIgc3Ryb2tlLXdpZHRoPSI1IiBzdHJva2Utb3BhY2l0eT0iMC41IiBzdHJva2U9ImJsdWUiLz4mI3hhOyAgICA8dGV4dCBmaWxsPSJibHVlIiBmb250LXNpemU9IjUiIHk9IjI2MCIgeD0iMTkyLjcwMjE0ODQzNzUiPiYjeGE7ICAgICAgICAwJiN4YTsgICAgPC90ZXh0PiYjeGE7ICAgIDxwYXRoIGQ9Ik0gMTk0LjcwMjE0ODQzNzUgMjAwIEwgMTk0LjcwMjE0ODQzNzUgMjAwIiBtYXJrZXItc3RhcnQ9InVybCgjaGVhZCkiIG1hcmtlci1lbmQ9InVybCgjaGVhZCkiIHN0cm9rZS13aWR0aD0iNSIgc3Ryb2tlLW9wYWNpdHk9IjAuNSIgc3Ryb2tlPSJibHVlIi8+JiN4YTsgICAgPHRleHQgZmlsbD0iYmx1ZSIgZm9udC1zaXplPSI1IiB5PSIyMTAiIHg9IjE5Mi43MDIxNDg0Mzc1Ij4mI3hhOyAgICAgICAgMCYjeGE7ICAgIDwvdGV4dD4mI3hhOyAgICA8cGF0aCBkPSJNIDE5NC43MDIxNDg0Mzc1IDE1MC4wMDAwMDAwMDAwMDAwMyBMIDE5NC43MDIxNDg0Mzc1IDE1MC4wMDAwMDAwMDAwMDAwMyIgbWFya2VyLXN0YXJ0PSJ1cmwoI2hlYWQpIiBtYXJrZXItZW5kPSJ1cmwoI2hlYWQpIiBzdHJva2Utd2lkdGg9IjUiIHN0cm9rZS1vcGFjaXR5PSIwLjUiIHN0cm9rZT0iYmx1ZSIvPiYjeGE7ICAgIDx0ZXh0IGZpbGw9ImJsdWUiIGZvbnQtc2l6ZT0iNSIgeT0iMTYwLjAwMDAwMDAwMDAwMDAzIiB4PSIxOTIuNzAyMTQ4NDM3NSI+JiN4YTsgICAgICAgIDAmI3hhOyAgICA8L3RleHQ+JiN4YTs8L3N2Zz4=;" parent="1" vertex="1">
          <mxGeometry x="90" y="130" width="328" height="500" as="geometry" />
        </mxCell>
        <mxCell id="_Zf1_vYihe4TUAqM4NDD-8" value="" style="shape=image;verticalLabelPosition=bottom;labelBackgroundColor=default;verticalAlign=top;aspect=fixed;imageAspect=0;image=data:image/svg+xml,PHN2ZyB4bWxuczp4bGluaz0iaHR0cDovL3d3dy53My5vcmcvMTk5OS94bGluayIgeG1sbnM9Imh0dHA6Ly93d3cudzMub3JnLzIwMDAvc3ZnIiB2aWV3Qm94PSIwIDAgMzI4LjAyNzM0Mzc1IDUwMCI+JiN4YTsgICAgPHBhdGggdHJhbnNmb3JtPSJtYXRyaXgoMC4xNDY0ODQzNzUgMCAwIC0wLjE0NjQ4NDM3NSAxMDAgMzMxLjAwNTg1OTM3NSkiIGQ9Ik0gMTcwIDEwNDIgUSAyMjUgMTA1MSAyNTMuNSAxMTA0IFEgMjgyIDExNTcgMjgyIDEyMjYgUSAyODIgMTIzMyAyODEuNSAxMjM4LjUgUSAyODEgMTI0NCAyNzkgMTI1MSBMIDE3MCAxMjUxIEwgMTcwIDE0NjkgTCAzODQgMTQ2OSBMIDM4NCAxMjY4IFEgMzg0IDExNDAgMzMxIDEwNTAuNSBRIDI3OCA5NjEgMTcwIDk0OCBMIDE3MCAxMDQyIFoiLz4mI3hhOyAgICA8cmVjdCBzdHJva2U9ImdyZWVuIiBmaWxsPSJub25lIiBoZWlnaHQ9IjMwMCIgd2lkdGg9IjY2LjY1MDM5MDYyNSIgeT0iMTAwIiB4PSIxMDAiLz4mI3hhOyAgICA8cGF0aCB0cmFuc2Zvcm09Im1hdHJpeCgwLjE0NjQ4NDM3NSAwIDAgLTAuMTQ2NDg0Mzc1IDE2MS4zNzY5NTMxMjUgMzMxLjAwNTg1OTM3NSkiIGQ9Ik0gMTcwIDEwNDIgUSAyMjUgMTA1MSAyNTMuNSAxMTA0IFEgMjgyIDExNTcgMjgyIDEyMjYgUSAyODIgMTIzMyAyODEuNSAxMjM4LjUgUSAyODEgMTI0NCAyNzkgMTI1MSBMIDE3MCAxMjUxIEwgMTcwIDE0NjkgTCAzODQgMTQ2OSBMIDM4NCAxMjY4IFEgMzg0IDExNDAgMzMxIDEwNTAuNSBRIDI3OCA5NjEgMTcwIDk0OCBMIDE3MCAxMDQyIFoiLz4mI3hhOyAgICA8cmVjdCBzdHJva2U9ImdyZWVuIiBmaWxsPSJub25lIiBoZWlnaHQ9IjMwMCIgd2lkdGg9IjY2LjY1MDM5MDYyNSIgeT0iMTAwIiB4PSIxNjEuMzc2OTUzMTI1Ii8+JiN4YTsgICAgPHBhdGggZD0iTSAxMzMuMzI1MTk1MzEyNSAzNTAgTCAxNTguMzc0MDIzNDM3NSAzNTAiIG1hcmtlci1zdGFydD0idXJsKCNoZWFkKSIgbWFya2VyLWVuZD0idXJsKCNoZWFkKSIgc3Ryb2tlLXdpZHRoPSI1IiBzdHJva2Utb3BhY2l0eT0iMC41IiBzdHJva2U9InJlZCIvPiYjeGE7ICAgIDx0ZXh0IGZpbGw9InJlZCIgZm9udC1zaXplPSI1IiB5PSIzNjAiIHg9IjE0My44NDk2MDkzNzUiPiYjeGE7ICAgICAgICAxNzEmI3hhOyAgICA8L3RleHQ+JiN4YTsgICAgPHBhdGggZD0iTSAxMzMuMzI1MTk1MzEyNSAzMDAgTCAxNTIuNTE0NjQ4NDM3NSAzMDAiIG1hcmtlci1zdGFydD0idXJsKCNoZWFkKSIgbWFya2VyLWVuZD0idXJsKCNoZWFkKSIgc3Ryb2tlLXdpZHRoPSI1IiBzdHJva2Utb3BhY2l0eT0iMC41IiBzdHJva2U9InJlZCIvPiYjeGE7ICAgIDx0ZXh0IGZpbGw9InJlZCIgZm9udC1zaXplPSI1IiB5PSIzMTAiIHg9IjE0MC45MTk5MjE4NzUiPiYjeGE7ICAgICAgICAxMzEmI3hhOyAgICA8L3RleHQ+JiN4YTsgICAgPHBhdGggZD0iTSAxMzMuMzI1MTk1MzEyNSAyNTAgTCAxNTguMDgxMDU0Njg3NSAyNTAiIG1hcmtlci1zdGFydD0idXJsKCNoZWFkKSIgbWFya2VyLWVuZD0idXJsKCNoZWFkKSIgc3Ryb2tlLXdpZHRoPSI1IiBzdHJva2Utb3BhY2l0eT0iMC41IiBzdHJva2U9InJlZCIvPiYjeGE7ICAgIDx0ZXh0IGZpbGw9InJlZCIgZm9udC1zaXplPSI1IiB5PSIyNjAiIHg9IjE0My43MDMxMjUiPiYjeGE7ICAgICAgICAxNjkmI3hhOyAgICA8L3RleHQ+JiN4YTsgICAgPHBhdGggZD0iTSAxMzMuMzI1MTk1MzEyNSAyMDAgTCAxNTUuMjk3ODUxNTYyNSAyMDAiIG1hcmtlci1zdGFydD0idXJsKCNoZWFkKSIgbWFya2VyLWVuZD0idXJsKCNoZWFkKSIgc3Ryb2tlLXdpZHRoPSI1IiBzdHJva2Utb3BhY2l0eT0iMC41IiBzdHJva2U9InJlZCIvPiYjeGE7ICAgIDx0ZXh0IGZpbGw9InJlZCIgZm9udC1zaXplPSI1IiB5PSIyMTAiIHg9IjE0Mi4zMTE1MjM0Mzc1Ij4mI3hhOyAgICAgICAgMTUwJiN4YTsgICAgPC90ZXh0PiYjeGE7ICAgIDxwYXRoIGQ9Ik0gMTMzLjMyNTE5NTMxMjUgMTUwLjAwMDAwMDAwMDAwMDAzIEwgMTU4LjM3NDAyMzQzNzUgMTUwLjAwMDAwMDAwMDAwMDAzIiBtYXJrZXItc3RhcnQ9InVybCgjaGVhZCkiIG1hcmtlci1lbmQ9InVybCgjaGVhZCkiIHN0cm9rZS13aWR0aD0iNSIgc3Ryb2tlLW9wYWNpdHk9IjAuNSIgc3Ryb2tlPSJyZWQiLz4mI3hhOyAgICA8dGV4dCBmaWxsPSJyZWQiIGZvbnQtc2l6ZT0iNSIgeT0iMTYwLjAwMDAwMDAwMDAwMDAzIiB4PSIxNDMuODQ5NjA5Mzc1Ij4mI3hhOyAgICAgICAgMTcxJiN4YTsgICAgPC90ZXh0PiYjeGE7ICAgIDxwYXRoIGQ9Ik0gMTY5LjY1MzMyMDMxMjUgMzUwIEwgMTk0LjcwMjE0ODQzNzUgMzUwIiBtYXJrZXItc3RhcnQ9InVybCgjaGVhZCkiIG1hcmtlci1lbmQ9InVybCgjaGVhZCkiIHN0cm9rZS13aWR0aD0iNSIgc3Ryb2tlLW9wYWNpdHk9IjAuNSIgc3Ryb2tlPSJibHVlIi8+JiN4YTsgICAgPHRleHQgZmlsbD0iYmx1ZSIgZm9udC1zaXplPSI1IiB5PSIzNjAiIHg9IjE4MC4xNzc3MzQzNzUiPiYjeGE7ICAgICAgICAxNzEmI3hhOyAgICA8L3RleHQ+JiN4YTsgICAgPHBhdGggZD0iTSAxNzUuNTEyNjk1MzEyNSAzMDAgTCAxOTQuNzAyMTQ4NDM3NSAzMDAiIG1hcmtlci1zdGFydD0idXJsKCNoZWFkKSIgbWFya2VyLWVuZD0idXJsKCNoZWFkKSIgc3Ryb2tlLXdpZHRoPSI1IiBzdHJva2Utb3BhY2l0eT0iMC41IiBzdHJva2U9ImJsdWUiLz4mI3hhOyAgICA8dGV4dCBmaWxsPSJibHVlIiBmb250LXNpemU9IjUiIHk9IjMxMCIgeD0iMTgzLjEwNzQyMTg3NSI+JiN4YTsgICAgICAgIDEzMSYjeGE7ICAgIDwvdGV4dD4mI3hhOyAgICA8cGF0aCBkPSJNIDE2OS45NDYyODkwNjI1IDI1MCBMIDE5NC43MDIxNDg0Mzc1IDI1MCIgbWFya2VyLXN0YXJ0PSJ1cmwoI2hlYWQpIiBtYXJrZXItZW5kPSJ1cmwoI2hlYWQpIiBzdHJva2Utd2lkdGg9IjUiIHN0cm9rZS1vcGFjaXR5PSIwLjUiIHN0cm9rZT0iYmx1ZSIvPiYjeGE7ICAgIDx0ZXh0IGZpbGw9ImJsdWUiIGZvbnQtc2l6ZT0iNSIgeT0iMjYwIiB4PSIxODAuMzI0MjE4NzUiPiYjeGE7ICAgICAgICAxNjkmI3hhOyAgICA8L3RleHQ+JiN4YTsgICAgPHBhdGggZD0iTSAxNzIuNzI5NDkyMTg3NSAyMDAgTCAxOTQuNzAyMTQ4NDM3NSAyMDAiIG1hcmtlci1zdGFydD0idXJsKCNoZWFkKSIgbWFya2VyLWVuZD0idXJsKCNoZWFkKSIgc3Ryb2tlLXdpZHRoPSI1IiBzdHJva2Utb3BhY2l0eT0iMC41IiBzdHJva2U9ImJsdWUiLz4mI3hhOyAgICA8dGV4dCBmaWxsPSJibHVlIiBmb250LXNpemU9IjUiIHk9IjIxMCIgeD0iMTgxLjcxNTgyMDMxMjUiPiYjeGE7ICAgICAgICAxNTAmI3hhOyAgICA8L3RleHQ+JiN4YTsgICAgPHBhdGggZD0iTSAxNjkuNjUzMzIwMzEyNSAxNTAuMDAwMDAwMDAwMDAwMDMgTCAxOTQuNzAyMTQ4NDM3NSAxNTAuMDAwMDAwMDAwMDAwMDMiIG1hcmtlci1zdGFydD0idXJsKCNoZWFkKSIgbWFya2VyLWVuZD0idXJsKCNoZWFkKSIgc3Ryb2tlLXdpZHRoPSI1IiBzdHJva2Utb3BhY2l0eT0iMC41IiBzdHJva2U9ImJsdWUiLz4mI3hhOyAgICA8dGV4dCBmaWxsPSJibHVlIiBmb250LXNpemU9IjUiIHk9IjE2MC4wMDAwMDAwMDAwMDAwMyIgeD0iMTgwLjE3NzczNDM3NSI+JiN4YTsgICAgICAgIDE3MSYjeGE7ICAgIDwvdGV4dD4mI3hhOzwvc3ZnPg==;" parent="1" vertex="1">
          <mxGeometry x="252" y="130" width="328" height="500" as="geometry" />
        </mxCell>
        <mxCell id="_Zf1_vYihe4TUAqM4NDD-9" value="" style="shape=image;verticalLabelPosition=bottom;labelBackgroundColor=default;verticalAlign=top;aspect=fixed;imageAspect=0;image=data:image/svg+xml,PHN2ZyB4bWxuczp4bGluaz0iaHR0cDovL3d3dy53My5vcmcvMTk5OS94bGluayIgeG1sbnM9Imh0dHA6Ly93d3cudzMub3JnLzIwMDAvc3ZnIiB2aWV3Qm94PSIwIDAgMzYxLjQyNTc4MTI1IDUwMCI+JiN4YTsgICAgPHBhdGggdHJhbnNmb3JtPSJtYXRyaXgoMC4xNDY0ODQzNzUgMCAwIC0wLjE0NjQ4NDM3NSAxMDAgMzMxLjAwNTg1OTM3NSkiIGQ9Ik0gMjE2IDEzOTggUSAyNzkgMTQ5MCA0NTkgMTQ5MCBRIDQ3NiAxNDkwIDQ5NCAxNDg5IFEgNTEyIDE0ODggNTM1IDE0ODYgTCA1MzUgMTMyMiBRIDUwNyAxMzI0IDQ5NC41IDEzMjQuNSBRIDQ4MiAxMzI1IDQ3MSAxMzI1IFEgMzg5IDEzMjUgMzczIDEyODIuNSBRIDM1NyAxMjQwIDM1NyAxMDY2IEwgNTM1IDEwNjYgTCA1MzUgOTI0IEwgMzU1IDkyNCBMIDM1NSAwIEwgMTc3IDAgTCAxNzcgOTI0IEwgMjggOTI0IEwgMjggMTA2NiBMIDE3NyAxMDY2IEwgMTc3IDEyMzQgUSAxODEgMTM0NiAyMTYgMTM5OCBaIi8+JiN4YTsgICAgPHJlY3Qgc3Ryb2tlPSJncmVlbiIgZmlsbD0ibm9uZSIgaGVpZ2h0PSIzMDAiIHdpZHRoPSI4My4zNDk2MDkzNzUiIHk9IjEwMCIgeD0iMTAwIi8+JiN4YTsgICAgPHBhdGggdHJhbnNmb3JtPSJtYXRyaXgoMC4xNDY0ODQzNzUgMCAwIC0wLjE0NjQ4NDM3NSAxNzguMDc2MTcxODc1IDMzMS4wMDU4NTkzNzUpIiBkPSJNIDIxNiAxMzk4IFEgMjc5IDE0OTAgNDU5IDE0OTAgUSA0NzYgMTQ5MCA0OTQgMTQ4OSBRIDUxMiAxNDg4IDUzNSAxNDg2IEwgNTM1IDEzMjIgUSA1MDcgMTMyNCA0OTQuNSAxMzI0LjUgUSA0ODIgMTMyNSA0NzEgMTMyNSBRIDM4OSAxMzI1IDM3MyAxMjgyLjUgUSAzNTcgMTI0MCAzNTcgMTA2NiBMIDUzNSAxMDY2IEwgNTM1IDkyNCBMIDM1NSA5MjQgTCAzNTUgMCBMIDE3NyAwIEwgMTc3IDkyNCBMIDI4IDkyNCBMIDI4IDEwNjYgTCAxNzcgMTA2NiBMIDE3NyAxMjM0IFEgMTgxIDEzNDYgMjE2IDEzOTggWiIvPiYjeGE7ICAgIDxyZWN0IHN0cm9rZT0iZ3JlZW4iIGZpbGw9Im5vbmUiIGhlaWdodD0iMzAwIiB3aWR0aD0iODMuMzQ5NjA5Mzc1IiB5PSIxMDAiIHg9IjE3OC4wNzYxNzE4NzUiLz4mI3hhOyAgICA8cGF0aCBkPSJNIDE0MS42NzQ4MDQ2ODc1IDM5NC4xMTc2NDcwNTg4MjM1NCBMIDIwNS42ODg0NzY1NjI1IDM5NC4xMTc2NDcwNTg4MjM1NCIgbWFya2VyLXN0YXJ0PSJ1cmwoI2hlYWQpIiBtYXJrZXItZW5kPSJ1cmwoI2hlYWQpIiBzdHJva2Utd2lkdGg9IjUiIHN0cm9rZS1vcGFjaXR5PSIwLjUiIHN0cm9rZT0icmVkIi8+JiN4YTsgICAgPHRleHQgZmlsbD0icmVkIiBmb250LXNpemU9IjUiIHk9IjQwNC4xMTc2NDcwNTg4MjM1NCIgeD0iMTcxLjY4MTY0MDYyNSI+JiN4YTsgICAgICAgIDQzNyYjeGE7ICAgIDwvdGV4dD4mI3hhOyAgICA8cGF0aCBkPSJNIDE0MS42NzQ4MDQ2ODc1IDM4OC4yMzUyOTQxMTc2NDcxIEwgMTk0LjI2MjY5NTMxMjUgMzg4LjIzNTI5NDExNzY0NzEiIG1hcmtlci1zdGFydD0idXJsKCNoZWFkKSIgbWFya2VyLWVuZD0idXJsKCNoZWFkKSIgc3Ryb2tlLXdpZHRoPSI1IiBzdHJva2Utb3BhY2l0eT0iMC41IiBzdHJva2U9InJlZCIvPiYjeGE7ICAgIDx0ZXh0IGZpbGw9InJlZCIgZm9udC1zaXplPSI1IiB5PSIzOTguMjM1Mjk0MTE3NjQ3MSIgeD0iMTY1Ljk2ODc1Ij4mI3hhOyAgICAgICAgMzU5JiN4YTsgICAgPC90ZXh0PiYjeGE7ICAgIDxwYXRoIGQ9Ik0gMTQxLjY3NDgwNDY4NzUgMzgyLjM1Mjk0MTE3NjQ3MDYgTCAyMTkuMzExNTIzNDM3NSAzODIuMzUyOTQxMTc2NDcwNiIgbWFya2VyLXN0YXJ0PSJ1cmwoI2hlYWQpIiBtYXJrZXItZW5kPSJ1cmwoI2hlYWQpIiBzdHJva2Utd2lkdGg9IjUiIHN0cm9rZS1vcGFjaXR5PSIwLjUiIHN0cm9rZT0icmVkIi8+JiN4YTsgICAgPHRleHQgZmlsbD0icmVkIiBmb250LXNpemU9IjUiIHk9IjM5Mi4zNTI5NDExNzY0NzA2IiB4PSIxNzguNDkzMTY0MDYyNSI+JiN4YTsgICAgICAgIDUzMCYjeGE7ICAgIDwvdGV4dD4mI3hhOyAgICA8cGF0aCBkPSJNIDE0MS42NzQ4MDQ2ODc1IDM3Ni40NzA1ODgyMzUyOTQxNCBMIDE0MS42NzQ4MDQ2ODc1IDM3Ni40NzA1ODgyMzUyOTQxNCIgbWFya2VyLXN0YXJ0PSJ1cmwoI2hlYWQpIiBtYXJrZXItZW5kPSJ1cmwoI2hlYWQpIiBzdHJva2Utd2lkdGg9IjUiIHN0cm9rZS1vcGFjaXR5PSIwLjUiIHN0cm9rZT0icmVkIi8+JiN4YTsgICAgPHRleHQgZmlsbD0icmVkIiBmb250LXNpemU9IjUiIHk9IjM4Ni40NzA1ODgyMzUyOTQxNCIgeD0iMTM5LjY3NDgwNDY4NzUiPiYjeGE7ICAgICAgICAwJiN4YTsgICAgPC90ZXh0PiYjeGE7ICAgIDxwYXRoIGQ9Ik0gMTQxLjY3NDgwNDY4NzUgMzcwLjU4ODIzNTI5NDExNzcgTCAxNDEuNjc0ODA0Njg3NSAzNzAuNTg4MjM1Mjk0MTE3NyIgbWFya2VyLXN0YXJ0PSJ1cmwoI2hlYWQpIiBtYXJrZXItZW5kPSJ1cmwoI2hlYWQpIiBzdHJva2Utd2lkdGg9IjUiIHN0cm9rZS1vcGFjaXR5PSIwLjUiIHN0cm9rZT0icmVkIi8+JiN4YTsgICAgPHRleHQgZmlsbD0icmVkIiBmb250LXNpemU9IjUiIHk9IjM4MC41ODgyMzUyOTQxMTc3IiB4PSIxMzkuNjc0ODA0Njg3NSI+JiN4YTsgICAgICAgIDAmI3hhOyAgICA8L3RleHQ+JiN4YTsgICAgPHBhdGggZD0iTSAxNDEuNjc0ODA0Njg3NSAzNjQuNzA1ODgyMzUyOTQxMTYgTCAxNDEuNjc0ODA0Njg3NSAzNjQuNzA1ODgyMzUyOTQxMTYiIG1hcmtlci1zdGFydD0idXJsKCNoZWFkKSIgbWFya2VyLWVuZD0idXJsKCNoZWFkKSIgc3Ryb2tlLXdpZHRoPSI1IiBzdHJva2Utb3BhY2l0eT0iMC41IiBzdHJva2U9InJlZCIvPiYjeGE7ICAgIDx0ZXh0IGZpbGw9InJlZCIgZm9udC1zaXplPSI1IiB5PSIzNzQuNzA1ODgyMzUyOTQxMTYiIHg9IjEzOS42NzQ4MDQ2ODc1Ij4mI3hhOyAgICAgICAgMCYjeGE7ICAgIDwvdGV4dD4mI3hhOyAgICA8cGF0aCBkPSJNIDE0MS42NzQ4MDQ2ODc1IDM1OC44MjM1Mjk0MTE3NjQ3IEwgMTQxLjY3NDgwNDY4NzUgMzU4LjgyMzUyOTQxMTc2NDciIG1hcmtlci1zdGFydD0idXJsKCNoZWFkKSIgbWFya2VyLWVuZD0idXJsKCNoZWFkKSIgc3Ryb2tlLXdpZHRoPSI1IiBzdHJva2Utb3BhY2l0eT0iMC41IiBzdHJva2U9InJlZCIvPiYjeGE7ICAgIDx0ZXh0IGZpbGw9InJlZCIgZm9udC1zaXplPSI1IiB5PSIzNjguODIzNTI5NDExNzY0NyIgeD0iMTM5LjY3NDgwNDY4NzUiPiYjeGE7ICAgICAgICAwJiN4YTsgICAgPC90ZXh0PiYjeGE7ICAgIDxwYXRoIGQ9Ik0gMTQxLjY3NDgwNDY4NzUgMzUyLjk0MTE3NjQ3MDU4ODIzIEwgMjA1LjM5NTUwNzgxMjUgMzUyLjk0MTE3NjQ3MDU4ODIzIiBtYXJrZXItc3RhcnQ9InVybCgjaGVhZCkiIG1hcmtlci1lbmQ9InVybCgjaGVhZCkiIHN0cm9rZS13aWR0aD0iNSIgc3Ryb2tlLW9wYWNpdHk9IjAuNSIgc3Ryb2tlPSJyZWQiLz4mI3hhOyAgICA8dGV4dCBmaWxsPSJyZWQiIGZvbnQtc2l6ZT0iNSIgeT0iMzYyLjk0MTE3NjQ3MDU4ODIzIiB4PSIxNzEuNTM1MTU2MjUiPiYjeGE7ICAgICAgICA0MzUmI3hhOyAgICA8L3RleHQ+JiN4YTsgICAgPHBhdGggZD0iTSAxNDEuNjc0ODA0Njg3NSAzNDcuMDU4ODIzNTI5NDExNzcgTCAxNDEuNjc0ODA0Njg3NSAzNDcuMDU4ODIzNTI5NDExNzciIG1hcmtlci1zdGFydD0idXJsKCNoZWFkKSIgbWFya2VyLWVuZD0idXJsKCNoZWFkKSIgc3Ryb2tlLXdpZHRoPSI1IiBzdHJva2Utb3BhY2l0eT0iMC41IiBzdHJva2U9InJlZCIvPiYjeGE7ICAgIDx0ZXh0IGZpbGw9InJlZCIgZm9udC1zaXplPSI1IiB5PSIzNTcuMDU4ODIzNTI5NDExNzciIHg9IjEzOS42NzQ4MDQ2ODc1Ij4mI3hhOyAgICAgICAgMCYjeGE7ICAgIDwvdGV4dD4mI3hhOyAgICA8cGF0aCBkPSJNIDE0MS42NzQ4MDQ2ODc1IDM0MS4xNzY0NzA1ODgyMzUzIEwgMTQxLjY3NDgwNDY4NzUgMzQxLjE3NjQ3MDU4ODIzNTMiIG1hcmtlci1zdGFydD0idXJsKCNoZWFkKSIgbWFya2VyLWVuZD0idXJsKCNoZWFkKSIgc3Ryb2tlLXdpZHRoPSI1IiBzdHJva2Utb3BhY2l0eT0iMC41IiBzdHJva2U9InJlZCIvPiYjeGE7ICAgIDx0ZXh0IGZpbGw9InJlZCIgZm9udC1zaXplPSI1IiB5PSIzNTEuMTc2NDcwNTg4MjM1MyIgeD0iMTM5LjY3NDgwNDY4NzUiPiYjeGE7ICAgICAgICAwJiN4YTsgICAgPC90ZXh0PiYjeGE7ICAgIDxwYXRoIGQ9Ik0gMTQxLjY3NDgwNDY4NzUgMzM1LjI5NDExNzY0NzA1ODg0IEwgMTk2Ljg5OTQxNDA2MjUgMzM1LjI5NDExNzY0NzA1ODg0IiBtYXJrZXItc3RhcnQ9InVybCgjaGVhZCkiIG1hcmtlci1lbmQ9InVybCgjaGVhZCkiIHN0cm9rZS13aWR0aD0iNSIgc3Ryb2tlLW9wYWNpdHk9IjAuNSIgc3Ryb2tlPSJyZWQiLz4mI3hhOyAgICA8dGV4dCBmaWxsPSJyZWQiIGZvbnQtc2l6ZT0iNSIgeT0iMzQ1LjI5NDExNzY0NzA1ODg0IiB4PSIxNjcuMjg3MTA5Mzc1Ij4mI3hhOyAgICAgICAgMzc3JiN4YTsgICAgPC90ZXh0PiYjeGE7ICAgIDxwYXRoIGQ9Ik0gMTQxLjY3NDgwNDY4NzUgMzI5LjQxMTc2NDcwNTg4MjMgTCAxNDEuNjc0ODA0Njg3NSAzMjkuNDExNzY0NzA1ODgyMyIgbWFya2VyLXN0YXJ0PSJ1cmwoI2hlYWQpIiBtYXJrZXItZW5kPSJ1cmwoI2hlYWQpIiBzdHJva2Utd2lkdGg9IjUiIHN0cm9rZS1vcGFjaXR5PSIwLjUiIHN0cm9rZT0icmVkIi8+JiN4YTsgICAgPHRleHQgZmlsbD0icmVkIiBmb250LXNpemU9IjUiIHk9IjMzOS40MTE3NjQ3MDU4ODIzIiB4PSIxMzkuNjc0ODA0Njg3NSI+JiN4YTsgICAgICAgIDAmI3hhOyAgICA8L3RleHQ+JiN4YTsgICAgPHBhdGggZD0iTSAxNDEuNjc0ODA0Njg3NSAzMjMuNTI5NDExNzY0NzA1ODYgTCAxNDEuNjc0ODA0Njg3NSAzMjMuNTI5NDExNzY0NzA1ODYiIG1hcmtlci1zdGFydD0idXJsKCNoZWFkKSIgbWFya2VyLWVuZD0idXJsKCNoZWFkKSIgc3Ryb2tlLXdpZHRoPSI1IiBzdHJva2Utb3BhY2l0eT0iMC41IiBzdHJva2U9InJlZCIvPiYjeGE7ICAgIDx0ZXh0IGZpbGw9InJlZCIgZm9udC1zaXplPSI1IiB5PSIzMzMuNTI5NDExNzY0NzA1ODYiIHg9IjEzOS42NzQ4MDQ2ODc1Ij4mI3hhOyAgICAgICAgMCYjeGE7ICAgIDwvdGV4dD4mI3hhOyAgICA8cGF0aCBkPSJNIDE0MS42NzQ4MDQ2ODc1IDMxNy42NDcwNTg4MjM1Mjk0IEwgMTQxLjY3NDgwNDY4NzUgMzE3LjY0NzA1ODgyMzUyOTQiIG1hcmtlci1zdGFydD0idXJsKCNoZWFkKSIgbWFya2VyLWVuZD0idXJsKCNoZWFkKSIgc3Ryb2tlLXdpZHRoPSI1IiBzdHJva2Utb3BhY2l0eT0iMC41IiBzdHJva2U9InJlZCIvPiYjeGE7ICAgIDx0ZXh0IGZpbGw9InJlZCIgZm9udC1zaXplPSI1IiB5PSIzMjcuNjQ3MDU4ODIzNTI5NCIgeD0iMTM5LjY3NDgwNDY4NzUiPiYjeGE7ICAgICAgICAwJiN4YTsgICAgPC90ZXh0PiYjeGE7ICAgIDxwYXRoIGQ9Ik0gMTQxLjY3NDgwNDY4NzUgMzExLjc2NDcwNTg4MjM1MjkgTCAxNDEuNjc0ODA0Njg3NSAzMTEuNzY0NzA1ODgyMzUyOSIgbWFya2VyLXN0YXJ0PSJ1cmwoI2hlYWQpIiBtYXJrZXItZW5kPSJ1cmwoI2hlYWQpIiBzdHJva2Utd2lkdGg9IjUiIHN0cm9rZS1vcGFjaXR5PSIwLjUiIHN0cm9rZT0icmVkIi8+JiN4YTsgICAgPHRleHQgZmlsbD0icmVkIiBmb250LXNpemU9IjUiIHk9IjMyMS43NjQ3MDU4ODIzNTI5IiB4PSIxMzkuNjc0ODA0Njg3NSI+JiN4YTsgICAgICAgIDAmI3hhOyAgICA8L3RleHQ+JiN4YTsgICAgPHBhdGggZD0iTSAxNDEuNjc0ODA0Njg3NSAzMDUuODgyMzUyOTQxMTc2NDYgTCAxNDEuNjc0ODA0Njg3NSAzMDUuODgyMzUyOTQxMTc2NDYiIG1hcmtlci1zdGFydD0idXJsKCNoZWFkKSIgbWFya2VyLWVuZD0idXJsKCNoZWFkKSIgc3Ryb2tlLXdpZHRoPSI1IiBzdHJva2Utb3BhY2l0eT0iMC41IiBzdHJva2U9InJlZCIvPiYjeGE7ICAgIDx0ZXh0IGZpbGw9InJlZCIgZm9udC1zaXplPSI1IiB5PSIzMTUuODgyMzUyOTQxMTc2NDYiIHg9IjEzOS42NzQ4MDQ2ODc1Ij4mI3hhOyAgICAgICAgMCYjeGE7ICAgIDwvdGV4dD4mI3hhOyAgICA8cGF0aCBkPSJNIDE0MS42NzQ4MDQ2ODc1IDMwMCBMIDE0MS42NzQ4MDQ2ODc1IDMwMCIgbWFya2VyLXN0YXJ0PSJ1cmwoI2hlYWQpIiBtYXJrZXItZW5kPSJ1cmwoI2hlYWQpIiBzdHJva2Utd2lkdGg9IjUiIHN0cm9rZS1vcGFjaXR5PSIwLjUiIHN0cm9rZT0icmVkIi8+JiN4YTsgICAgPHRleHQgZmlsbD0icmVkIiBmb250LXNpemU9IjUiIHk9IjMxMCIgeD0iMTM5LjY3NDgwNDY4NzUiPiYjeGE7ICAgICAgICAwJiN4YTsgICAgPC90ZXh0PiYjeGE7ICAgIDxwYXRoIGQ9Ik0gMTQxLjY3NDgwNDY4NzUgMjk0LjExNzY0NzA1ODgyMzU0IEwgMTQxLjY3NDgwNDY4NzUgMjk0LjExNzY0NzA1ODgyMzU0IiBtYXJrZXItc3RhcnQ9InVybCgjaGVhZCkiIG1hcmtlci1lbmQ9InVybCgjaGVhZCkiIHN0cm9rZS13aWR0aD0iNSIgc3Ryb2tlLW9wYWNpdHk9IjAuNSIgc3Ryb2tlPSJyZWQiLz4mI3hhOyAgICA8dGV4dCBmaWxsPSJyZWQiIGZvbnQtc2l6ZT0iNSIgeT0iMzA0LjExNzY0NzA1ODgyMzU0IiB4PSIxMzkuNjc0ODA0Njg3NSI+JiN4YTsgICAgICAgIDAmI3hhOyAgICA8L3RleHQ+JiN4YTsgICAgPHBhdGggZD0iTSAxNDEuNjc0ODA0Njg3NSAyODguMjM1Mjk0MTE3NjQ3MSBMIDE0MS42NzQ4MDQ2ODc1IDI4OC4yMzUyOTQxMTc2NDcxIiBtYXJrZXItc3RhcnQ9InVybCgjaGVhZCkiIG1hcmtlci1lbmQ9InVybCgjaGVhZCkiIHN0cm9rZS13aWR0aD0iNSIgc3Ryb2tlLW9wYWNpdHk9IjAuNSIgc3Ryb2tlPSJyZWQiLz4mI3hhOyAgICA8dGV4dCBmaWxsPSJyZWQiIGZvbnQtc2l6ZT0iNSIgeT0iMjk4LjIzNTI5NDExNzY0NzEiIHg9IjEzOS42NzQ4MDQ2ODc1Ij4mI3hhOyAgICAgICAgMCYjeGE7ICAgIDwvdGV4dD4mI3hhOyAgICA8cGF0aCBkPSJNIDE0MS42NzQ4MDQ2ODc1IDI4Mi4zNTI5NDExNzY0NzA2IEwgMTQxLjY3NDgwNDY4NzUgMjgyLjM1Mjk0MTE3NjQ3MDYiIG1hcmtlci1zdGFydD0idXJsKCNoZWFkKSIgbWFya2VyLWVuZD0idXJsKCNoZWFkKSIgc3Ryb2tlLXdpZHRoPSI1IiBzdHJva2Utb3BhY2l0eT0iMC41IiBzdHJva2U9InJlZCIvPiYjeGE7ICAgIDx0ZXh0IGZpbGw9InJlZCIgZm9udC1zaXplPSI1IiB5PSIyOTIuMzUyOTQxMTc2NDcwNiIgeD0iMTM5LjY3NDgwNDY4NzUiPiYjeGE7ICAgICAgICAwJiN4YTsgICAgPC90ZXh0PiYjeGE7ICAgIDxwYXRoIGQ9Ik0gMTQxLjY3NDgwNDY4NzUgMjc2LjQ3MDU4ODIzNTI5NDE0IEwgMTQxLjY3NDgwNDY4NzUgMjc2LjQ3MDU4ODIzNTI5NDE0IiBtYXJrZXItc3RhcnQ9InVybCgjaGVhZCkiIG1hcmtlci1lbmQ9InVybCgjaGVhZCkiIHN0cm9rZS13aWR0aD0iNSIgc3Ryb2tlLW9wYWNpdHk9IjAuNSIgc3Ryb2tlPSJyZWQiLz4mI3hhOyAgICA8dGV4dCBmaWxsPSJyZWQiIGZvbnQtc2l6ZT0iNSIgeT0iMjg2LjQ3MDU4ODIzNTI5NDE0IiB4PSIxMzkuNjc0ODA0Njg3NSI+JiN4YTsgICAgICAgIDAmI3hhOyAgICA8L3RleHQ+JiN4YTsgICAgPHBhdGggZD0iTSAxNDEuNjc0ODA0Njg3NSAyNzAuNTg4MjM1Mjk0MTE3NyBMIDE0MS42NzQ4MDQ2ODc1IDI3MC41ODgyMzUyOTQxMTc3IiBtYXJrZXItc3RhcnQ9InVybCgjaGVhZCkiIG1hcmtlci1lbmQ9InVybCgjaGVhZCkiIHN0cm9rZS13aWR0aD0iNSIgc3Ryb2tlLW9wYWNpdHk9IjAuNSIgc3Ryb2tlPSJyZWQiLz4mI3hhOyAgICA8dGV4dCBmaWxsPSJyZWQiIGZvbnQtc2l6ZT0iNSIgeT0iMjgwLjU4ODIzNTI5NDExNzciIHg9IjEzOS42NzQ4MDQ2ODc1Ij4mI3hhOyAgICAgICAgMCYjeGE7ICAgIDwvdGV4dD4mI3hhOyAgICA8cGF0aCBkPSJNIDE0MS42NzQ4MDQ2ODc1IDI2NC43MDU4ODIzNTI5NDEyIEwgMTQxLjY3NDgwNDY4NzUgMjY0LjcwNTg4MjM1Mjk0MTIiIG1hcmtlci1zdGFydD0idXJsKCNoZWFkKSIgbWFya2VyLWVuZD0idXJsKCNoZWFkKSIgc3Ryb2tlLXdpZHRoPSI1IiBzdHJva2Utb3BhY2l0eT0iMC41IiBzdHJva2U9InJlZCIvPiYjeGE7ICAgIDx0ZXh0IGZpbGw9InJlZCIgZm9udC1zaXplPSI1IiB5PSIyNzQuNzA1ODgyMzUyOTQxMiIgeD0iMTM5LjY3NDgwNDY4NzUiPiYjeGE7ICAgICAgICAwJiN4YTsgICAgPC90ZXh0PiYjeGE7ICAgIDxwYXRoIGQ9Ik0gMTQxLjY3NDgwNDY4NzUgMjU4LjgyMzUyOTQxMTc2NDcgTCAxNDEuNjc0ODA0Njg3NSAyNTguODIzNTI5NDExNzY0NyIgbWFya2VyLXN0YXJ0PSJ1cmwoI2hlYWQpIiBtYXJrZXItZW5kPSJ1cmwoI2hlYWQpIiBzdHJva2Utd2lkdGg9IjUiIHN0cm9rZS1vcGFjaXR5PSIwLjUiIHN0cm9rZT0icmVkIi8+JiN4YTsgICAgPHRleHQgZmlsbD0icmVkIiBmb250LXNpemU9IjUiIHk9IjI2OC44MjM1Mjk0MTE3NjQ3IiB4PSIxMzkuNjc0ODA0Njg3NSI+JiN4YTsgICAgICAgIDAmI3hhOyAgICA8L3RleHQ+JiN4YTsgICAgPHBhdGggZD0iTSAxNDEuNjc0ODA0Njg3NSAyNTIuOTQxMTc2NDcwNTg4MjMgTCAxNDEuNjc0ODA0Njg3NSAyNTIuOTQxMTc2NDcwNTg4MjMiIG1hcmtlci1zdGFydD0idXJsKCNoZWFkKSIgbWFya2VyLWVuZD0idXJsKCNoZWFkKSIgc3Ryb2tlLXdpZHRoPSI1IiBzdHJva2Utb3BhY2l0eT0iMC41IiBzdHJva2U9InJlZCIvPiYjeGE7ICAgIDx0ZXh0IGZpbGw9InJlZCIgZm9udC1zaXplPSI1IiB5PSIyNjIuOTQxMTc2NDcwNTg4MjMiIHg9IjEzOS42NzQ4MDQ2ODc1Ij4mI3hhOyAgICAgICAgMCYjeGE7ICAgIDwvdGV4dD4mI3hhOyAgICA8cGF0aCBkPSJNIDE0MS42NzQ4MDQ2ODc1IDI0Ny4wNTg4MjM1Mjk0MTE3NyBMIDE0MS42NzQ4MDQ2ODc1IDI0Ny4wNTg4MjM1Mjk0MTE3NyIgbWFya2VyLXN0YXJ0PSJ1cmwoI2hlYWQpIiBtYXJrZXItZW5kPSJ1cmwoI2hlYWQpIiBzdHJva2Utd2lkdGg9IjUiIHN0cm9rZS1vcGFjaXR5PSIwLjUiIHN0cm9rZT0icmVkIi8+JiN4YTsgICAgPHRleHQgZmlsbD0icmVkIiBmb250LXNpemU9IjUiIHk9IjI1Ny4wNTg4MjM1Mjk0MTE3NyIgeD0iMTM5LjY3NDgwNDY4NzUiPiYjeGE7ICAgICAgICAwJiN4YTsgICAgPC90ZXh0PiYjeGE7ICAgIDxwYXRoIGQ9Ik0gMTQxLjY3NDgwNDY4NzUgMjQxLjE3NjQ3MDU4ODIzNTMgTCAxNDEuNjc0ODA0Njg3NSAyNDEuMTc2NDcwNTg4MjM1MyIgbWFya2VyLXN0YXJ0PSJ1cmwoI2hlYWQpIiBtYXJrZXItZW5kPSJ1cmwoI2hlYWQpIiBzdHJva2Utd2lkdGg9IjUiIHN0cm9rZS1vcGFjaXR5PSIwLjUiIHN0cm9rZT0icmVkIi8+JiN4YTsgICAgPHRleHQgZmlsbD0icmVkIiBmb250LXNpemU9IjUiIHk9IjI1MS4xNzY0NzA1ODgyMzUzIiB4PSIxMzkuNjc0ODA0Njg3NSI+JiN4YTsgICAgICAgIDAmI3hhOyAgICA8L3RleHQ+JiN4YTsgICAgPHBhdGggZD0iTSAxNDEuNjc0ODA0Njg3NSAyMzUuMjk0MTE3NjQ3MDU4OCBMIDE0MS42NzQ4MDQ2ODc1IDIzNS4yOTQxMTc2NDcwNTg4IiBtYXJrZXItc3RhcnQ9InVybCgjaGVhZCkiIG1hcmtlci1lbmQ9InVybCgjaGVhZCkiIHN0cm9rZS13aWR0aD0iNSIgc3Ryb2tlLW9wYWNpdHk9IjAuNSIgc3Ryb2tlPSJyZWQiLz4mI3hhOyAgICA8dGV4dCBmaWxsPSJyZWQiIGZvbnQtc2l6ZT0iNSIgeT0iMjQ1LjI5NDExNzY0NzA1ODgiIHg9IjEzOS42NzQ4MDQ2ODc1Ij4mI3hhOyAgICAgICAgMCYjeGE7ICAgIDwvdGV4dD4mI3hhOyAgICA8cGF0aCBkPSJNIDE0MS42NzQ4MDQ2ODc1IDIyOS40MTE3NjQ3MDU4ODIzNSBMIDE0MS42NzQ4MDQ2ODc1IDIyOS40MTE3NjQ3MDU4ODIzNSIgbWFya2VyLXN0YXJ0PSJ1cmwoI2hlYWQpIiBtYXJrZXItZW5kPSJ1cmwoI2hlYWQpIiBzdHJva2Utd2lkdGg9IjUiIHN0cm9rZS1vcGFjaXR5PSIwLjUiIHN0cm9rZT0icmVkIi8+JiN4YTsgICAgPHRleHQgZmlsbD0icmVkIiBmb250LXNpemU9IjUiIHk9IjIzOS40MTE3NjQ3MDU4ODIzNSIgeD0iMTM5LjY3NDgwNDY4NzUiPiYjeGE7ICAgICAgICAwJiN4YTsgICAgPC90ZXh0PiYjeGE7ICAgIDxwYXRoIGQ9Ik0gMTQxLjY3NDgwNDY4NzUgMjIzLjUyOTQxMTc2NDcwNTg4IEwgMTQxLjY3NDgwNDY4NzUgMjIzLjUyOTQxMTc2NDcwNTg4IiBtYXJrZXItc3RhcnQ9InVybCgjaGVhZCkiIG1hcmtlci1lbmQ9InVybCgjaGVhZCkiIHN0cm9rZS13aWR0aD0iNSIgc3Ryb2tlLW9wYWNpdHk9IjAuNSIgc3Ryb2tlPSJyZWQiLz4mI3hhOyAgICA8dGV4dCBmaWxsPSJyZWQiIGZvbnQtc2l6ZT0iNSIgeT0iMjMzLjUyOTQxMTc2NDcwNTg4IiB4PSIxMzkuNjc0ODA0Njg3NSI+JiN4YTsgICAgICAgIDAmI3hhOyAgICA8L3RleHQ+JiN4YTsgICAgPHBhdGggZD0iTSAxNDEuNjc0ODA0Njg3NSAyMTcuNjQ3MDU4ODIzNTI5NDIgTCAxNDEuNjc0ODA0Njg3NSAyMTcuNjQ3MDU4ODIzNTI5NDIiIG1hcmtlci1zdGFydD0idXJsKCNoZWFkKSIgbWFya2VyLWVuZD0idXJsKCNoZWFkKSIgc3Ryb2tlLXdpZHRoPSI1IiBzdHJva2Utb3BhY2l0eT0iMC41IiBzdHJva2U9InJlZCIvPiYjeGE7ICAgIDx0ZXh0IGZpbGw9InJlZCIgZm9udC1zaXplPSI1IiB5PSIyMjcuNjQ3MDU4ODIzNTI5NDIiIHg9IjEzOS42NzQ4MDQ2ODc1Ij4mI3hhOyAgICAgICAgMCYjeGE7ICAgIDwvdGV4dD4mI3hhOyAgICA8cGF0aCBkPSJNIDE0MS42NzQ4MDQ2ODc1IDIxMS43NjQ3MDU4ODIzNTI5NiBMIDE0MS42NzQ4MDQ2ODc1IDIxMS43NjQ3MDU4ODIzNTI5NiIgbWFya2VyLXN0YXJ0PSJ1cmwoI2hlYWQpIiBtYXJrZXItZW5kPSJ1cmwoI2hlYWQpIiBzdHJva2Utd2lkdGg9IjUiIHN0cm9rZS1vcGFjaXR5PSIwLjUiIHN0cm9rZT0icmVkIi8+JiN4YTsgICAgPHRleHQgZmlsbD0icmVkIiBmb250LXNpemU9IjUiIHk9IjIyMS43NjQ3MDU4ODIzNTI5NiIgeD0iMTM5LjY3NDgwNDY4NzUiPiYjeGE7ICAgICAgICAwJiN4YTsgICAgPC90ZXh0PiYjeGE7ICAgIDxwYXRoIGQ9Ik0gMTQxLjY3NDgwNDY4NzUgMjA1Ljg4MjM1Mjk0MTE3NjQ2IEwgMTQxLjY3NDgwNDY4NzUgMjA1Ljg4MjM1Mjk0MTE3NjQ2IiBtYXJrZXItc3RhcnQ9InVybCgjaGVhZCkiIG1hcmtlci1lbmQ9InVybCgjaGVhZCkiIHN0cm9rZS13aWR0aD0iNSIgc3Ryb2tlLW9wYWNpdHk9IjAuNSIgc3Ryb2tlPSJyZWQiLz4mI3hhOyAgICA8dGV4dCBmaWxsPSJyZWQiIGZvbnQtc2l6ZT0iNSIgeT0iMjE1Ljg4MjM1Mjk0MTE3NjQ2IiB4PSIxMzkuNjc0ODA0Njg3NSI+JiN4YTsgICAgICAgIDAmI3hhOyAgICA8L3RleHQ+JiN4YTsgICAgPHBhdGggZD0iTSAxNDEuNjc0ODA0Njg3NSAyMDAgTCAxNDEuNjc0ODA0Njg3NSAyMDAiIG1hcmtlci1zdGFydD0idXJsKCNoZWFkKSIgbWFya2VyLWVuZD0idXJsKCNoZWFkKSIgc3Ryb2tlLXdpZHRoPSI1IiBzdHJva2Utb3BhY2l0eT0iMC41IiBzdHJva2U9InJlZCIvPiYjeGE7ICAgIDx0ZXh0IGZpbGw9InJlZCIgZm9udC1zaXplPSI1IiB5PSIyMTAiIHg9IjEzOS42NzQ4MDQ2ODc1Ij4mI3hhOyAgICAgICAgMCYjeGE7ICAgIDwvdGV4dD4mI3hhOyAgICA8cGF0aCBkPSJNIDE0MS42NzQ4MDQ2ODc1IDE5NC4xMTc2NDcwNTg4MjM1NCBMIDE5Ni44OTk0MTQwNjI1IDE5NC4xMTc2NDcwNTg4MjM1NCIgbWFya2VyLXN0YXJ0PSJ1cmwoI2hlYWQpIiBtYXJrZXItZW5kPSJ1cmwoI2hlYWQpIiBzdHJva2Utd2lkdGg9IjUiIHN0cm9rZS1vcGFjaXR5PSIwLjUiIHN0cm9rZT0icmVkIi8+JiN4YTsgICAgPHRleHQgZmlsbD0icmVkIiBmb250LXNpemU9IjUiIHk9IjIwNC4xMTc2NDcwNTg4MjM1NCIgeD0iMTY3LjI4NzEwOTM3NSI+JiN4YTsgICAgICAgIDM3NyYjeGE7ICAgIDwvdGV4dD4mI3hhOyAgICA8cGF0aCBkPSJNIDE0MS42NzQ4MDQ2ODc1IDE4OC4yMzUyOTQxMTc2NDcwNyBMIDE0MS42NzQ4MDQ2ODc1IDE4OC4yMzUyOTQxMTc2NDcwNyIgbWFya2VyLXN0YXJ0PSJ1cmwoI2hlYWQpIiBtYXJrZXItZW5kPSJ1cmwoI2hlYWQpIiBzdHJva2Utd2lkdGg9IjUiIHN0cm9rZS1vcGFjaXR5PSIwLjUiIHN0cm9rZT0icmVkIi8+JiN4YTsgICAgPHRleHQgZmlsbD0icmVkIiBmb250LXNpemU9IjUiIHk9IjE5OC4yMzUyOTQxMTc2NDcwNyIgeD0iMTM5LjY3NDgwNDY4NzUiPiYjeGE7ICAgICAgICAwJiN4YTsgICAgPC90ZXh0PiYjeGE7ICAgIDxwYXRoIGQ9Ik0gMTQxLjY3NDgwNDY4NzUgMTgyLjM1Mjk0MTE3NjQ3MDYgTCAxNDEuNjc0ODA0Njg3NSAxODIuMzUyOTQxMTc2NDcwNiIgbWFya2VyLXN0YXJ0PSJ1cmwoI2hlYWQpIiBtYXJrZXItZW5kPSJ1cmwoI2hlYWQpIiBzdHJva2Utd2lkdGg9IjUiIHN0cm9rZS1vcGFjaXR5PSIwLjUiIHN0cm9rZT0icmVkIi8+JiN4YTsgICAgPHRleHQgZmlsbD0icmVkIiBmb250LXNpemU9IjUiIHk9IjE5Mi4zNTI5NDExNzY0NzA2IiB4PSIxMzkuNjc0ODA0Njg3NSI+JiN4YTsgICAgICAgIDAmI3hhOyAgICA8L3RleHQ+JiN4YTsgICAgPHBhdGggZD0iTSAxNDEuNjc0ODA0Njg3NSAxNzYuNDcwNTg4MjM1Mjk0MTIgTCAxNDEuNjc0ODA0Njg3NSAxNzYuNDcwNTg4MjM1Mjk0MTIiIG1hcmtlci1zdGFydD0idXJsKCNoZWFkKSIgbWFya2VyLWVuZD0idXJsKCNoZWFkKSIgc3Ryb2tlLXdpZHRoPSI1IiBzdHJva2Utb3BhY2l0eT0iMC41IiBzdHJva2U9InJlZCIvPiYjeGE7ICAgIDx0ZXh0IGZpbGw9InJlZCIgZm9udC1zaXplPSI1IiB5PSIxODYuNDcwNTg4MjM1Mjk0MTIiIHg9IjEzOS42NzQ4MDQ2ODc1Ij4mI3hhOyAgICAgICAgMCYjeGE7ICAgIDwvdGV4dD4mI3hhOyAgICA8cGF0aCBkPSJNIDE0MS42NzQ4MDQ2ODc1IDE3MC41ODgyMzUyOTQxMTc2NSBMIDE0MS42NzQ4MDQ2ODc1IDE3MC41ODgyMzUyOTQxMTc2NSIgbWFya2VyLXN0YXJ0PSJ1cmwoI2hlYWQpIiBtYXJrZXItZW5kPSJ1cmwoI2hlYWQpIiBzdHJva2Utd2lkdGg9IjUiIHN0cm9rZS1vcGFjaXR5PSIwLjUiIHN0cm9rZT0icmVkIi8+JiN4YTsgICAgPHRleHQgZmlsbD0icmVkIiBmb250LXNpemU9IjUiIHk9IjE4MC41ODgyMzUyOTQxMTc2NSIgeD0iMTM5LjY3NDgwNDY4NzUiPiYjeGE7ICAgICAgICAwJiN4YTsgICAgPC90ZXh0PiYjeGE7ICAgIDxwYXRoIGQ9Ik0gMTQxLjY3NDgwNDY4NzUgMTY0LjcwNTg4MjM1Mjk0MTIgTCAxNDEuNjc0ODA0Njg3NSAxNjQuNzA1ODgyMzUyOTQxMiIgbWFya2VyLXN0YXJ0PSJ1cmwoI2hlYWQpIiBtYXJrZXItZW5kPSJ1cmwoI2hlYWQpIiBzdHJva2Utd2lkdGg9IjUiIHN0cm9rZS1vcGFjaXR5PSIwLjUiIHN0cm9rZT0icmVkIi8+JiN4YTsgICAgPHRleHQgZmlsbD0icmVkIiBmb250LXNpemU9IjUiIHk9IjE3NC43MDU4ODIzNTI5NDEyIiB4PSIxMzkuNjc0ODA0Njg3NSI+JiN4YTsgICAgICAgIDAmI3hhOyAgICA8L3RleHQ+JiN4YTsgICAgPHBhdGggZD0iTSAxNDEuNjc0ODA0Njg3NSAxNTguODIzNTI5NDExNzY0NyBMIDE0MS42NzQ4MDQ2ODc1IDE1OC44MjM1Mjk0MTE3NjQ3IiBtYXJrZXItc3RhcnQ9InVybCgjaGVhZCkiIG1hcmtlci1lbmQ9InVybCgjaGVhZCkiIHN0cm9rZS13aWR0aD0iNSIgc3Ryb2tlLW9wYWNpdHk9IjAuNSIgc3Ryb2tlPSJyZWQiLz4mI3hhOyAgICA8dGV4dCBmaWxsPSJyZWQiIGZvbnQtc2l6ZT0iNSIgeT0iMTY4LjgyMzUyOTQxMTc2NDciIHg9IjEzOS42NzQ4MDQ2ODc1Ij4mI3hhOyAgICAgICAgMCYjeGE7ICAgIDwvdGV4dD4mI3hhOyAgICA8cGF0aCBkPSJNIDE0MS42NzQ4MDQ2ODc1IDE1Mi45NDExNzY0NzA1ODgyNiBMIDE0MS42NzQ4MDQ2ODc1IDE1Mi45NDExNzY0NzA1ODgyNiIgbWFya2VyLXN0YXJ0PSJ1cmwoI2hlYWQpIiBtYXJrZXItZW5kPSJ1cmwoI2hlYWQpIiBzdHJva2Utd2lkdGg9IjUiIHN0cm9rZS1vcGFjaXR5PSIwLjUiIHN0cm9rZT0icmVkIi8+JiN4YTsgICAgPHRleHQgZmlsbD0icmVkIiBmb250LXNpemU9IjUiIHk9IjE2Mi45NDExNzY0NzA1ODgyNiIgeD0iMTM5LjY3NDgwNDY4NzUiPiYjeGE7ICAgICAgICAwJiN4YTsgICAgPC90ZXh0PiYjeGE7ICAgIDxwYXRoIGQ9Ik0gMTQxLjY3NDgwNDY4NzUgMTQ3LjA1ODgyMzUyOTQxMTc3IEwgMTQxLjY3NDgwNDY4NzUgMTQ3LjA1ODgyMzUyOTQxMTc3IiBtYXJrZXItc3RhcnQ9InVybCgjaGVhZCkiIG1hcmtlci1lbmQ9InVybCgjaGVhZCkiIHN0cm9rZS13aWR0aD0iNSIgc3Ryb2tlLW9wYWNpdHk9IjAuNSIgc3Ryb2tlPSJyZWQiLz4mI3hhOyAgICA8dGV4dCBmaWxsPSJyZWQiIGZvbnQtc2l6ZT0iNSIgeT0iMTU3LjA1ODgyMzUyOTQxMTc3IiB4PSIxMzkuNjc0ODA0Njg3NSI+JiN4YTsgICAgICAgIDAmI3hhOyAgICA8L3RleHQ+JiN4YTsgICAgPHBhdGggZD0iTSAxNDEuNjc0ODA0Njg3NSAxNDEuMTc2NDcwNTg4MjM1MyBMIDE0MS42NzQ4MDQ2ODc1IDE0MS4xNzY0NzA1ODgyMzUzIiBtYXJrZXItc3RhcnQ9InVybCgjaGVhZCkiIG1hcmtlci1lbmQ9InVybCgjaGVhZCkiIHN0cm9rZS13aWR0aD0iNSIgc3Ryb2tlLW9wYWNpdHk9IjAuNSIgc3Ryb2tlPSJyZWQiLz4mI3hhOyAgICA8dGV4dCBmaWxsPSJyZWQiIGZvbnQtc2l6ZT0iNSIgeT0iMTUxLjE3NjQ3MDU4ODIzNTMiIHg9IjEzOS42NzQ4MDQ2ODc1Ij4mI3hhOyAgICAgICAgMCYjeGE7ICAgIDwvdGV4dD4mI3hhOyAgICA8cGF0aCBkPSJNIDE0MS42NzQ4MDQ2ODc1IDEzNS4yOTQxMTc2NDcwNTg4NCBMIDE0MS42NzQ4MDQ2ODc1IDEzNS4yOTQxMTc2NDcwNTg4NCIgbWFya2VyLXN0YXJ0PSJ1cmwoI2hlYWQpIiBtYXJrZXItZW5kPSJ1cmwoI2hlYWQpIiBzdHJva2Utd2lkdGg9IjUiIHN0cm9rZS1vcGFjaXR5PSIwLjUiIHN0cm9rZT0icmVkIi8+JiN4YTsgICAgPHRleHQgZmlsbD0icmVkIiBmb250LXNpemU9IjUiIHk9IjE0NS4yOTQxMTc2NDcwNTg4NCIgeD0iMTM5LjY3NDgwNDY4NzUiPiYjeGE7ICAgICAgICAwJiN4YTsgICAgPC90ZXh0PiYjeGE7ICAgIDxwYXRoIGQ9Ik0gMTQxLjY3NDgwNDY4NzUgMTI5LjQxMTc2NDcwNTg4MjM4IEwgMTQxLjY3NDgwNDY4NzUgMTI5LjQxMTc2NDcwNTg4MjM4IiBtYXJrZXItc3RhcnQ9InVybCgjaGVhZCkiIG1hcmtlci1lbmQ9InVybCgjaGVhZCkiIHN0cm9rZS13aWR0aD0iNSIgc3Ryb2tlLW9wYWNpdHk9IjAuNSIgc3Ryb2tlPSJyZWQiLz4mI3hhOyAgICA8dGV4dCBmaWxsPSJyZWQiIGZvbnQtc2l6ZT0iNSIgeT0iMTM5LjQxMTc2NDcwNTg4MjM4IiB4PSIxMzkuNjc0ODA0Njg3NSI+JiN4YTsgICAgICAgIDAmI3hhOyAgICA8L3RleHQ+JiN4YTsgICAgPHBhdGggZD0iTSAxNDEuNjc0ODA0Njg3NSAxMjMuNTI5NDExNzY0NzA1OTEgTCAxNDEuNjc0ODA0Njg3NSAxMjMuNTI5NDExNzY0NzA1OTEiIG1hcmtlci1zdGFydD0idXJsKCNoZWFkKSIgbWFya2VyLWVuZD0idXJsKCNoZWFkKSIgc3Ryb2tlLXdpZHRoPSI1IiBzdHJva2Utb3BhY2l0eT0iMC41IiBzdHJva2U9InJlZCIvPiYjeGE7ICAgIDx0ZXh0IGZpbGw9InJlZCIgZm9udC1zaXplPSI1IiB5PSIxMzMuNTI5NDExNzY0NzA1OSIgeD0iMTM5LjY3NDgwNDY4NzUiPiYjeGE7ICAgICAgICAwJiN4YTsgICAgPC90ZXh0PiYjeGE7ICAgIDxwYXRoIGQ9Ik0gMTQxLjY3NDgwNDY4NzUgMTE3LjY0NzA1ODgyMzUyOTM5IEwgMTQxLjY3NDgwNDY4NzUgMTE3LjY0NzA1ODgyMzUyOTM5IiBtYXJrZXItc3RhcnQ9InVybCgjaGVhZCkiIG1hcmtlci1lbmQ9InVybCgjaGVhZCkiIHN0cm9rZS13aWR0aD0iNSIgc3Ryb2tlLW9wYWNpdHk9IjAuNSIgc3Ryb2tlPSJyZWQiLz4mI3hhOyAgICA8dGV4dCBmaWxsPSJyZWQiIGZvbnQtc2l6ZT0iNSIgeT0iMTI3LjY0NzA1ODgyMzUyOTM5IiB4PSIxMzkuNjc0ODA0Njg3NSI+JiN4YTsgICAgICAgIDAmI3hhOyAgICA8L3RleHQ+JiN4YTsgICAgPHBhdGggZD0iTSAxNDEuNjc0ODA0Njg3NSAxMTEuNzY0NzA1ODgyMzUyOTMgTCAxNDEuNjc0ODA0Njg3NSAxMTEuNzY0NzA1ODgyMzUyOTMiIG1hcmtlci1zdGFydD0idXJsKCNoZWFkKSIgbWFya2VyLWVuZD0idXJsKCNoZWFkKSIgc3Ryb2tlLXdpZHRoPSI1IiBzdHJva2Utb3BhY2l0eT0iMC41IiBzdHJva2U9InJlZCIvPiYjeGE7ICAgIDx0ZXh0IGZpbGw9InJlZCIgZm9udC1zaXplPSI1IiB5PSIxMjEuNzY0NzA1ODgyMzUyOTMiIHg9IjEzOS42NzQ4MDQ2ODc1Ij4mI3hhOyAgICAgICAgMCYjeGE7ICAgIDwvdGV4dD4mI3hhOyAgICA8cGF0aCBkPSJNIDE0MS42NzQ4MDQ2ODc1IDEwNS44ODIzNTI5NDExNzY0NiBMIDIwNS4zOTU1MDc4MTI1IDEwNS44ODIzNTI5NDExNzY0NiIgbWFya2VyLXN0YXJ0PSJ1cmwoI2hlYWQpIiBtYXJrZXItZW5kPSJ1cmwoI2hlYWQpIiBzdHJva2Utd2lkdGg9IjUiIHN0cm9rZS1vcGFjaXR5PSIwLjUiIHN0cm9rZT0icmVkIi8+JiN4YTsgICAgPHRleHQgZmlsbD0icmVkIiBmb250LXNpemU9IjUiIHk9IjExNS44ODIzNTI5NDExNzY0NiIgeD0iMTcxLjUzNTE1NjI1Ij4mI3hhOyAgICAgICAgNDM1JiN4YTsgICAgPC90ZXh0PiYjeGE7ICAgIDxwYXRoIGQ9Ik0gMTU1LjczNzMwNDY4NzUgMzk0LjExNzY0NzA1ODgyMzU0IEwgMjE5Ljc1MDk3NjU2MjUgMzk0LjExNzY0NzA1ODgyMzU0IiBtYXJrZXItc3RhcnQ9InVybCgjaGVhZCkiIG1hcmtlci1lbmQ9InVybCgjaGVhZCkiIHN0cm9rZS13aWR0aD0iNSIgc3Ryb2tlLW9wYWNpdHk9IjAuNSIgc3Ryb2tlPSJibHVlIi8+JiN4YTsgICAgPHRleHQgZmlsbD0iYmx1ZSIgZm9udC1zaXplPSI1IiB5PSI0MDQuMTE3NjQ3MDU4ODIzNTQiIHg9IjE4NS43NDQxNDA2MjUiPiYjeGE7ICAgICAgICA0MzcmI3hhOyAgICA8L3RleHQ+JiN4YTsgICAgPHBhdGggZD0iTSAxNjcuMTYzMDg1OTM3NSAzODguMjM1Mjk0MTE3NjQ3MSBMIDIxOS43NTA5NzY1NjI1IDM4OC4yMzUyOTQxMTc2NDcxIiBtYXJrZXItc3RhcnQ9InVybCgjaGVhZCkiIG1hcmtlci1lbmQ9InVybCgjaGVhZCkiIHN0cm9rZS13aWR0aD0iNSIgc3Ryb2tlLW9wYWNpdHk9IjAuNSIgc3Ryb2tlPSJibHVlIi8+JiN4YTsgICAgPHRleHQgZmlsbD0iYmx1ZSIgZm9udC1zaXplPSI1IiB5PSIzOTguMjM1Mjk0MTE3NjQ3MSIgeD0iMTkxLjQ1NzAzMTI1Ij4mI3hhOyAgICAgICAgMzU5JiN4YTsgICAgPC90ZXh0PiYjeGE7ICAgIDxwYXRoIGQ9Ik0gMTQyLjExNDI1NzgxMjUgMzgyLjM1Mjk0MTE3NjQ3MDYgTCAyMTkuNzUwOTc2NTYyNSAzODIuMzUyOTQxMTc2NDcwNiIgbWFya2VyLXN0YXJ0PSJ1cmwoI2hlYWQpIiBtYXJrZXItZW5kPSJ1cmwoI2hlYWQpIiBzdHJva2Utd2lkdGg9IjUiIHN0cm9rZS1vcGFjaXR5PSIwLjUiIHN0cm9rZT0iYmx1ZSIvPiYjeGE7ICAgIDx0ZXh0IGZpbGw9ImJsdWUiIGZvbnQtc2l6ZT0iNSIgeT0iMzkyLjM1Mjk0MTE3NjQ3MDYiIHg9IjE3OC45MzI2MTcxODc1Ij4mI3hhOyAgICAgICAgNTMwJiN4YTsgICAgPC90ZXh0PiYjeGE7ICAgIDxwYXRoIGQ9Ik0gMjE5Ljc1MDk3NjU2MjUgMzc2LjQ3MDU4ODIzNTI5NDE0IEwgMjE5Ljc1MDk3NjU2MjUgMzc2LjQ3MDU4ODIzNTI5NDE0IiBtYXJrZXItc3RhcnQ9InVybCgjaGVhZCkiIG1hcmtlci1lbmQ9InVybCgjaGVhZCkiIHN0cm9rZS13aWR0aD0iNSIgc3Ryb2tlLW9wYWNpdHk9IjAuNSIgc3Ryb2tlPSJibHVlIi8+JiN4YTsgICAgPHRleHQgZmlsbD0iYmx1ZSIgZm9udC1zaXplPSI1IiB5PSIzODYuNDcwNTg4MjM1Mjk0MTQiIHg9IjIxNy43NTA5NzY1NjI1Ij4mI3hhOyAgICAgICAgMCYjeGE7ICAgIDwvdGV4dD4mI3hhOyAgICA8cGF0aCBkPSJNIDIxOS43NTA5NzY1NjI1IDM3MC41ODgyMzUyOTQxMTc3IEwgMjE5Ljc1MDk3NjU2MjUgMzcwLjU4ODIzNTI5NDExNzciIG1hcmtlci1zdGFydD0idXJsKCNoZWFkKSIgbWFya2VyLWVuZD0idXJsKCNoZWFkKSIgc3Ryb2tlLXdpZHRoPSI1IiBzdHJva2Utb3BhY2l0eT0iMC41IiBzdHJva2U9ImJsdWUiLz4mI3hhOyAgICA8dGV4dCBmaWxsPSJibHVlIiBmb250LXNpemU9IjUiIHk9IjM4MC41ODgyMzUyOTQxMTc3IiB4PSIyMTcuNzUwOTc2NTYyNSI+JiN4YTsgICAgICAgIDAmI3hhOyAgICA8L3RleHQ+JiN4YTsgICAgPHBhdGggZD0iTSAyMTkuNzUwOTc2NTYyNSAzNjQuNzA1ODgyMzUyOTQxMTYgTCAyMTkuNzUwOTc2NTYyNSAzNjQuNzA1ODgyMzUyOTQxMTYiIG1hcmtlci1zdGFydD0idXJsKCNoZWFkKSIgbWFya2VyLWVuZD0idXJsKCNoZWFkKSIgc3Ryb2tlLXdpZHRoPSI1IiBzdHJva2Utb3BhY2l0eT0iMC41IiBzdHJva2U9ImJsdWUiLz4mI3hhOyAgICA8dGV4dCBmaWxsPSJibHVlIiBmb250LXNpemU9IjUiIHk9IjM3NC43MDU4ODIzNTI5NDExNiIgeD0iMjE3Ljc1MDk3NjU2MjUiPiYjeGE7ICAgICAgICAwJiN4YTsgICAgPC90ZXh0PiYjeGE7ICAgIDxwYXRoIGQ9Ik0gMjE5Ljc1MDk3NjU2MjUgMzU4LjgyMzUyOTQxMTc2NDcgTCAyMTkuNzUwOTc2NTYyNSAzNTguODIzNTI5NDExNzY0NyIgbWFya2VyLXN0YXJ0PSJ1cmwoI2hlYWQpIiBtYXJrZXItZW5kPSJ1cmwoI2hlYWQpIiBzdHJva2Utd2lkdGg9IjUiIHN0cm9rZS1vcGFjaXR5PSIwLjUiIHN0cm9rZT0iYmx1ZSIvPiYjeGE7ICAgIDx0ZXh0IGZpbGw9ImJsdWUiIGZvbnQtc2l6ZT0iNSIgeT0iMzY4LjgyMzUyOTQxMTc2NDciIHg9IjIxNy43NTA5NzY1NjI1Ij4mI3hhOyAgICAgICAgMCYjeGE7ICAgIDwvdGV4dD4mI3hhOyAgICA8cGF0aCBkPSJNIDE1Ni4wMzAyNzM0Mzc1IDM1Mi45NDExNzY0NzA1ODgyMyBMIDIxOS43NTA5NzY1NjI1IDM1Mi45NDExNzY0NzA1ODgyMyIgbWFya2VyLXN0YXJ0PSJ1cmwoI2hlYWQpIiBtYXJrZXItZW5kPSJ1cmwoI2hlYWQpIiBzdHJva2Utd2lkdGg9IjUiIHN0cm9rZS1vcGFjaXR5PSIwLjUiIHN0cm9rZT0iYmx1ZSIvPiYjeGE7ICAgIDx0ZXh0IGZpbGw9ImJsdWUiIGZvbnQtc2l6ZT0iNSIgeT0iMzYyLjk0MTE3NjQ3MDU4ODIzIiB4PSIxODUuODkwNjI1Ij4mI3hhOyAgICAgICAgNDM1JiN4YTsgICAgPC90ZXh0PiYjeGE7ICAgIDxwYXRoIGQ9Ik0gMjE5Ljc1MDk3NjU2MjUgMzQ3LjA1ODgyMzUyOTQxMTc3IEwgMjE5Ljc1MDk3NjU2MjUgMzQ3LjA1ODgyMzUyOTQxMTc3IiBtYXJrZXItc3RhcnQ9InVybCgjaGVhZCkiIG1hcmtlci1lbmQ9InVybCgjaGVhZCkiIHN0cm9rZS13aWR0aD0iNSIgc3Ryb2tlLW9wYWNpdHk9IjAuNSIgc3Ryb2tlPSJibHVlIi8+JiN4YTsgICAgPHRleHQgZmlsbD0iYmx1ZSIgZm9udC1zaXplPSI1IiB5PSIzNTcuMDU4ODIzNTI5NDExNzciIHg9IjIxNy43NTA5NzY1NjI1Ij4mI3hhOyAgICAgICAgMCYjeGE7ICAgIDwvdGV4dD4mI3hhOyAgICA8cGF0aCBkPSJNIDIxOS43NTA5NzY1NjI1IDM0MS4xNzY0NzA1ODgyMzUzIEwgMjE5Ljc1MDk3NjU2MjUgMzQxLjE3NjQ3MDU4ODIzNTMiIG1hcmtlci1zdGFydD0idXJsKCNoZWFkKSIgbWFya2VyLWVuZD0idXJsKCNoZWFkKSIgc3Ryb2tlLXdpZHRoPSI1IiBzdHJva2Utb3BhY2l0eT0iMC41IiBzdHJva2U9ImJsdWUiLz4mI3hhOyAgICA8dGV4dCBmaWxsPSJibHVlIiBmb250LXNpemU9IjUiIHk9IjM1MS4xNzY0NzA1ODgyMzUzIiB4PSIyMTcuNzUwOTc2NTYyNSI+JiN4YTsgICAgICAgIDAmI3hhOyAgICA8L3RleHQ+JiN4YTsgICAgPHBhdGggZD0iTSAxNjQuNTI2MzY3MTg3NSAzMzUuMjk0MTE3NjQ3MDU4ODQgTCAyMTkuNzUwOTc2NTYyNSAzMzUuMjk0MTE3NjQ3MDU4ODQiIG1hcmtlci1zdGFydD0idXJsKCNoZWFkKSIgbWFya2VyLWVuZD0idXJsKCNoZWFkKSIgc3Ryb2tlLXdpZHRoPSI1IiBzdHJva2Utb3BhY2l0eT0iMC41IiBzdHJva2U9ImJsdWUiLz4mI3hhOyAgICA8dGV4dCBmaWxsPSJibHVlIiBmb250LXNpemU9IjUiIHk9IjM0NS4yOTQxMTc2NDcwNTg4NCIgeD0iMTkwLjEzODY3MTg3NSI+JiN4YTsgICAgICAgIDM3NyYjeGE7ICAgIDwvdGV4dD4mI3hhOyAgICA8cGF0aCBkPSJNIDIxOS43NTA5NzY1NjI1IDMyOS40MTE3NjQ3MDU4ODIzIEwgMjE5Ljc1MDk3NjU2MjUgMzI5LjQxMTc2NDcwNTg4MjMiIG1hcmtlci1zdGFydD0idXJsKCNoZWFkKSIgbWFya2VyLWVuZD0idXJsKCNoZWFkKSIgc3Ryb2tlLXdpZHRoPSI1IiBzdHJva2Utb3BhY2l0eT0iMC41IiBzdHJva2U9ImJsdWUiLz4mI3hhOyAgICA8dGV4dCBmaWxsPSJibHVlIiBmb250LXNpemU9IjUiIHk9IjMzOS40MTE3NjQ3MDU4ODIzIiB4PSIyMTcuNzUwOTc2NTYyNSI+JiN4YTsgICAgICAgIDAmI3hhOyAgICA8L3RleHQ+JiN4YTsgICAgPHBhdGggZD0iTSAyMTkuNzUwOTc2NTYyNSAzMjMuNTI5NDExNzY0NzA1ODYgTCAyMTkuNzUwOTc2NTYyNSAzMjMuNTI5NDExNzY0NzA1ODYiIG1hcmtlci1zdGFydD0idXJsKCNoZWFkKSIgbWFya2VyLWVuZD0idXJsKCNoZWFkKSIgc3Ryb2tlLXdpZHRoPSI1IiBzdHJva2Utb3BhY2l0eT0iMC41IiBzdHJva2U9ImJsdWUiLz4mI3hhOyAgICA8dGV4dCBmaWxsPSJibHVlIiBmb250LXNpemU9IjUiIHk9IjMzMy41Mjk0MTE3NjQ3MDU4NiIgeD0iMjE3Ljc1MDk3NjU2MjUiPiYjeGE7ICAgICAgICAwJiN4YTsgICAgPC90ZXh0PiYjeGE7ICAgIDxwYXRoIGQ9Ik0gMjE5Ljc1MDk3NjU2MjUgMzE3LjY0NzA1ODgyMzUyOTQgTCAyMTkuNzUwOTc2NTYyNSAzMTcuNjQ3MDU4ODIzNTI5NCIgbWFya2VyLXN0YXJ0PSJ1cmwoI2hlYWQpIiBtYXJrZXItZW5kPSJ1cmwoI2hlYWQpIiBzdHJva2Utd2lkdGg9IjUiIHN0cm9rZS1vcGFjaXR5PSIwLjUiIHN0cm9rZT0iYmx1ZSIvPiYjeGE7ICAgIDx0ZXh0IGZpbGw9ImJsdWUiIGZvbnQtc2l6ZT0iNSIgeT0iMzI3LjY0NzA1ODgyMzUyOTQiIHg9IjIxNy43NTA5NzY1NjI1Ij4mI3hhOyAgICAgICAgMCYjeGE7ICAgIDwvdGV4dD4mI3hhOyAgICA8cGF0aCBkPSJNIDIxOS43NTA5NzY1NjI1IDMxMS43NjQ3MDU4ODIzNTI5IEwgMjE5Ljc1MDk3NjU2MjUgMzExLjc2NDcwNTg4MjM1MjkiIG1hcmtlci1zdGFydD0idXJsKCNoZWFkKSIgbWFya2VyLWVuZD0idXJsKCNoZWFkKSIgc3Ryb2tlLXdpZHRoPSI1IiBzdHJva2Utb3BhY2l0eT0iMC41IiBzdHJva2U9ImJsdWUiLz4mI3hhOyAgICA8dGV4dCBmaWxsPSJibHVlIiBmb250LXNpemU9IjUiIHk9IjMyMS43NjQ3MDU4ODIzNTI5IiB4PSIyMTcuNzUwOTc2NTYyNSI+JiN4YTsgICAgICAgIDAmI3hhOyAgICA8L3RleHQ+JiN4YTsgICAgPHBhdGggZD0iTSAyMTkuNzUwOTc2NTYyNSAzMDUuODgyMzUyOTQxMTc2NDYgTCAyMTkuNzUwOTc2NTYyNSAzMDUuODgyMzUyOTQxMTc2NDYiIG1hcmtlci1zdGFydD0idXJsKCNoZWFkKSIgbWFya2VyLWVuZD0idXJsKCNoZWFkKSIgc3Ryb2tlLXdpZHRoPSI1IiBzdHJva2Utb3BhY2l0eT0iMC41IiBzdHJva2U9ImJsdWUiLz4mI3hhOyAgICA8dGV4dCBmaWxsPSJibHVlIiBmb250LXNpemU9IjUiIHk9IjMxNS44ODIzNTI5NDExNzY0NiIgeD0iMjE3Ljc1MDk3NjU2MjUiPiYjeGE7ICAgICAgICAwJiN4YTsgICAgPC90ZXh0PiYjeGE7ICAgIDxwYXRoIGQ9Ik0gMjE5Ljc1MDk3NjU2MjUgMzAwIEwgMjE5Ljc1MDk3NjU2MjUgMzAwIiBtYXJrZXItc3RhcnQ9InVybCgjaGVhZCkiIG1hcmtlci1lbmQ9InVybCgjaGVhZCkiIHN0cm9rZS13aWR0aD0iNSIgc3Ryb2tlLW9wYWNpdHk9IjAuNSIgc3Ryb2tlPSJibHVlIi8+JiN4YTsgICAgPHRleHQgZmlsbD0iYmx1ZSIgZm9udC1zaXplPSI1IiB5PSIzMTAiIHg9IjIxNy43NTA5NzY1NjI1Ij4mI3hhOyAgICAgICAgMCYjeGE7ICAgIDwvdGV4dD4mI3hhOyAgICA8cGF0aCBkPSJNIDIxOS43NTA5NzY1NjI1IDI5NC4xMTc2NDcwNTg4MjM1NCBMIDIxOS43NTA5NzY1NjI1IDI5NC4xMTc2NDcwNTg4MjM1NCIgbWFya2VyLXN0YXJ0PSJ1cmwoI2hlYWQpIiBtYXJrZXItZW5kPSJ1cmwoI2hlYWQpIiBzdHJva2Utd2lkdGg9IjUiIHN0cm9rZS1vcGFjaXR5PSIwLjUiIHN0cm9rZT0iYmx1ZSIvPiYjeGE7ICAgIDx0ZXh0IGZpbGw9ImJsdWUiIGZvbnQtc2l6ZT0iNSIgeT0iMzA0LjExNzY0NzA1ODgyMzU0IiB4PSIyMTcuNzUwOTc2NTYyNSI+JiN4YTsgICAgICAgIDAmI3hhOyAgICA8L3RleHQ+JiN4YTsgICAgPHBhdGggZD0iTSAyMTkuNzUwOTc2NTYyNSAyODguMjM1Mjk0MTE3NjQ3MSBMIDIxOS43NTA5NzY1NjI1IDI4OC4yMzUyOTQxMTc2NDcxIiBtYXJrZXItc3RhcnQ9InVybCgjaGVhZCkiIG1hcmtlci1lbmQ9InVybCgjaGVhZCkiIHN0cm9rZS13aWR0aD0iNSIgc3Ryb2tlLW9wYWNpdHk9IjAuNSIgc3Ryb2tlPSJibHVlIi8+JiN4YTsgICAgPHRleHQgZmlsbD0iYmx1ZSIgZm9udC1zaXplPSI1IiB5PSIyOTguMjM1Mjk0MTE3NjQ3MSIgeD0iMjE3Ljc1MDk3NjU2MjUiPiYjeGE7ICAgICAgICAwJiN4YTsgICAgPC90ZXh0PiYjeGE7ICAgIDxwYXRoIGQ9Ik0gMjE5Ljc1MDk3NjU2MjUgMjgyLjM1Mjk0MTE3NjQ3MDYgTCAyMTkuNzUwOTc2NTYyNSAyODIuMzUyOTQxMTc2NDcwNiIgbWFya2VyLXN0YXJ0PSJ1cmwoI2hlYWQpIiBtYXJrZXItZW5kPSJ1cmwoI2hlYWQpIiBzdHJva2Utd2lkdGg9IjUiIHN0cm9rZS1vcGFjaXR5PSIwLjUiIHN0cm9rZT0iYmx1ZSIvPiYjeGE7ICAgIDx0ZXh0IGZpbGw9ImJsdWUiIGZvbnQtc2l6ZT0iNSIgeT0iMjkyLjM1Mjk0MTE3NjQ3MDYiIHg9IjIxNy43NTA5NzY1NjI1Ij4mI3hhOyAgICAgICAgMCYjeGE7ICAgIDwvdGV4dD4mI3hhOyAgICA8cGF0aCBkPSJNIDIxOS43NTA5NzY1NjI1IDI3Ni40NzA1ODgyMzUyOTQxNCBMIDIxOS43NTA5NzY1NjI1IDI3Ni40NzA1ODgyMzUyOTQxNCIgbWFya2VyLXN0YXJ0PSJ1cmwoI2hlYWQpIiBtYXJrZXItZW5kPSJ1cmwoI2hlYWQpIiBzdHJva2Utd2lkdGg9IjUiIHN0cm9rZS1vcGFjaXR5PSIwLjUiIHN0cm9rZT0iYmx1ZSIvPiYjeGE7ICAgIDx0ZXh0IGZpbGw9ImJsdWUiIGZvbnQtc2l6ZT0iNSIgeT0iMjg2LjQ3MDU4ODIzNTI5NDE0IiB4PSIyMTcuNzUwOTc2NTYyNSI+JiN4YTsgICAgICAgIDAmI3hhOyAgICA8L3RleHQ+JiN4YTsgICAgPHBhdGggZD0iTSAyMTkuNzUwOTc2NTYyNSAyNzAuNTg4MjM1Mjk0MTE3NyBMIDIxOS43NTA5NzY1NjI1IDI3MC41ODgyMzUyOTQxMTc3IiBtYXJrZXItc3RhcnQ9InVybCgjaGVhZCkiIG1hcmtlci1lbmQ9InVybCgjaGVhZCkiIHN0cm9rZS13aWR0aD0iNSIgc3Ryb2tlLW9wYWNpdHk9IjAuNSIgc3Ryb2tlPSJibHVlIi8+JiN4YTsgICAgPHRleHQgZmlsbD0iYmx1ZSIgZm9udC1zaXplPSI1IiB5PSIyODAuNTg4MjM1Mjk0MTE3NyIgeD0iMjE3Ljc1MDk3NjU2MjUiPiYjeGE7ICAgICAgICAwJiN4YTsgICAgPC90ZXh0PiYjeGE7ICAgIDxwYXRoIGQ9Ik0gMjE5Ljc1MDk3NjU2MjUgMjY0LjcwNTg4MjM1Mjk0MTIgTCAyMTkuNzUwOTc2NTYyNSAyNjQuNzA1ODgyMzUyOTQxMiIgbWFya2VyLXN0YXJ0PSJ1cmwoI2hlYWQpIiBtYXJrZXItZW5kPSJ1cmwoI2hlYWQpIiBzdHJva2Utd2lkdGg9IjUiIHN0cm9rZS1vcGFjaXR5PSIwLjUiIHN0cm9rZT0iYmx1ZSIvPiYjeGE7ICAgIDx0ZXh0IGZpbGw9ImJsdWUiIGZvbnQtc2l6ZT0iNSIgeT0iMjc0LjcwNTg4MjM1Mjk0MTIiIHg9IjIxNy43NTA5NzY1NjI1Ij4mI3hhOyAgICAgICAgMCYjeGE7ICAgIDwvdGV4dD4mI3hhOyAgICA8cGF0aCBkPSJNIDIxOS43NTA5NzY1NjI1IDI1OC44MjM1Mjk0MTE3NjQ3IEwgMjE5Ljc1MDk3NjU2MjUgMjU4LjgyMzUyOTQxMTc2NDciIG1hcmtlci1zdGFydD0idXJsKCNoZWFkKSIgbWFya2VyLWVuZD0idXJsKCNoZWFkKSIgc3Ryb2tlLXdpZHRoPSI1IiBzdHJva2Utb3BhY2l0eT0iMC41IiBzdHJva2U9ImJsdWUiLz4mI3hhOyAgICA8dGV4dCBmaWxsPSJibHVlIiBmb250LXNpemU9IjUiIHk9IjI2OC44MjM1Mjk0MTE3NjQ3IiB4PSIyMTcuNzUwOTc2NTYyNSI+JiN4YTsgICAgICAgIDAmI3hhOyAgICA8L3RleHQ+JiN4YTsgICAgPHBhdGggZD0iTSAyMTkuNzUwOTc2NTYyNSAyNTIuOTQxMTc2NDcwNTg4MjMgTCAyMTkuNzUwOTc2NTYyNSAyNTIuOTQxMTc2NDcwNTg4MjMiIG1hcmtlci1zdGFydD0idXJsKCNoZWFkKSIgbWFya2VyLWVuZD0idXJsKCNoZWFkKSIgc3Ryb2tlLXdpZHRoPSI1IiBzdHJva2Utb3BhY2l0eT0iMC41IiBzdHJva2U9ImJsdWUiLz4mI3hhOyAgICA8dGV4dCBmaWxsPSJibHVlIiBmb250LXNpemU9IjUiIHk9IjI2Mi45NDExNzY0NzA1ODgyMyIgeD0iMjE3Ljc1MDk3NjU2MjUiPiYjeGE7ICAgICAgICAwJiN4YTsgICAgPC90ZXh0PiYjeGE7ICAgIDxwYXRoIGQ9Ik0gMjE5Ljc1MDk3NjU2MjUgMjQ3LjA1ODgyMzUyOTQxMTc3IEwgMjE5Ljc1MDk3NjU2MjUgMjQ3LjA1ODgyMzUyOTQxMTc3IiBtYXJrZXItc3RhcnQ9InVybCgjaGVhZCkiIG1hcmtlci1lbmQ9InVybCgjaGVhZCkiIHN0cm9rZS13aWR0aD0iNSIgc3Ryb2tlLW9wYWNpdHk9IjAuNSIgc3Ryb2tlPSJibHVlIi8+JiN4YTsgICAgPHRleHQgZmlsbD0iYmx1ZSIgZm9udC1zaXplPSI1IiB5PSIyNTcuMDU4ODIzNTI5NDExNzciIHg9IjIxNy43NTA5NzY1NjI1Ij4mI3hhOyAgICAgICAgMCYjeGE7ICAgIDwvdGV4dD4mI3hhOyAgICA8cGF0aCBkPSJNIDIxOS43NTA5NzY1NjI1IDI0MS4xNzY0NzA1ODgyMzUzIEwgMjE5Ljc1MDk3NjU2MjUgMjQxLjE3NjQ3MDU4ODIzNTMiIG1hcmtlci1zdGFydD0idXJsKCNoZWFkKSIgbWFya2VyLWVuZD0idXJsKCNoZWFkKSIgc3Ryb2tlLXdpZHRoPSI1IiBzdHJva2Utb3BhY2l0eT0iMC41IiBzdHJva2U9ImJsdWUiLz4mI3hhOyAgICA8dGV4dCBmaWxsPSJibHVlIiBmb250LXNpemU9IjUiIHk9IjI1MS4xNzY0NzA1ODgyMzUzIiB4PSIyMTcuNzUwOTc2NTYyNSI+JiN4YTsgICAgICAgIDAmI3hhOyAgICA8L3RleHQ+JiN4YTsgICAgPHBhdGggZD0iTSAyMTkuNzUwOTc2NTYyNSAyMzUuMjk0MTE3NjQ3MDU4OCBMIDIxOS43NTA5NzY1NjI1IDIzNS4yOTQxMTc2NDcwNTg4IiBtYXJrZXItc3RhcnQ9InVybCgjaGVhZCkiIG1hcmtlci1lbmQ9InVybCgjaGVhZCkiIHN0cm9rZS13aWR0aD0iNSIgc3Ryb2tlLW9wYWNpdHk9IjAuNSIgc3Ryb2tlPSJibHVlIi8+JiN4YTsgICAgPHRleHQgZmlsbD0iYmx1ZSIgZm9udC1zaXplPSI1IiB5PSIyNDUuMjk0MTE3NjQ3MDU4OCIgeD0iMjE3Ljc1MDk3NjU2MjUiPiYjeGE7ICAgICAgICAwJiN4YTsgICAgPC90ZXh0PiYjeGE7ICAgIDxwYXRoIGQ9Ik0gMjE5Ljc1MDk3NjU2MjUgMjI5LjQxMTc2NDcwNTg4MjM1IEwgMjE5Ljc1MDk3NjU2MjUgMjI5LjQxMTc2NDcwNTg4MjM1IiBtYXJrZXItc3RhcnQ9InVybCgjaGVhZCkiIG1hcmtlci1lbmQ9InVybCgjaGVhZCkiIHN0cm9rZS13aWR0aD0iNSIgc3Ryb2tlLW9wYWNpdHk9IjAuNSIgc3Ryb2tlPSJibHVlIi8+JiN4YTsgICAgPHRleHQgZmlsbD0iYmx1ZSIgZm9udC1zaXplPSI1IiB5PSIyMzkuNDExNzY0NzA1ODgyMzUiIHg9IjIxNy43NTA5NzY1NjI1Ij4mI3hhOyAgICAgICAgMCYjeGE7ICAgIDwvdGV4dD4mI3hhOyAgICA8cGF0aCBkPSJNIDIxOS43NTA5NzY1NjI1IDIyMy41Mjk0MTE3NjQ3MDU4OCBMIDIxOS43NTA5NzY1NjI1IDIyMy41Mjk0MTE3NjQ3MDU4OCIgbWFya2VyLXN0YXJ0PSJ1cmwoI2hlYWQpIiBtYXJrZXItZW5kPSJ1cmwoI2hlYWQpIiBzdHJva2Utd2lkdGg9IjUiIHN0cm9rZS1vcGFjaXR5PSIwLjUiIHN0cm9rZT0iYmx1ZSIvPiYjeGE7ICAgIDx0ZXh0IGZpbGw9ImJsdWUiIGZvbnQtc2l6ZT0iNSIgeT0iMjMzLjUyOTQxMTc2NDcwNTg4IiB4PSIyMTcuNzUwOTc2NTYyNSI+JiN4YTsgICAgICAgIDAmI3hhOyAgICA8L3RleHQ+JiN4YTsgICAgPHBhdGggZD0iTSAyMTkuNzUwOTc2NTYyNSAyMTcuNjQ3MDU4ODIzNTI5NDIgTCAyMTkuNzUwOTc2NTYyNSAyMTcuNjQ3MDU4ODIzNTI5NDIiIG1hcmtlci1zdGFydD0idXJsKCNoZWFkKSIgbWFya2VyLWVuZD0idXJsKCNoZWFkKSIgc3Ryb2tlLXdpZHRoPSI1IiBzdHJva2Utb3BhY2l0eT0iMC41IiBzdHJva2U9ImJsdWUiLz4mI3hhOyAgICA8dGV4dCBmaWxsPSJibHVlIiBmb250LXNpemU9IjUiIHk9IjIyNy42NDcwNTg4MjM1Mjk0MiIgeD0iMjE3Ljc1MDk3NjU2MjUiPiYjeGE7ICAgICAgICAwJiN4YTsgICAgPC90ZXh0PiYjeGE7ICAgIDxwYXRoIGQ9Ik0gMjE5Ljc1MDk3NjU2MjUgMjExLjc2NDcwNTg4MjM1Mjk2IEwgMjE5Ljc1MDk3NjU2MjUgMjExLjc2NDcwNTg4MjM1Mjk2IiBtYXJrZXItc3RhcnQ9InVybCgjaGVhZCkiIG1hcmtlci1lbmQ9InVybCgjaGVhZCkiIHN0cm9rZS13aWR0aD0iNSIgc3Ryb2tlLW9wYWNpdHk9IjAuNSIgc3Ryb2tlPSJibHVlIi8+JiN4YTsgICAgPHRleHQgZmlsbD0iYmx1ZSIgZm9udC1zaXplPSI1IiB5PSIyMjEuNzY0NzA1ODgyMzUyOTYiIHg9IjIxNy43NTA5NzY1NjI1Ij4mI3hhOyAgICAgICAgMCYjeGE7ICAgIDwvdGV4dD4mI3hhOyAgICA8cGF0aCBkPSJNIDIxOS43NTA5NzY1NjI1IDIwNS44ODIzNTI5NDExNzY0NiBMIDIxOS43NTA5NzY1NjI1IDIwNS44ODIzNTI5NDExNzY0NiIgbWFya2VyLXN0YXJ0PSJ1cmwoI2hlYWQpIiBtYXJrZXItZW5kPSJ1cmwoI2hlYWQpIiBzdHJva2Utd2lkdGg9IjUiIHN0cm9rZS1vcGFjaXR5PSIwLjUiIHN0cm9rZT0iYmx1ZSIvPiYjeGE7ICAgIDx0ZXh0IGZpbGw9ImJsdWUiIGZvbnQtc2l6ZT0iNSIgeT0iMjE1Ljg4MjM1Mjk0MTE3NjQ2IiB4PSIyMTcuNzUwOTc2NTYyNSI+JiN4YTsgICAgICAgIDAmI3hhOyAgICA8L3RleHQ+JiN4YTsgICAgPHBhdGggZD0iTSAyMTkuNzUwOTc2NTYyNSAyMDAgTCAyMTkuNzUwOTc2NTYyNSAyMDAiIG1hcmtlci1zdGFydD0idXJsKCNoZWFkKSIgbWFya2VyLWVuZD0idXJsKCNoZWFkKSIgc3Ryb2tlLXdpZHRoPSI1IiBzdHJva2Utb3BhY2l0eT0iMC41IiBzdHJva2U9ImJsdWUiLz4mI3hhOyAgICA8dGV4dCBmaWxsPSJibHVlIiBmb250LXNpemU9IjUiIHk9IjIxMCIgeD0iMjE3Ljc1MDk3NjU2MjUiPiYjeGE7ICAgICAgICAwJiN4YTsgICAgPC90ZXh0PiYjeGE7ICAgIDxwYXRoIGQ9Ik0gMTY0LjUyNjM2NzE4NzUgMTk0LjExNzY0NzA1ODgyMzU0IEwgMjE5Ljc1MDk3NjU2MjUgMTk0LjExNzY0NzA1ODgyMzU0IiBtYXJrZXItc3RhcnQ9InVybCgjaGVhZCkiIG1hcmtlci1lbmQ9InVybCgjaGVhZCkiIHN0cm9rZS13aWR0aD0iNSIgc3Ryb2tlLW9wYWNpdHk9IjAuNSIgc3Ryb2tlPSJibHVlIi8+JiN4YTsgICAgPHRleHQgZmlsbD0iYmx1ZSIgZm9udC1zaXplPSI1IiB5PSIyMDQuMTE3NjQ3MDU4ODIzNTQiIHg9IjE5MC4xMzg2NzE4NzUiPiYjeGE7ICAgICAgICAzNzcmI3hhOyAgICA8L3RleHQ+JiN4YTsgICAgPHBhdGggZD0iTSAyMTkuNzUwOTc2NTYyNSAxODguMjM1Mjk0MTE3NjQ3MDcgTCAyMTkuNzUwOTc2NTYyNSAxODguMjM1Mjk0MTE3NjQ3MDciIG1hcmtlci1zdGFydD0idXJsKCNoZWFkKSIgbWFya2VyLWVuZD0idXJsKCNoZWFkKSIgc3Ryb2tlLXdpZHRoPSI1IiBzdHJva2Utb3BhY2l0eT0iMC41IiBzdHJva2U9ImJsdWUiLz4mI3hhOyAgICA8dGV4dCBmaWxsPSJibHVlIiBmb250LXNpemU9IjUiIHk9IjE5OC4yMzUyOTQxMTc2NDcwNyIgeD0iMjE3Ljc1MDk3NjU2MjUiPiYjeGE7ICAgICAgICAwJiN4YTsgICAgPC90ZXh0PiYjeGE7ICAgIDxwYXRoIGQ9Ik0gMjE5Ljc1MDk3NjU2MjUgMTgyLjM1Mjk0MTE3NjQ3MDYgTCAyMTkuNzUwOTc2NTYyNSAxODIuMzUyOTQxMTc2NDcwNiIgbWFya2VyLXN0YXJ0PSJ1cmwoI2hlYWQpIiBtYXJrZXItZW5kPSJ1cmwoI2hlYWQpIiBzdHJva2Utd2lkdGg9IjUiIHN0cm9rZS1vcGFjaXR5PSIwLjUiIHN0cm9rZT0iYmx1ZSIvPiYjeGE7ICAgIDx0ZXh0IGZpbGw9ImJsdWUiIGZvbnQtc2l6ZT0iNSIgeT0iMTkyLjM1Mjk0MTE3NjQ3MDYiIHg9IjIxNy43NTA5NzY1NjI1Ij4mI3hhOyAgICAgICAgMCYjeGE7ICAgIDwvdGV4dD4mI3hhOyAgICA8cGF0aCBkPSJNIDIxOS43NTA5NzY1NjI1IDE3Ni40NzA1ODgyMzUyOTQxMiBMIDIxOS43NTA5NzY1NjI1IDE3Ni40NzA1ODgyMzUyOTQxMiIgbWFya2VyLXN0YXJ0PSJ1cmwoI2hlYWQpIiBtYXJrZXItZW5kPSJ1cmwoI2hlYWQpIiBzdHJva2Utd2lkdGg9IjUiIHN0cm9rZS1vcGFjaXR5PSIwLjUiIHN0cm9rZT0iYmx1ZSIvPiYjeGE7ICAgIDx0ZXh0IGZpbGw9ImJsdWUiIGZvbnQtc2l6ZT0iNSIgeT0iMTg2LjQ3MDU4ODIzNTI5NDEyIiB4PSIyMTcuNzUwOTc2NTYyNSI+JiN4YTsgICAgICAgIDAmI3hhOyAgICA8L3RleHQ+JiN4YTsgICAgPHBhdGggZD0iTSAyMTkuNzUwOTc2NTYyNSAxNzAuNTg4MjM1Mjk0MTE3NjUgTCAyMTkuNzUwOTc2NTYyNSAxNzAuNTg4MjM1Mjk0MTE3NjUiIG1hcmtlci1zdGFydD0idXJsKCNoZWFkKSIgbWFya2VyLWVuZD0idXJsKCNoZWFkKSIgc3Ryb2tlLXdpZHRoPSI1IiBzdHJva2Utb3BhY2l0eT0iMC41IiBzdHJva2U9ImJsdWUiLz4mI3hhOyAgICA8dGV4dCBmaWxsPSJibHVlIiBmb250LXNpemU9IjUiIHk9IjE4MC41ODgyMzUyOTQxMTc2NSIgeD0iMjE3Ljc1MDk3NjU2MjUiPiYjeGE7ICAgICAgICAwJiN4YTsgICAgPC90ZXh0PiYjeGE7ICAgIDxwYXRoIGQ9Ik0gMjE5Ljc1MDk3NjU2MjUgMTY0LjcwNTg4MjM1Mjk0MTIgTCAyMTkuNzUwOTc2NTYyNSAxNjQuNzA1ODgyMzUyOTQxMiIgbWFya2VyLXN0YXJ0PSJ1cmwoI2hlYWQpIiBtYXJrZXItZW5kPSJ1cmwoI2hlYWQpIiBzdHJva2Utd2lkdGg9IjUiIHN0cm9rZS1vcGFjaXR5PSIwLjUiIHN0cm9rZT0iYmx1ZSIvPiYjeGE7ICAgIDx0ZXh0IGZpbGw9ImJsdWUiIGZvbnQtc2l6ZT0iNSIgeT0iMTc0LjcwNTg4MjM1Mjk0MTIiIHg9IjIxNy43NTA5NzY1NjI1Ij4mI3hhOyAgICAgICAgMCYjeGE7ICAgIDwvdGV4dD4mI3hhOyAgICA8cGF0aCBkPSJNIDIxOS43NTA5NzY1NjI1IDE1OC44MjM1Mjk0MTE3NjQ3IEwgMjE5Ljc1MDk3NjU2MjUgMTU4LjgyMzUyOTQxMTc2NDciIG1hcmtlci1zdGFydD0idXJsKCNoZWFkKSIgbWFya2VyLWVuZD0idXJsKCNoZWFkKSIgc3Ryb2tlLXdpZHRoPSI1IiBzdHJva2Utb3BhY2l0eT0iMC41IiBzdHJva2U9ImJsdWUiLz4mI3hhOyAgICA8dGV4dCBmaWxsPSJibHVlIiBmb250LXNpemU9IjUiIHk9IjE2OC44MjM1Mjk0MTE3NjQ3IiB4PSIyMTcuNzUwOTc2NTYyNSI+JiN4YTsgICAgICAgIDAmI3hhOyAgICA8L3RleHQ+JiN4YTsgICAgPHBhdGggZD0iTSAyMTkuNzUwOTc2NTYyNSAxNTIuOTQxMTc2NDcwNTg4MjYgTCAyMTkuNzUwOTc2NTYyNSAxNTIuOTQxMTc2NDcwNTg4MjYiIG1hcmtlci1zdGFydD0idXJsKCNoZWFkKSIgbWFya2VyLWVuZD0idXJsKCNoZWFkKSIgc3Ryb2tlLXdpZHRoPSI1IiBzdHJva2Utb3BhY2l0eT0iMC41IiBzdHJva2U9ImJsdWUiLz4mI3hhOyAgICA8dGV4dCBmaWxsPSJibHVlIiBmb250LXNpemU9IjUiIHk9IjE2Mi45NDExNzY0NzA1ODgyNiIgeD0iMjE3Ljc1MDk3NjU2MjUiPiYjeGE7ICAgICAgICAwJiN4YTsgICAgPC90ZXh0PiYjeGE7ICAgIDxwYXRoIGQ9Ik0gMjE5Ljc1MDk3NjU2MjUgMTQ3LjA1ODgyMzUyOTQxMTc3IEwgMjE5Ljc1MDk3NjU2MjUgMTQ3LjA1ODgyMzUyOTQxMTc3IiBtYXJrZXItc3RhcnQ9InVybCgjaGVhZCkiIG1hcmtlci1lbmQ9InVybCgjaGVhZCkiIHN0cm9rZS13aWR0aD0iNSIgc3Ryb2tlLW9wYWNpdHk9IjAuNSIgc3Ryb2tlPSJibHVlIi8+JiN4YTsgICAgPHRleHQgZmlsbD0iYmx1ZSIgZm9udC1zaXplPSI1IiB5PSIxNTcuMDU4ODIzNTI5NDExNzciIHg9IjIxNy43NTA5NzY1NjI1Ij4mI3hhOyAgICAgICAgMCYjeGE7ICAgIDwvdGV4dD4mI3hhOyAgICA8cGF0aCBkPSJNIDIxOS43NTA5NzY1NjI1IDE0MS4xNzY0NzA1ODgyMzUzIEwgMjE5Ljc1MDk3NjU2MjUgMTQxLjE3NjQ3MDU4ODIzNTMiIG1hcmtlci1zdGFydD0idXJsKCNoZWFkKSIgbWFya2VyLWVuZD0idXJsKCNoZWFkKSIgc3Ryb2tlLXdpZHRoPSI1IiBzdHJva2Utb3BhY2l0eT0iMC41IiBzdHJva2U9ImJsdWUiLz4mI3hhOyAgICA8dGV4dCBmaWxsPSJibHVlIiBmb250LXNpemU9IjUiIHk9IjE1MS4xNzY0NzA1ODgyMzUzIiB4PSIyMTcuNzUwOTc2NTYyNSI+JiN4YTsgICAgICAgIDAmI3hhOyAgICA8L3RleHQ+JiN4YTsgICAgPHBhdGggZD0iTSAyMTkuNzUwOTc2NTYyNSAxMzUuMjk0MTE3NjQ3MDU4ODQgTCAyMTkuNzUwOTc2NTYyNSAxMzUuMjk0MTE3NjQ3MDU4ODQiIG1hcmtlci1zdGFydD0idXJsKCNoZWFkKSIgbWFya2VyLWVuZD0idXJsKCNoZWFkKSIgc3Ryb2tlLXdpZHRoPSI1IiBzdHJva2Utb3BhY2l0eT0iMC41IiBzdHJva2U9ImJsdWUiLz4mI3hhOyAgICA8dGV4dCBmaWxsPSJibHVlIiBmb250LXNpemU9IjUiIHk9IjE0NS4yOTQxMTc2NDcwNTg4NCIgeD0iMjE3Ljc1MDk3NjU2MjUiPiYjeGE7ICAgICAgICAwJiN4YTsgICAgPC90ZXh0PiYjeGE7ICAgIDxwYXRoIGQ9Ik0gMjE5Ljc1MDk3NjU2MjUgMTI5LjQxMTc2NDcwNTg4MjM4IEwgMjE5Ljc1MDk3NjU2MjUgMTI5LjQxMTc2NDcwNTg4MjM4IiBtYXJrZXItc3RhcnQ9InVybCgjaGVhZCkiIG1hcmtlci1lbmQ9InVybCgjaGVhZCkiIHN0cm9rZS13aWR0aD0iNSIgc3Ryb2tlLW9wYWNpdHk9IjAuNSIgc3Ryb2tlPSJibHVlIi8+JiN4YTsgICAgPHRleHQgZmlsbD0iYmx1ZSIgZm9udC1zaXplPSI1IiB5PSIxMzkuNDExNzY0NzA1ODgyMzgiIHg9IjIxNy43NTA5NzY1NjI1Ij4mI3hhOyAgICAgICAgMCYjeGE7ICAgIDwvdGV4dD4mI3hhOyAgICA8cGF0aCBkPSJNIDIxOS43NTA5NzY1NjI1IDEyMy41Mjk0MTE3NjQ3MDU5MSBMIDIxOS43NTA5NzY1NjI1IDEyMy41Mjk0MTE3NjQ3MDU5MSIgbWFya2VyLXN0YXJ0PSJ1cmwoI2hlYWQpIiBtYXJrZXItZW5kPSJ1cmwoI2hlYWQpIiBzdHJva2Utd2lkdGg9IjUiIHN0cm9rZS1vcGFjaXR5PSIwLjUiIHN0cm9rZT0iYmx1ZSIvPiYjeGE7ICAgIDx0ZXh0IGZpbGw9ImJsdWUiIGZvbnQtc2l6ZT0iNSIgeT0iMTMzLjUyOTQxMTc2NDcwNTkiIHg9IjIxNy43NTA5NzY1NjI1Ij4mI3hhOyAgICAgICAgMCYjeGE7ICAgIDwvdGV4dD4mI3hhOyAgICA8cGF0aCBkPSJNIDIxOS43NTA5NzY1NjI1IDExNy42NDcwNTg4MjM1MjkzOSBMIDIxOS43NTA5NzY1NjI1IDExNy42NDcwNTg4MjM1MjkzOSIgbWFya2VyLXN0YXJ0PSJ1cmwoI2hlYWQpIiBtYXJrZXItZW5kPSJ1cmwoI2hlYWQpIiBzdHJva2Utd2lkdGg9IjUiIHN0cm9rZS1vcGFjaXR5PSIwLjUiIHN0cm9rZT0iYmx1ZSIvPiYjeGE7ICAgIDx0ZXh0IGZpbGw9ImJsdWUiIGZvbnQtc2l6ZT0iNSIgeT0iMTI3LjY0NzA1ODgyMzUyOTM5IiB4PSIyMTcuNzUwOTc2NTYyNSI+JiN4YTsgICAgICAgIDAmI3hhOyAgICA8L3RleHQ+JiN4YTsgICAgPHBhdGggZD0iTSAyMTkuNzUwOTc2NTYyNSAxMTEuNzY0NzA1ODgyMzUyOTMgTCAyMTkuNzUwOTc2NTYyNSAxMTEuNzY0NzA1ODgyMzUyOTMiIG1hcmtlci1zdGFydD0idXJsKCNoZWFkKSIgbWFya2VyLWVuZD0idXJsKCNoZWFkKSIgc3Ryb2tlLXdpZHRoPSI1IiBzdHJva2Utb3BhY2l0eT0iMC41IiBzdHJva2U9ImJsdWUiLz4mI3hhOyAgICA8dGV4dCBmaWxsPSJibHVlIiBmb250LXNpemU9IjUiIHk9IjEyMS43NjQ3MDU4ODIzNTI5MyIgeD0iMjE3Ljc1MDk3NjU2MjUiPiYjeGE7ICAgICAgICAwJiN4YTsgICAgPC90ZXh0PiYjeGE7ICAgIDxwYXRoIGQ9Ik0gMTU2LjAzMDI3MzQzNzUgMTA1Ljg4MjM1Mjk0MTE3NjQ2IEwgMjE5Ljc1MDk3NjU2MjUgMTA1Ljg4MjM1Mjk0MTE3NjQ2IiBtYXJrZXItc3RhcnQ9InVybCgjaGVhZCkiIG1hcmtlci1lbmQ9InVybCgjaGVhZCkiIHN0cm9rZS13aWR0aD0iNSIgc3Ryb2tlLW9wYWNpdHk9IjAuNSIgc3Ryb2tlPSJibHVlIi8+JiN4YTsgICAgPHRleHQgZmlsbD0iYmx1ZSIgZm9udC1zaXplPSI1IiB5PSIxMTUuODgyMzUyOTQxMTc2NDYiIHg9IjE4NS44OTA2MjUiPiYjeGE7ICAgICAgICA0MzUmI3hhOyAgICA8L3RleHQ+JiN4YTs8L3N2Zz4=;" parent="1" vertex="1">
          <mxGeometry x="1090" y="130" width="361" height="500" as="geometry" />
        </mxCell>
        <mxCell id="_Zf1_vYihe4TUAqM4NDD-10" value="" style="shape=image;verticalLabelPosition=bottom;labelBackgroundColor=default;verticalAlign=top;aspect=fixed;imageAspect=0;image=data:image/svg+xml,PHN2ZyB4bWxuczp4bGluaz0iaHR0cDovL3d3dy53My5vcmcvMTk5OS94bGluayIgeG1sbnM9Imh0dHA6Ly93d3cudzMub3JnLzIwMDAvc3ZnIiB2aWV3Qm94PSIwIDAgMzI4LjAyNzM0Mzc1IDUwMCI+JiN4YTsgICAgPHBhdGggdHJhbnNmb3JtPSJtYXRyaXgoMC4xNDY0ODQzNzUgMCAwIC0wLjE0NjQ4NDM3NSAxMDAgMzMxLjAwNTg1OTM3NSkiIGQ9Ik0gMzQ2IDEzODkgUSAyOTEgMTM4MCAyNjIuNSAxMzI3IFEgMjM0IDEyNzQgMjM0IDEyMDQgUSAyMzQgMTE5OCAyMzQuNSAxMTkyLjUgUSAyMzUgMTE4NyAyMzcgMTE4MCBMIDM0NiAxMTgwIEwgMzQ2IDk2MiBMIDEzMiA5NjIgTCAxMzIgMTE2MyBRIDEzMiAxMjgyIDE4MiAxMzc1LjUgUSAyMzIgMTQ2OSAzNDYgMTQ4MyBMIDM0NiAxMzg5IFoiLz4mI3hhOyAgICA8cmVjdCBzdHJva2U9ImdyZWVuIiBmaWxsPSJub25lIiBoZWlnaHQ9IjMwMCIgd2lkdGg9IjY2LjY1MDM5MDYyNSIgeT0iMTAwIiB4PSIxMDAiLz4mI3hhOyAgICA8cGF0aCB0cmFuc2Zvcm09Im1hdHJpeCgwLjE0NjQ4NDM3NSAwIDAgLTAuMTQ2NDg0Mzc1IDE2MS4zNzY5NTMxMjUgMzMxLjAwNTg1OTM3NSkiIGQ9Ik0gMzQ2IDEzODkgUSAyOTEgMTM4MCAyNjIuNSAxMzI3IFEgMjM0IDEyNzQgMjM0IDEyMDQgUSAyMzQgMTE5OCAyMzQuNSAxMTkyLjUgUSAyMzUgMTE4NyAyMzcgMTE4MCBMIDM0NiAxMTgwIEwgMzQ2IDk2MiBMIDEzMiA5NjIgTCAxMzIgMTE2MyBRIDEzMiAxMjgyIDE4MiAxMzc1LjUgUSAyMzIgMTQ2OSAzNDYgMTQ4MyBMIDM0NiAxMzg5IFoiLz4mI3hhOyAgICA8cmVjdCBzdHJva2U9ImdyZWVuIiBmaWxsPSJub25lIiBoZWlnaHQ9IjMwMCIgd2lkdGg9IjY2LjY1MDM5MDYyNSIgeT0iMTAwIiB4PSIxNjEuMzc2OTUzMTI1Ii8+JiN4YTsgICAgPHBhdGggZD0iTSAxMzMuMzI1MTk1MzEyNSAzOTQuMTE3NjQ3MDU4ODIzNTQgTCAxMzMuMzI1MTk1MzEyNSAzOTQuMTE3NjQ3MDU4ODIzNTQiIG1hcmtlci1zdGFydD0idXJsKCNoZWFkKSIgbWFya2VyLWVuZD0idXJsKCNoZWFkKSIgc3Ryb2tlLXdpZHRoPSI1IiBzdHJva2Utb3BhY2l0eT0iMC41IiBzdHJva2U9InJlZCIvPiYjeGE7ICAgIDx0ZXh0IGZpbGw9InJlZCIgZm9udC1zaXplPSI1IiB5PSI0MDQuMTE3NjQ3MDU4ODIzNTQiIHg9IjEzMS4zMjUxOTUzMTI1Ij4mI3hhOyAgICAgICAgMCYjeGE7ICAgIDwvdGV4dD4mI3hhOyAgICA8cGF0aCBkPSJNIDEzMy4zMjUxOTUzMTI1IDM4OC4yMzUyOTQxMTc2NDcxIEwgMTMzLjMyNTE5NTMxMjUgMzg4LjIzNTI5NDExNzY0NzEiIG1hcmtlci1zdGFydD0idXJsKCNoZWFkKSIgbWFya2VyLWVuZD0idXJsKCNoZWFkKSIgc3Ryb2tlLXdpZHRoPSI1IiBzdHJva2Utb3BhY2l0eT0iMC41IiBzdHJva2U9InJlZCIvPiYjeGE7ICAgIDx0ZXh0IGZpbGw9InJlZCIgZm9udC1zaXplPSI1IiB5PSIzOTguMjM1Mjk0MTE3NjQ3MSIgeD0iMTMxLjMyNTE5NTMxMjUiPiYjeGE7ICAgICAgICAwJiN4YTsgICAgPC90ZXh0PiYjeGE7ICAgIDxwYXRoIGQ9Ik0gMTMzLjMyNTE5NTMxMjUgMzgyLjM1Mjk0MTE3NjQ3MDYgTCAxMzMuMzI1MTk1MzEyNSAzODIuMzUyOTQxMTc2NDcwNiIgbWFya2VyLXN0YXJ0PSJ1cmwoI2hlYWQpIiBtYXJrZXItZW5kPSJ1cmwoI2hlYWQpIiBzdHJva2Utd2lkdGg9IjUiIHN0cm9rZS1vcGFjaXR5PSIwLjUiIHN0cm9rZT0icmVkIi8+JiN4YTsgICAgPHRleHQgZmlsbD0icmVkIiBmb250LXNpemU9IjUiIHk9IjM5Mi4zNTI5NDExNzY0NzA2IiB4PSIxMzEuMzI1MTk1MzEyNSI+JiN4YTsgICAgICAgIDAmI3hhOyAgICA8L3RleHQ+JiN4YTsgICAgPHBhdGggZD0iTSAxMzMuMzI1MTk1MzEyNSAzNzYuNDcwNTg4MjM1Mjk0MTQgTCAxMzMuMzI1MTk1MzEyNSAzNzYuNDcwNTg4MjM1Mjk0MTQiIG1hcmtlci1zdGFydD0idXJsKCNoZWFkKSIgbWFya2VyLWVuZD0idXJsKCNoZWFkKSIgc3Ryb2tlLXdpZHRoPSI1IiBzdHJva2Utb3BhY2l0eT0iMC41IiBzdHJva2U9InJlZCIvPiYjeGE7ICAgIDx0ZXh0IGZpbGw9InJlZCIgZm9udC1zaXplPSI1IiB5PSIzODYuNDcwNTg4MjM1Mjk0MTQiIHg9IjEzMS4zMjUxOTUzMTI1Ij4mI3hhOyAgICAgICAgMCYjeGE7ICAgIDwvdGV4dD4mI3hhOyAgICA8cGF0aCBkPSJNIDEzMy4zMjUxOTUzMTI1IDM3MC41ODgyMzUyOTQxMTc3IEwgMTMzLjMyNTE5NTMxMjUgMzcwLjU4ODIzNTI5NDExNzciIG1hcmtlci1zdGFydD0idXJsKCNoZWFkKSIgbWFya2VyLWVuZD0idXJsKCNoZWFkKSIgc3Ryb2tlLXdpZHRoPSI1IiBzdHJva2Utb3BhY2l0eT0iMC41IiBzdHJva2U9InJlZCIvPiYjeGE7ICAgIDx0ZXh0IGZpbGw9InJlZCIgZm9udC1zaXplPSI1IiB5PSIzODAuNTg4MjM1Mjk0MTE3NyIgeD0iMTMxLjMyNTE5NTMxMjUiPiYjeGE7ICAgICAgICAwJiN4YTsgICAgPC90ZXh0PiYjeGE7ICAgIDxwYXRoIGQ9Ik0gMTMzLjMyNTE5NTMxMjUgMzY0LjcwNTg4MjM1Mjk0MTE2IEwgMTMzLjMyNTE5NTMxMjUgMzY0LjcwNTg4MjM1Mjk0MTE2IiBtYXJrZXItc3RhcnQ9InVybCgjaGVhZCkiIG1hcmtlci1lbmQ9InVybCgjaGVhZCkiIHN0cm9rZS13aWR0aD0iNSIgc3Ryb2tlLW9wYWNpdHk9IjAuNSIgc3Ryb2tlPSJyZWQiLz4mI3hhOyAgICA8dGV4dCBmaWxsPSJyZWQiIGZvbnQtc2l6ZT0iNSIgeT0iMzc0LjcwNTg4MjM1Mjk0MTE2IiB4PSIxMzEuMzI1MTk1MzEyNSI+JiN4YTsgICAgICAgIDAmI3hhOyAgICA8L3RleHQ+JiN4YTsgICAgPHBhdGggZD0iTSAxMzMuMzI1MTk1MzEyNSAzNTguODIzNTI5NDExNzY0NyBMIDEzMy4zMjUxOTUzMTI1IDM1OC44MjM1Mjk0MTE3NjQ3IiBtYXJrZXItc3RhcnQ9InVybCgjaGVhZCkiIG1hcmtlci1lbmQ9InVybCgjaGVhZCkiIHN0cm9rZS13aWR0aD0iNSIgc3Ryb2tlLW9wYWNpdHk9IjAuNSIgc3Ryb2tlPSJyZWQiLz4mI3hhOyAgICA8dGV4dCBmaWxsPSJyZWQiIGZvbnQtc2l6ZT0iNSIgeT0iMzY4LjgyMzUyOTQxMTc2NDciIHg9IjEzMS4zMjUxOTUzMTI1Ij4mI3hhOyAgICAgICAgMCYjeGE7ICAgIDwvdGV4dD4mI3hhOyAgICA8cGF0aCBkPSJNIDEzMy4zMjUxOTUzMTI1IDM1Mi45NDExNzY0NzA1ODgyMyBMIDEzMy4zMjUxOTUzMTI1IDM1Mi45NDExNzY0NzA1ODgyMyIgbWFya2VyLXN0YXJ0PSJ1cmwoI2hlYWQpIiBtYXJrZXItZW5kPSJ1cmwoI2hlYWQpIiBzdHJva2Utd2lkdGg9IjUiIHN0cm9rZS1vcGFjaXR5PSIwLjUiIHN0cm9rZT0icmVkIi8+JiN4YTsgICAgPHRleHQgZmlsbD0icmVkIiBmb250LXNpemU9IjUiIHk9IjM2Mi45NDExNzY0NzA1ODgyMyIgeD0iMTMxLjMyNTE5NTMxMjUiPiYjeGE7ICAgICAgICAwJiN4YTsgICAgPC90ZXh0PiYjeGE7ICAgIDxwYXRoIGQ9Ik0gMTMzLjMyNTE5NTMxMjUgMzQ3LjA1ODgyMzUyOTQxMTc3IEwgMTMzLjMyNTE5NTMxMjUgMzQ3LjA1ODgyMzUyOTQxMTc3IiBtYXJrZXItc3RhcnQ9InVybCgjaGVhZCkiIG1hcmtlci1lbmQ9InVybCgjaGVhZCkiIHN0cm9rZS13aWR0aD0iNSIgc3Ryb2tlLW9wYWNpdHk9IjAuNSIgc3Ryb2tlPSJyZWQiLz4mI3hhOyAgICA8dGV4dCBmaWxsPSJyZWQiIGZvbnQtc2l6ZT0iNSIgeT0iMzU3LjA1ODgyMzUyOTQxMTc3IiB4PSIxMzEuMzI1MTk1MzEyNSI+JiN4YTsgICAgICAgIDAmI3hhOyAgICA8L3RleHQ+JiN4YTsgICAgPHBhdGggZD0iTSAxMzMuMzI1MTk1MzEyNSAzNDEuMTc2NDcwNTg4MjM1MyBMIDEzMy4zMjUxOTUzMTI1IDM0MS4xNzY0NzA1ODgyMzUzIiBtYXJrZXItc3RhcnQ9InVybCgjaGVhZCkiIG1hcmtlci1lbmQ9InVybCgjaGVhZCkiIHN0cm9rZS13aWR0aD0iNSIgc3Ryb2tlLW9wYWNpdHk9IjAuNSIgc3Ryb2tlPSJyZWQiLz4mI3hhOyAgICA8dGV4dCBmaWxsPSJyZWQiIGZvbnQtc2l6ZT0iNSIgeT0iMzUxLjE3NjQ3MDU4ODIzNTMiIHg9IjEzMS4zMjUxOTUzMTI1Ij4mI3hhOyAgICAgICAgMCYjeGE7ICAgIDwvdGV4dD4mI3hhOyAgICA8cGF0aCBkPSJNIDEzMy4zMjUxOTUzMTI1IDMzNS4yOTQxMTc2NDcwNTg4NCBMIDEzMy4zMjUxOTUzMTI1IDMzNS4yOTQxMTc2NDcwNTg4NCIgbWFya2VyLXN0YXJ0PSJ1cmwoI2hlYWQpIiBtYXJrZXItZW5kPSJ1cmwoI2hlYWQpIiBzdHJva2Utd2lkdGg9IjUiIHN0cm9rZS1vcGFjaXR5PSIwLjUiIHN0cm9rZT0icmVkIi8+JiN4YTsgICAgPHRleHQgZmlsbD0icmVkIiBmb250LXNpemU9IjUiIHk9IjM0NS4yOTQxMTc2NDcwNTg4NCIgeD0iMTMxLjMyNTE5NTMxMjUiPiYjeGE7ICAgICAgICAwJiN4YTsgICAgPC90ZXh0PiYjeGE7ICAgIDxwYXRoIGQ9Ik0gMTMzLjMyNTE5NTMxMjUgMzI5LjQxMTc2NDcwNTg4MjMgTCAxMzMuMzI1MTk1MzEyNSAzMjkuNDExNzY0NzA1ODgyMyIgbWFya2VyLXN0YXJ0PSJ1cmwoI2hlYWQpIiBtYXJrZXItZW5kPSJ1cmwoI2hlYWQpIiBzdHJva2Utd2lkdGg9IjUiIHN0cm9rZS1vcGFjaXR5PSIwLjUiIHN0cm9rZT0icmVkIi8+JiN4YTsgICAgPHRleHQgZmlsbD0icmVkIiBmb250LXNpemU9IjUiIHk9IjMzOS40MTE3NjQ3MDU4ODIzIiB4PSIxMzEuMzI1MTk1MzEyNSI+JiN4YTsgICAgICAgIDAmI3hhOyAgICA8L3RleHQ+JiN4YTsgICAgPHBhdGggZD0iTSAxMzMuMzI1MTk1MzEyNSAzMjMuNTI5NDExNzY0NzA1ODYgTCAxMzMuMzI1MTk1MzEyNSAzMjMuNTI5NDExNzY0NzA1ODYiIG1hcmtlci1zdGFydD0idXJsKCNoZWFkKSIgbWFya2VyLWVuZD0idXJsKCNoZWFkKSIgc3Ryb2tlLXdpZHRoPSI1IiBzdHJva2Utb3BhY2l0eT0iMC41IiBzdHJva2U9InJlZCIvPiYjeGE7ICAgIDx0ZXh0IGZpbGw9InJlZCIgZm9udC1zaXplPSI1IiB5PSIzMzMuNTI5NDExNzY0NzA1ODYiIHg9IjEzMS4zMjUxOTUzMTI1Ij4mI3hhOyAgICAgICAgMCYjeGE7ICAgIDwvdGV4dD4mI3hhOyAgICA8cGF0aCBkPSJNIDEzMy4zMjUxOTUzMTI1IDMxNy42NDcwNTg4MjM1Mjk0IEwgMTMzLjMyNTE5NTMxMjUgMzE3LjY0NzA1ODgyMzUyOTQiIG1hcmtlci1zdGFydD0idXJsKCNoZWFkKSIgbWFya2VyLWVuZD0idXJsKCNoZWFkKSIgc3Ryb2tlLXdpZHRoPSI1IiBzdHJva2Utb3BhY2l0eT0iMC41IiBzdHJva2U9InJlZCIvPiYjeGE7ICAgIDx0ZXh0IGZpbGw9InJlZCIgZm9udC1zaXplPSI1IiB5PSIzMjcuNjQ3MDU4ODIzNTI5NCIgeD0iMTMxLjMyNTE5NTMxMjUiPiYjeGE7ICAgICAgICAwJiN4YTsgICAgPC90ZXh0PiYjeGE7ICAgIDxwYXRoIGQ9Ik0gMTMzLjMyNTE5NTMxMjUgMzExLjc2NDcwNTg4MjM1MjkgTCAxMzMuMzI1MTk1MzEyNSAzMTEuNzY0NzA1ODgyMzUyOSIgbWFya2VyLXN0YXJ0PSJ1cmwoI2hlYWQpIiBtYXJrZXItZW5kPSJ1cmwoI2hlYWQpIiBzdHJva2Utd2lkdGg9IjUiIHN0cm9rZS1vcGFjaXR5PSIwLjUiIHN0cm9rZT0icmVkIi8+JiN4YTsgICAgPHRleHQgZmlsbD0icmVkIiBmb250LXNpemU9IjUiIHk9IjMyMS43NjQ3MDU4ODIzNTI5IiB4PSIxMzEuMzI1MTk1MzEyNSI+JiN4YTsgICAgICAgIDAmI3hhOyAgICA8L3RleHQ+JiN4YTsgICAgPHBhdGggZD0iTSAxMzMuMzI1MTk1MzEyNSAzMDUuODgyMzUyOTQxMTc2NDYgTCAxMzMuMzI1MTk1MzEyNSAzMDUuODgyMzUyOTQxMTc2NDYiIG1hcmtlci1zdGFydD0idXJsKCNoZWFkKSIgbWFya2VyLWVuZD0idXJsKCNoZWFkKSIgc3Ryb2tlLXdpZHRoPSI1IiBzdHJva2Utb3BhY2l0eT0iMC41IiBzdHJva2U9InJlZCIvPiYjeGE7ICAgIDx0ZXh0IGZpbGw9InJlZCIgZm9udC1zaXplPSI1IiB5PSIzMTUuODgyMzUyOTQxMTc2NDYiIHg9IjEzMS4zMjUxOTUzMTI1Ij4mI3hhOyAgICAgICAgMCYjeGE7ICAgIDwvdGV4dD4mI3hhOyAgICA8cGF0aCBkPSJNIDEzMy4zMjUxOTUzMTI1IDMwMCBMIDEzMy4zMjUxOTUzMTI1IDMwMCIgbWFya2VyLXN0YXJ0PSJ1cmwoI2hlYWQpIiBtYXJrZXItZW5kPSJ1cmwoI2hlYWQpIiBzdHJva2Utd2lkdGg9IjUiIHN0cm9rZS1vcGFjaXR5PSIwLjUiIHN0cm9rZT0icmVkIi8+JiN4YTsgICAgPHRleHQgZmlsbD0icmVkIiBmb250LXNpemU9IjUiIHk9IjMxMCIgeD0iMTMxLjMyNTE5NTMxMjUiPiYjeGE7ICAgICAgICAwJiN4YTsgICAgPC90ZXh0PiYjeGE7ICAgIDxwYXRoIGQ9Ik0gMTMzLjMyNTE5NTMxMjUgMjk0LjExNzY0NzA1ODgyMzU0IEwgMTMzLjMyNTE5NTMxMjUgMjk0LjExNzY0NzA1ODgyMzU0IiBtYXJrZXItc3RhcnQ9InVybCgjaGVhZCkiIG1hcmtlci1lbmQ9InVybCgjaGVhZCkiIHN0cm9rZS13aWR0aD0iNSIgc3Ryb2tlLW9wYWNpdHk9IjAuNSIgc3Ryb2tlPSJyZWQiLz4mI3hhOyAgICA8dGV4dCBmaWxsPSJyZWQiIGZvbnQtc2l6ZT0iNSIgeT0iMzA0LjExNzY0NzA1ODgyMzU0IiB4PSIxMzEuMzI1MTk1MzEyNSI+JiN4YTsgICAgICAgIDAmI3hhOyAgICA8L3RleHQ+JiN4YTsgICAgPHBhdGggZD0iTSAxMzMuMzI1MTk1MzEyNSAyODguMjM1Mjk0MTE3NjQ3MSBMIDEzMy4zMjUxOTUzMTI1IDI4OC4yMzUyOTQxMTc2NDcxIiBtYXJrZXItc3RhcnQ9InVybCgjaGVhZCkiIG1hcmtlci1lbmQ9InVybCgjaGVhZCkiIHN0cm9rZS13aWR0aD0iNSIgc3Ryb2tlLW9wYWNpdHk9IjAuNSIgc3Ryb2tlPSJyZWQiLz4mI3hhOyAgICA8dGV4dCBmaWxsPSJyZWQiIGZvbnQtc2l6ZT0iNSIgeT0iMjk4LjIzNTI5NDExNzY0NzEiIHg9IjEzMS4zMjUxOTUzMTI1Ij4mI3hhOyAgICAgICAgMCYjeGE7ICAgIDwvdGV4dD4mI3hhOyAgICA8cGF0aCBkPSJNIDEzMy4zMjUxOTUzMTI1IDI4Mi4zNTI5NDExNzY0NzA2IEwgMTMzLjMyNTE5NTMxMjUgMjgyLjM1Mjk0MTE3NjQ3MDYiIG1hcmtlci1zdGFydD0idXJsKCNoZWFkKSIgbWFya2VyLWVuZD0idXJsKCNoZWFkKSIgc3Ryb2tlLXdpZHRoPSI1IiBzdHJva2Utb3BhY2l0eT0iMC41IiBzdHJva2U9InJlZCIvPiYjeGE7ICAgIDx0ZXh0IGZpbGw9InJlZCIgZm9udC1zaXplPSI1IiB5PSIyOTIuMzUyOTQxMTc2NDcwNiIgeD0iMTMxLjMyNTE5NTMxMjUiPiYjeGE7ICAgICAgICAwJiN4YTsgICAgPC90ZXh0PiYjeGE7ICAgIDxwYXRoIGQ9Ik0gMTMzLjMyNTE5NTMxMjUgMjc2LjQ3MDU4ODIzNTI5NDE0IEwgMTMzLjMyNTE5NTMxMjUgMjc2LjQ3MDU4ODIzNTI5NDE0IiBtYXJrZXItc3RhcnQ9InVybCgjaGVhZCkiIG1hcmtlci1lbmQ9InVybCgjaGVhZCkiIHN0cm9rZS13aWR0aD0iNSIgc3Ryb2tlLW9wYWNpdHk9IjAuNSIgc3Ryb2tlPSJyZWQiLz4mI3hhOyAgICA8dGV4dCBmaWxsPSJyZWQiIGZvbnQtc2l6ZT0iNSIgeT0iMjg2LjQ3MDU4ODIzNTI5NDE0IiB4PSIxMzEuMzI1MTk1MzEyNSI+JiN4YTsgICAgICAgIDAmI3hhOyAgICA8L3RleHQ+JiN4YTsgICAgPHBhdGggZD0iTSAxMzMuMzI1MTk1MzEyNSAyNzAuNTg4MjM1Mjk0MTE3NyBMIDEzMy4zMjUxOTUzMTI1IDI3MC41ODgyMzUyOTQxMTc3IiBtYXJrZXItc3RhcnQ9InVybCgjaGVhZCkiIG1hcmtlci1lbmQ9InVybCgjaGVhZCkiIHN0cm9rZS13aWR0aD0iNSIgc3Ryb2tlLW9wYWNpdHk9IjAuNSIgc3Ryb2tlPSJyZWQiLz4mI3hhOyAgICA8dGV4dCBmaWxsPSJyZWQiIGZvbnQtc2l6ZT0iNSIgeT0iMjgwLjU4ODIzNTI5NDExNzciIHg9IjEzMS4zMjUxOTUzMTI1Ij4mI3hhOyAgICAgICAgMCYjeGE7ICAgIDwvdGV4dD4mI3hhOyAgICA8cGF0aCBkPSJNIDEzMy4zMjUxOTUzMTI1IDI2NC43MDU4ODIzNTI5NDEyIEwgMTMzLjMyNTE5NTMxMjUgMjY0LjcwNTg4MjM1Mjk0MTIiIG1hcmtlci1zdGFydD0idXJsKCNoZWFkKSIgbWFya2VyLWVuZD0idXJsKCNoZWFkKSIgc3Ryb2tlLXdpZHRoPSI1IiBzdHJva2Utb3BhY2l0eT0iMC41IiBzdHJva2U9InJlZCIvPiYjeGE7ICAgIDx0ZXh0IGZpbGw9InJlZCIgZm9udC1zaXplPSI1IiB5PSIyNzQuNzA1ODgyMzUyOTQxMiIgeD0iMTMxLjMyNTE5NTMxMjUiPiYjeGE7ICAgICAgICAwJiN4YTsgICAgPC90ZXh0PiYjeGE7ICAgIDxwYXRoIGQ9Ik0gMTMzLjMyNTE5NTMxMjUgMjU4LjgyMzUyOTQxMTc2NDcgTCAxMzMuMzI1MTk1MzEyNSAyNTguODIzNTI5NDExNzY0NyIgbWFya2VyLXN0YXJ0PSJ1cmwoI2hlYWQpIiBtYXJrZXItZW5kPSJ1cmwoI2hlYWQpIiBzdHJva2Utd2lkdGg9IjUiIHN0cm9rZS1vcGFjaXR5PSIwLjUiIHN0cm9rZT0icmVkIi8+JiN4YTsgICAgPHRleHQgZmlsbD0icmVkIiBmb250LXNpemU9IjUiIHk9IjI2OC44MjM1Mjk0MTE3NjQ3IiB4PSIxMzEuMzI1MTk1MzEyNSI+JiN4YTsgICAgICAgIDAmI3hhOyAgICA8L3RleHQ+JiN4YTsgICAgPHBhdGggZD0iTSAxMzMuMzI1MTk1MzEyNSAyNTIuOTQxMTc2NDcwNTg4MjMgTCAxMzMuMzI1MTk1MzEyNSAyNTIuOTQxMTc2NDcwNTg4MjMiIG1hcmtlci1zdGFydD0idXJsKCNoZWFkKSIgbWFya2VyLWVuZD0idXJsKCNoZWFkKSIgc3Ryb2tlLXdpZHRoPSI1IiBzdHJva2Utb3BhY2l0eT0iMC41IiBzdHJva2U9InJlZCIvPiYjeGE7ICAgIDx0ZXh0IGZpbGw9InJlZCIgZm9udC1zaXplPSI1IiB5PSIyNjIuOTQxMTc2NDcwNTg4MjMiIHg9IjEzMS4zMjUxOTUzMTI1Ij4mI3hhOyAgICAgICAgMCYjeGE7ICAgIDwvdGV4dD4mI3hhOyAgICA8cGF0aCBkPSJNIDEzMy4zMjUxOTUzMTI1IDI0Ny4wNTg4MjM1Mjk0MTE3NyBMIDEzMy4zMjUxOTUzMTI1IDI0Ny4wNTg4MjM1Mjk0MTE3NyIgbWFya2VyLXN0YXJ0PSJ1cmwoI2hlYWQpIiBtYXJrZXItZW5kPSJ1cmwoI2hlYWQpIiBzdHJva2Utd2lkdGg9IjUiIHN0cm9rZS1vcGFjaXR5PSIwLjUiIHN0cm9rZT0icmVkIi8+JiN4YTsgICAgPHRleHQgZmlsbD0icmVkIiBmb250LXNpemU9IjUiIHk9IjI1Ny4wNTg4MjM1Mjk0MTE3NyIgeD0iMTMxLjMyNTE5NTMxMjUiPiYjeGE7ICAgICAgICAwJiN4YTsgICAgPC90ZXh0PiYjeGE7ICAgIDxwYXRoIGQ9Ik0gMTMzLjMyNTE5NTMxMjUgMjQxLjE3NjQ3MDU4ODIzNTMgTCAxMzMuMzI1MTk1MzEyNSAyNDEuMTc2NDcwNTg4MjM1MyIgbWFya2VyLXN0YXJ0PSJ1cmwoI2hlYWQpIiBtYXJrZXItZW5kPSJ1cmwoI2hlYWQpIiBzdHJva2Utd2lkdGg9IjUiIHN0cm9rZS1vcGFjaXR5PSIwLjUiIHN0cm9rZT0icmVkIi8+JiN4YTsgICAgPHRleHQgZmlsbD0icmVkIiBmb250LXNpemU9IjUiIHk9IjI1MS4xNzY0NzA1ODgyMzUzIiB4PSIxMzEuMzI1MTk1MzEyNSI+JiN4YTsgICAgICAgIDAmI3hhOyAgICA8L3RleHQ+JiN4YTsgICAgPHBhdGggZD0iTSAxMzMuMzI1MTk1MzEyNSAyMzUuMjk0MTE3NjQ3MDU4OCBMIDEzMy4zMjUxOTUzMTI1IDIzNS4yOTQxMTc2NDcwNTg4IiBtYXJrZXItc3RhcnQ9InVybCgjaGVhZCkiIG1hcmtlci1lbmQ9InVybCgjaGVhZCkiIHN0cm9rZS13aWR0aD0iNSIgc3Ryb2tlLW9wYWNpdHk9IjAuNSIgc3Ryb2tlPSJyZWQiLz4mI3hhOyAgICA8dGV4dCBmaWxsPSJyZWQiIGZvbnQtc2l6ZT0iNSIgeT0iMjQ1LjI5NDExNzY0NzA1ODgiIHg9IjEzMS4zMjUxOTUzMTI1Ij4mI3hhOyAgICAgICAgMCYjeGE7ICAgIDwvdGV4dD4mI3hhOyAgICA8cGF0aCBkPSJNIDEzMy4zMjUxOTUzMTI1IDIyOS40MTE3NjQ3MDU4ODIzNSBMIDEzMy4zMjUxOTUzMTI1IDIyOS40MTE3NjQ3MDU4ODIzNSIgbWFya2VyLXN0YXJ0PSJ1cmwoI2hlYWQpIiBtYXJrZXItZW5kPSJ1cmwoI2hlYWQpIiBzdHJva2Utd2lkdGg9IjUiIHN0cm9rZS1vcGFjaXR5PSIwLjUiIHN0cm9rZT0icmVkIi8+JiN4YTsgICAgPHRleHQgZmlsbD0icmVkIiBmb250LXNpemU9IjUiIHk9IjIzOS40MTE3NjQ3MDU4ODIzNSIgeD0iMTMxLjMyNTE5NTMxMjUiPiYjeGE7ICAgICAgICAwJiN4YTsgICAgPC90ZXh0PiYjeGE7ICAgIDxwYXRoIGQ9Ik0gMTMzLjMyNTE5NTMxMjUgMjIzLjUyOTQxMTc2NDcwNTg4IEwgMTMzLjMyNTE5NTMxMjUgMjIzLjUyOTQxMTc2NDcwNTg4IiBtYXJrZXItc3RhcnQ9InVybCgjaGVhZCkiIG1hcmtlci1lbmQ9InVybCgjaGVhZCkiIHN0cm9rZS13aWR0aD0iNSIgc3Ryb2tlLW9wYWNpdHk9IjAuNSIgc3Ryb2tlPSJyZWQiLz4mI3hhOyAgICA8dGV4dCBmaWxsPSJyZWQiIGZvbnQtc2l6ZT0iNSIgeT0iMjMzLjUyOTQxMTc2NDcwNTg4IiB4PSIxMzEuMzI1MTk1MzEyNSI+JiN4YTsgICAgICAgIDAmI3hhOyAgICA8L3RleHQ+JiN4YTsgICAgPHBhdGggZD0iTSAxMzMuMzI1MTk1MzEyNSAyMTcuNjQ3MDU4ODIzNTI5NDIgTCAxMzMuMzI1MTk1MzEyNSAyMTcuNjQ3MDU4ODIzNTI5NDIiIG1hcmtlci1zdGFydD0idXJsKCNoZWFkKSIgbWFya2VyLWVuZD0idXJsKCNoZWFkKSIgc3Ryb2tlLXdpZHRoPSI1IiBzdHJva2Utb3BhY2l0eT0iMC41IiBzdHJva2U9InJlZCIvPiYjeGE7ICAgIDx0ZXh0IGZpbGw9InJlZCIgZm9udC1zaXplPSI1IiB5PSIyMjcuNjQ3MDU4ODIzNTI5NDIiIHg9IjEzMS4zMjUxOTUzMTI1Ij4mI3hhOyAgICAgICAgMCYjeGE7ICAgIDwvdGV4dD4mI3hhOyAgICA8cGF0aCBkPSJNIDEzMy4zMjUxOTUzMTI1IDIxMS43NjQ3MDU4ODIzNTI5NiBMIDEzMy4zMjUxOTUzMTI1IDIxMS43NjQ3MDU4ODIzNTI5NiIgbWFya2VyLXN0YXJ0PSJ1cmwoI2hlYWQpIiBtYXJrZXItZW5kPSJ1cmwoI2hlYWQpIiBzdHJva2Utd2lkdGg9IjUiIHN0cm9rZS1vcGFjaXR5PSIwLjUiIHN0cm9rZT0icmVkIi8+JiN4YTsgICAgPHRleHQgZmlsbD0icmVkIiBmb250LXNpemU9IjUiIHk9IjIyMS43NjQ3MDU4ODIzNTI5NiIgeD0iMTMxLjMyNTE5NTMxMjUiPiYjeGE7ICAgICAgICAwJiN4YTsgICAgPC90ZXh0PiYjeGE7ICAgIDxwYXRoIGQ9Ik0gMTMzLjMyNTE5NTMxMjUgMjA1Ljg4MjM1Mjk0MTE3NjQ2IEwgMTMzLjMyNTE5NTMxMjUgMjA1Ljg4MjM1Mjk0MTE3NjQ2IiBtYXJrZXItc3RhcnQ9InVybCgjaGVhZCkiIG1hcmtlci1lbmQ9InVybCgjaGVhZCkiIHN0cm9rZS13aWR0aD0iNSIgc3Ryb2tlLW9wYWNpdHk9IjAuNSIgc3Ryb2tlPSJyZWQiLz4mI3hhOyAgICA8dGV4dCBmaWxsPSJyZWQiIGZvbnQtc2l6ZT0iNSIgeT0iMjE1Ljg4MjM1Mjk0MTE3NjQ2IiB4PSIxMzEuMzI1MTk1MzEyNSI+JiN4YTsgICAgICAgIDAmI3hhOyAgICA8L3RleHQ+JiN4YTsgICAgPHBhdGggZD0iTSAxMzMuMzI1MTk1MzEyNSAyMDAgTCAxMzMuMzI1MTk1MzEyNSAyMDAiIG1hcmtlci1zdGFydD0idXJsKCNoZWFkKSIgbWFya2VyLWVuZD0idXJsKCNoZWFkKSIgc3Ryb2tlLXdpZHRoPSI1IiBzdHJva2Utb3BhY2l0eT0iMC41IiBzdHJva2U9InJlZCIvPiYjeGE7ICAgIDx0ZXh0IGZpbGw9InJlZCIgZm9udC1zaXplPSI1IiB5PSIyMTAiIHg9IjEzMS4zMjUxOTUzMTI1Ij4mI3hhOyAgICAgICAgMCYjeGE7ICAgIDwvdGV4dD4mI3hhOyAgICA8cGF0aCBkPSJNIDEzMy4zMjUxOTUzMTI1IDE5NC4xMTc2NDcwNTg4MjM1NCBMIDEzMy4zMjUxOTUzMTI1IDE5NC4xMTc2NDcwNTg4MjM1NCIgbWFya2VyLXN0YXJ0PSJ1cmwoI2hlYWQpIiBtYXJrZXItZW5kPSJ1cmwoI2hlYWQpIiBzdHJva2Utd2lkdGg9IjUiIHN0cm9rZS1vcGFjaXR5PSIwLjUiIHN0cm9rZT0icmVkIi8+JiN4YTsgICAgPHRleHQgZmlsbD0icmVkIiBmb250LXNpemU9IjUiIHk9IjIwNC4xMTc2NDcwNTg4MjM1NCIgeD0iMTMxLjMyNTE5NTMxMjUiPiYjeGE7ICAgICAgICAwJiN4YTsgICAgPC90ZXh0PiYjeGE7ICAgIDxwYXRoIGQ9Ik0gMTMzLjMyNTE5NTMxMjUgMTg4LjIzNTI5NDExNzY0NzA3IEwgMTMzLjMyNTE5NTMxMjUgMTg4LjIzNTI5NDExNzY0NzA3IiBtYXJrZXItc3RhcnQ9InVybCgjaGVhZCkiIG1hcmtlci1lbmQ9InVybCgjaGVhZCkiIHN0cm9rZS13aWR0aD0iNSIgc3Ryb2tlLW9wYWNpdHk9IjAuNSIgc3Ryb2tlPSJyZWQiLz4mI3hhOyAgICA8dGV4dCBmaWxsPSJyZWQiIGZvbnQtc2l6ZT0iNSIgeT0iMTk4LjIzNTI5NDExNzY0NzA3IiB4PSIxMzEuMzI1MTk1MzEyNSI+JiN4YTsgICAgICAgIDAmI3hhOyAgICA8L3RleHQ+JiN4YTsgICAgPHBhdGggZD0iTSAxMzMuMzI1MTk1MzEyNSAxODIuMzUyOTQxMTc2NDcwNiBMIDEzMy4zMjUxOTUzMTI1IDE4Mi4zNTI5NDExNzY0NzA2IiBtYXJrZXItc3RhcnQ9InVybCgjaGVhZCkiIG1hcmtlci1lbmQ9InVybCgjaGVhZCkiIHN0cm9rZS13aWR0aD0iNSIgc3Ryb2tlLW9wYWNpdHk9IjAuNSIgc3Ryb2tlPSJyZWQiLz4mI3hhOyAgICA8dGV4dCBmaWxsPSJyZWQiIGZvbnQtc2l6ZT0iNSIgeT0iMTkyLjM1Mjk0MTE3NjQ3MDYiIHg9IjEzMS4zMjUxOTUzMTI1Ij4mI3hhOyAgICAgICAgMCYjeGE7ICAgIDwvdGV4dD4mI3hhOyAgICA8cGF0aCBkPSJNIDEzMy4zMjUxOTUzMTI1IDE3Ni40NzA1ODgyMzUyOTQxMiBMIDEzMy4zMjUxOTUzMTI1IDE3Ni40NzA1ODgyMzUyOTQxMiIgbWFya2VyLXN0YXJ0PSJ1cmwoI2hlYWQpIiBtYXJrZXItZW5kPSJ1cmwoI2hlYWQpIiBzdHJva2Utd2lkdGg9IjUiIHN0cm9rZS1vcGFjaXR5PSIwLjUiIHN0cm9rZT0icmVkIi8+JiN4YTsgICAgPHRleHQgZmlsbD0icmVkIiBmb250LXNpemU9IjUiIHk9IjE4Ni40NzA1ODgyMzUyOTQxMiIgeD0iMTMxLjMyNTE5NTMxMjUiPiYjeGE7ICAgICAgICAwJiN4YTsgICAgPC90ZXh0PiYjeGE7ICAgIDxwYXRoIGQ9Ik0gMTMzLjMyNTE5NTMxMjUgMTcwLjU4ODIzNTI5NDExNzY1IEwgMTMzLjMyNTE5NTMxMjUgMTcwLjU4ODIzNTI5NDExNzY1IiBtYXJrZXItc3RhcnQ9InVybCgjaGVhZCkiIG1hcmtlci1lbmQ9InVybCgjaGVhZCkiIHN0cm9rZS13aWR0aD0iNSIgc3Ryb2tlLW9wYWNpdHk9IjAuNSIgc3Ryb2tlPSJyZWQiLz4mI3hhOyAgICA8dGV4dCBmaWxsPSJyZWQiIGZvbnQtc2l6ZT0iNSIgeT0iMTgwLjU4ODIzNTI5NDExNzY1IiB4PSIxMzEuMzI1MTk1MzEyNSI+JiN4YTsgICAgICAgIDAmI3hhOyAgICA8L3RleHQ+JiN4YTsgICAgPHBhdGggZD0iTSAxMzMuMzI1MTk1MzEyNSAxNjQuNzA1ODgyMzUyOTQxMiBMIDEzMy4zMjUxOTUzMTI1IDE2NC43MDU4ODIzNTI5NDEyIiBtYXJrZXItc3RhcnQ9InVybCgjaGVhZCkiIG1hcmtlci1lbmQ9InVybCgjaGVhZCkiIHN0cm9rZS13aWR0aD0iNSIgc3Ryb2tlLW9wYWNpdHk9IjAuNSIgc3Ryb2tlPSJyZWQiLz4mI3hhOyAgICA8dGV4dCBmaWxsPSJyZWQiIGZvbnQtc2l6ZT0iNSIgeT0iMTc0LjcwNTg4MjM1Mjk0MTIiIHg9IjEzMS4zMjUxOTUzMTI1Ij4mI3hhOyAgICAgICAgMCYjeGE7ICAgIDwvdGV4dD4mI3hhOyAgICA8cGF0aCBkPSJNIDEzMy4zMjUxOTUzMTI1IDE1OC44MjM1Mjk0MTE3NjQ3IEwgMTMzLjMyNTE5NTMxMjUgMTU4LjgyMzUyOTQxMTc2NDciIG1hcmtlci1zdGFydD0idXJsKCNoZWFkKSIgbWFya2VyLWVuZD0idXJsKCNoZWFkKSIgc3Ryb2tlLXdpZHRoPSI1IiBzdHJva2Utb3BhY2l0eT0iMC41IiBzdHJva2U9InJlZCIvPiYjeGE7ICAgIDx0ZXh0IGZpbGw9InJlZCIgZm9udC1zaXplPSI1IiB5PSIxNjguODIzNTI5NDExNzY0NyIgeD0iMTMxLjMyNTE5NTMxMjUiPiYjeGE7ICAgICAgICAwJiN4YTsgICAgPC90ZXh0PiYjeGE7ICAgIDxwYXRoIGQ9Ik0gMTMzLjMyNTE5NTMxMjUgMTUyLjk0MTE3NjQ3MDU4ODI2IEwgMTMzLjMyNTE5NTMxMjUgMTUyLjk0MTE3NjQ3MDU4ODI2IiBtYXJrZXItc3RhcnQ9InVybCgjaGVhZCkiIG1hcmtlci1lbmQ9InVybCgjaGVhZCkiIHN0cm9rZS13aWR0aD0iNSIgc3Ryb2tlLW9wYWNpdHk9IjAuNSIgc3Ryb2tlPSJyZWQiLz4mI3hhOyAgICA8dGV4dCBmaWxsPSJyZWQiIGZvbnQtc2l6ZT0iNSIgeT0iMTYyLjk0MTE3NjQ3MDU4ODI2IiB4PSIxMzEuMzI1MTk1MzEyNSI+JiN4YTsgICAgICAgIDAmI3hhOyAgICA8L3RleHQ+JiN4YTsgICAgPHBhdGggZD0iTSAxMzMuMzI1MTk1MzEyNSAxNDcuMDU4ODIzNTI5NDExNzcgTCAxMzMuMzI1MTk1MzEyNSAxNDcuMDU4ODIzNTI5NDExNzciIG1hcmtlci1zdGFydD0idXJsKCNoZWFkKSIgbWFya2VyLWVuZD0idXJsKCNoZWFkKSIgc3Ryb2tlLXdpZHRoPSI1IiBzdHJva2Utb3BhY2l0eT0iMC41IiBzdHJva2U9InJlZCIvPiYjeGE7ICAgIDx0ZXh0IGZpbGw9InJlZCIgZm9udC1zaXplPSI1IiB5PSIxNTcuMDU4ODIzNTI5NDExNzciIHg9IjEzMS4zMjUxOTUzMTI1Ij4mI3hhOyAgICAgICAgMCYjeGE7ICAgIDwvdGV4dD4mI3hhOyAgICA8cGF0aCBkPSJNIDEzMy4zMjUxOTUzMTI1IDE0MS4xNzY0NzA1ODgyMzUzIEwgMTMzLjMyNTE5NTMxMjUgMTQxLjE3NjQ3MDU4ODIzNTMiIG1hcmtlci1zdGFydD0idXJsKCNoZWFkKSIgbWFya2VyLWVuZD0idXJsKCNoZWFkKSIgc3Ryb2tlLXdpZHRoPSI1IiBzdHJva2Utb3BhY2l0eT0iMC41IiBzdHJva2U9InJlZCIvPiYjeGE7ICAgIDx0ZXh0IGZpbGw9InJlZCIgZm9udC1zaXplPSI1IiB5PSIxNTEuMTc2NDcwNTg4MjM1MyIgeD0iMTMxLjMyNTE5NTMxMjUiPiYjeGE7ICAgICAgICAwJiN4YTsgICAgPC90ZXh0PiYjeGE7ICAgIDxwYXRoIGQ9Ik0gMTMzLjMyNTE5NTMxMjUgMTM1LjI5NDExNzY0NzA1ODg0IEwgMTMzLjMyNTE5NTMxMjUgMTM1LjI5NDExNzY0NzA1ODg0IiBtYXJrZXItc3RhcnQ9InVybCgjaGVhZCkiIG1hcmtlci1lbmQ9InVybCgjaGVhZCkiIHN0cm9rZS13aWR0aD0iNSIgc3Ryb2tlLW9wYWNpdHk9IjAuNSIgc3Ryb2tlPSJyZWQiLz4mI3hhOyAgICA8dGV4dCBmaWxsPSJyZWQiIGZvbnQtc2l6ZT0iNSIgeT0iMTQ1LjI5NDExNzY0NzA1ODg0IiB4PSIxMzEuMzI1MTk1MzEyNSI+JiN4YTsgICAgICAgIDAmI3hhOyAgICA8L3RleHQ+JiN4YTsgICAgPHBhdGggZD0iTSAxMzMuMzI1MTk1MzEyNSAxMjkuNDExNzY0NzA1ODgyMzggTCAxMzMuMzI1MTk1MzEyNSAxMjkuNDExNzY0NzA1ODgyMzgiIG1hcmtlci1zdGFydD0idXJsKCNoZWFkKSIgbWFya2VyLWVuZD0idXJsKCNoZWFkKSIgc3Ryb2tlLXdpZHRoPSI1IiBzdHJva2Utb3BhY2l0eT0iMC41IiBzdHJva2U9InJlZCIvPiYjeGE7ICAgIDx0ZXh0IGZpbGw9InJlZCIgZm9udC1zaXplPSI1IiB5PSIxMzkuNDExNzY0NzA1ODgyMzgiIHg9IjEzMS4zMjUxOTUzMTI1Ij4mI3hhOyAgICAgICAgMCYjeGE7ICAgIDwvdGV4dD4mI3hhOyAgICA8cGF0aCBkPSJNIDEzMy4zMjUxOTUzMTI1IDEyMy41Mjk0MTE3NjQ3MDU5MSBMIDEzMy4zMjUxOTUzMTI1IDEyMy41Mjk0MTE3NjQ3MDU5MSIgbWFya2VyLXN0YXJ0PSJ1cmwoI2hlYWQpIiBtYXJrZXItZW5kPSJ1cmwoI2hlYWQpIiBzdHJva2Utd2lkdGg9IjUiIHN0cm9rZS1vcGFjaXR5PSIwLjUiIHN0cm9rZT0icmVkIi8+JiN4YTsgICAgPHRleHQgZmlsbD0icmVkIiBmb250LXNpemU9IjUiIHk9IjEzMy41Mjk0MTE3NjQ3MDU5IiB4PSIxMzEuMzI1MTk1MzEyNSI+JiN4YTsgICAgICAgIDAmI3hhOyAgICA8L3RleHQ+JiN4YTsgICAgPHBhdGggZD0iTSAxMzMuMzI1MTk1MzEyNSAxMTcuNjQ3MDU4ODIzNTI5MzkgTCAxMzMuMzI1MTk1MzEyNSAxMTcuNjQ3MDU4ODIzNTI5MzkiIG1hcmtlci1zdGFydD0idXJsKCNoZWFkKSIgbWFya2VyLWVuZD0idXJsKCNoZWFkKSIgc3Ryb2tlLXdpZHRoPSI1IiBzdHJva2Utb3BhY2l0eT0iMC41IiBzdHJva2U9InJlZCIvPiYjeGE7ICAgIDx0ZXh0IGZpbGw9InJlZCIgZm9udC1zaXplPSI1IiB5PSIxMjcuNjQ3MDU4ODIzNTI5MzkiIHg9IjEzMS4zMjUxOTUzMTI1Ij4mI3hhOyAgICAgICAgMCYjeGE7ICAgIDwvdGV4dD4mI3hhOyAgICA8cGF0aCBkPSJNIDEzMy4zMjUxOTUzMTI1IDExMS43NjQ3MDU4ODIzNTI5MyBMIDEzMy4zMjUxOTUzMTI1IDExMS43NjQ3MDU4ODIzNTI5MyIgbWFya2VyLXN0YXJ0PSJ1cmwoI2hlYWQpIiBtYXJrZXItZW5kPSJ1cmwoI2hlYWQpIiBzdHJva2Utd2lkdGg9IjUiIHN0cm9rZS1vcGFjaXR5PSIwLjUiIHN0cm9rZT0icmVkIi8+JiN4YTsgICAgPHRleHQgZmlsbD0icmVkIiBmb250LXNpemU9IjUiIHk9IjEyMS43NjQ3MDU4ODIzNTI5MyIgeD0iMTMxLjMyNTE5NTMxMjUiPiYjeGE7ICAgICAgICAwJiN4YTsgICAgPC90ZXh0PiYjeGE7ICAgIDxwYXRoIGQ9Ik0gMTMzLjMyNTE5NTMxMjUgMTA1Ljg4MjM1Mjk0MTE3NjQ2IEwgMTMzLjMyNTE5NTMxMjUgMTA1Ljg4MjM1Mjk0MTE3NjQ2IiBtYXJrZXItc3RhcnQ9InVybCgjaGVhZCkiIG1hcmtlci1lbmQ9InVybCgjaGVhZCkiIHN0cm9rZS13aWR0aD0iNSIgc3Ryb2tlLW9wYWNpdHk9IjAuNSIgc3Ryb2tlPSJyZWQiLz4mI3hhOyAgICA8dGV4dCBmaWxsPSJyZWQiIGZvbnQtc2l6ZT0iNSIgeT0iMTE1Ljg4MjM1Mjk0MTE3NjQ2IiB4PSIxMzEuMzI1MTk1MzEyNSI+JiN4YTsgICAgICAgIDAmI3hhOyAgICA8L3RleHQ+JiN4YTsgICAgPHBhdGggZD0iTSAxOTQuNzAyMTQ4NDM3NSAzOTQuMTE3NjQ3MDU4ODIzNTQgTCAxOTQuNzAyMTQ4NDM3NSAzOTQuMTE3NjQ3MDU4ODIzNTQiIG1hcmtlci1zdGFydD0idXJsKCNoZWFkKSIgbWFya2VyLWVuZD0idXJsKCNoZWFkKSIgc3Ryb2tlLXdpZHRoPSI1IiBzdHJva2Utb3BhY2l0eT0iMC41IiBzdHJva2U9ImJsdWUiLz4mI3hhOyAgICA8dGV4dCBmaWxsPSJibHVlIiBmb250LXNpemU9IjUiIHk9IjQwNC4xMTc2NDcwNTg4MjM1NCIgeD0iMTkyLjcwMjE0ODQzNzUiPiYjeGE7ICAgICAgICAwJiN4YTsgICAgPC90ZXh0PiYjeGE7ICAgIDxwYXRoIGQ9Ik0gMTk0LjcwMjE0ODQzNzUgMzg4LjIzNTI5NDExNzY0NzEgTCAxOTQuNzAyMTQ4NDM3NSAzODguMjM1Mjk0MTE3NjQ3MSIgbWFya2VyLXN0YXJ0PSJ1cmwoI2hlYWQpIiBtYXJrZXItZW5kPSJ1cmwoI2hlYWQpIiBzdHJva2Utd2lkdGg9IjUiIHN0cm9rZS1vcGFjaXR5PSIwLjUiIHN0cm9rZT0iYmx1ZSIvPiYjeGE7ICAgIDx0ZXh0IGZpbGw9ImJsdWUiIGZvbnQtc2l6ZT0iNSIgeT0iMzk4LjIzNTI5NDExNzY0NzEiIHg9IjE5Mi43MDIxNDg0Mzc1Ij4mI3hhOyAgICAgICAgMCYjeGE7ICAgIDwvdGV4dD4mI3hhOyAgICA8cGF0aCBkPSJNIDE5NC43MDIxNDg0Mzc1IDM4Mi4zNTI5NDExNzY0NzA2IEwgMTk0LjcwMjE0ODQzNzUgMzgyLjM1Mjk0MTE3NjQ3MDYiIG1hcmtlci1zdGFydD0idXJsKCNoZWFkKSIgbWFya2VyLWVuZD0idXJsKCNoZWFkKSIgc3Ryb2tlLXdpZHRoPSI1IiBzdHJva2Utb3BhY2l0eT0iMC41IiBzdHJva2U9ImJsdWUiLz4mI3hhOyAgICA8dGV4dCBmaWxsPSJibHVlIiBmb250LXNpemU9IjUiIHk9IjM5Mi4zNTI5NDExNzY0NzA2IiB4PSIxOTIuNzAyMTQ4NDM3NSI+JiN4YTsgICAgICAgIDAmI3hhOyAgICA8L3RleHQ+JiN4YTsgICAgPHBhdGggZD0iTSAxOTQuNzAyMTQ4NDM3NSAzNzYuNDcwNTg4MjM1Mjk0MTQgTCAxOTQuNzAyMTQ4NDM3NSAzNzYuNDcwNTg4MjM1Mjk0MTQiIG1hcmtlci1zdGFydD0idXJsKCNoZWFkKSIgbWFya2VyLWVuZD0idXJsKCNoZWFkKSIgc3Ryb2tlLXdpZHRoPSI1IiBzdHJva2Utb3BhY2l0eT0iMC41IiBzdHJva2U9ImJsdWUiLz4mI3hhOyAgICA8dGV4dCBmaWxsPSJibHVlIiBmb250LXNpemU9IjUiIHk9IjM4Ni40NzA1ODgyMzUyOTQxNCIgeD0iMTkyLjcwMjE0ODQzNzUiPiYjeGE7ICAgICAgICAwJiN4YTsgICAgPC90ZXh0PiYjeGE7ICAgIDxwYXRoIGQ9Ik0gMTk0LjcwMjE0ODQzNzUgMzcwLjU4ODIzNTI5NDExNzcgTCAxOTQuNzAyMTQ4NDM3NSAzNzAuNTg4MjM1Mjk0MTE3NyIgbWFya2VyLXN0YXJ0PSJ1cmwoI2hlYWQpIiBtYXJrZXItZW5kPSJ1cmwoI2hlYWQpIiBzdHJva2Utd2lkdGg9IjUiIHN0cm9rZS1vcGFjaXR5PSIwLjUiIHN0cm9rZT0iYmx1ZSIvPiYjeGE7ICAgIDx0ZXh0IGZpbGw9ImJsdWUiIGZvbnQtc2l6ZT0iNSIgeT0iMzgwLjU4ODIzNTI5NDExNzciIHg9IjE5Mi43MDIxNDg0Mzc1Ij4mI3hhOyAgICAgICAgMCYjeGE7ICAgIDwvdGV4dD4mI3hhOyAgICA8cGF0aCBkPSJNIDE5NC43MDIxNDg0Mzc1IDM2NC43MDU4ODIzNTI5NDExNiBMIDE5NC43MDIxNDg0Mzc1IDM2NC43MDU4ODIzNTI5NDExNiIgbWFya2VyLXN0YXJ0PSJ1cmwoI2hlYWQpIiBtYXJrZXItZW5kPSJ1cmwoI2hlYWQpIiBzdHJva2Utd2lkdGg9IjUiIHN0cm9rZS1vcGFjaXR5PSIwLjUiIHN0cm9rZT0iYmx1ZSIvPiYjeGE7ICAgIDx0ZXh0IGZpbGw9ImJsdWUiIGZvbnQtc2l6ZT0iNSIgeT0iMzc0LjcwNTg4MjM1Mjk0MTE2IiB4PSIxOTIuNzAyMTQ4NDM3NSI+JiN4YTsgICAgICAgIDAmI3hhOyAgICA8L3RleHQ+JiN4YTsgICAgPHBhdGggZD0iTSAxOTQuNzAyMTQ4NDM3NSAzNTguODIzNTI5NDExNzY0NyBMIDE5NC43MDIxNDg0Mzc1IDM1OC44MjM1Mjk0MTE3NjQ3IiBtYXJrZXItc3RhcnQ9InVybCgjaGVhZCkiIG1hcmtlci1lbmQ9InVybCgjaGVhZCkiIHN0cm9rZS13aWR0aD0iNSIgc3Ryb2tlLW9wYWNpdHk9IjAuNSIgc3Ryb2tlPSJibHVlIi8+JiN4YTsgICAgPHRleHQgZmlsbD0iYmx1ZSIgZm9udC1zaXplPSI1IiB5PSIzNjguODIzNTI5NDExNzY0NyIgeD0iMTkyLjcwMjE0ODQzNzUiPiYjeGE7ICAgICAgICAwJiN4YTsgICAgPC90ZXh0PiYjeGE7ICAgIDxwYXRoIGQ9Ik0gMTk0LjcwMjE0ODQzNzUgMzUyLjk0MTE3NjQ3MDU4ODIzIEwgMTk0LjcwMjE0ODQzNzUgMzUyLjk0MTE3NjQ3MDU4ODIzIiBtYXJrZXItc3RhcnQ9InVybCgjaGVhZCkiIG1hcmtlci1lbmQ9InVybCgjaGVhZCkiIHN0cm9rZS13aWR0aD0iNSIgc3Ryb2tlLW9wYWNpdHk9IjAuNSIgc3Ryb2tlPSJibHVlIi8+JiN4YTsgICAgPHRleHQgZmlsbD0iYmx1ZSIgZm9udC1zaXplPSI1IiB5PSIzNjIuOTQxMTc2NDcwNTg4MjMiIHg9IjE5Mi43MDIxNDg0Mzc1Ij4mI3hhOyAgICAgICAgMCYjeGE7ICAgIDwvdGV4dD4mI3hhOyAgICA8cGF0aCBkPSJNIDE5NC43MDIxNDg0Mzc1IDM0Ny4wNTg4MjM1Mjk0MTE3NyBMIDE5NC43MDIxNDg0Mzc1IDM0Ny4wNTg4MjM1Mjk0MTE3NyIgbWFya2VyLXN0YXJ0PSJ1cmwoI2hlYWQpIiBtYXJrZXItZW5kPSJ1cmwoI2hlYWQpIiBzdHJva2Utd2lkdGg9IjUiIHN0cm9rZS1vcGFjaXR5PSIwLjUiIHN0cm9rZT0iYmx1ZSIvPiYjeGE7ICAgIDx0ZXh0IGZpbGw9ImJsdWUiIGZvbnQtc2l6ZT0iNSIgeT0iMzU3LjA1ODgyMzUyOTQxMTc3IiB4PSIxOTIuNzAyMTQ4NDM3NSI+JiN4YTsgICAgICAgIDAmI3hhOyAgICA8L3RleHQ+JiN4YTsgICAgPHBhdGggZD0iTSAxOTQuNzAyMTQ4NDM3NSAzNDEuMTc2NDcwNTg4MjM1MyBMIDE5NC43MDIxNDg0Mzc1IDM0MS4xNzY0NzA1ODgyMzUzIiBtYXJrZXItc3RhcnQ9InVybCgjaGVhZCkiIG1hcmtlci1lbmQ9InVybCgjaGVhZCkiIHN0cm9rZS13aWR0aD0iNSIgc3Ryb2tlLW9wYWNpdHk9IjAuNSIgc3Ryb2tlPSJibHVlIi8+JiN4YTsgICAgPHRleHQgZmlsbD0iYmx1ZSIgZm9udC1zaXplPSI1IiB5PSIzNTEuMTc2NDcwNTg4MjM1MyIgeD0iMTkyLjcwMjE0ODQzNzUiPiYjeGE7ICAgICAgICAwJiN4YTsgICAgPC90ZXh0PiYjeGE7ICAgIDxwYXRoIGQ9Ik0gMTk0LjcwMjE0ODQzNzUgMzM1LjI5NDExNzY0NzA1ODg0IEwgMTk0LjcwMjE0ODQzNzUgMzM1LjI5NDExNzY0NzA1ODg0IiBtYXJrZXItc3RhcnQ9InVybCgjaGVhZCkiIG1hcmtlci1lbmQ9InVybCgjaGVhZCkiIHN0cm9rZS13aWR0aD0iNSIgc3Ryb2tlLW9wYWNpdHk9IjAuNSIgc3Ryb2tlPSJibHVlIi8+JiN4YTsgICAgPHRleHQgZmlsbD0iYmx1ZSIgZm9udC1zaXplPSI1IiB5PSIzNDUuMjk0MTE3NjQ3MDU4ODQiIHg9IjE5Mi43MDIxNDg0Mzc1Ij4mI3hhOyAgICAgICAgMCYjeGE7ICAgIDwvdGV4dD4mI3hhOyAgICA8cGF0aCBkPSJNIDE5NC43MDIxNDg0Mzc1IDMyOS40MTE3NjQ3MDU4ODIzIEwgMTk0LjcwMjE0ODQzNzUgMzI5LjQxMTc2NDcwNTg4MjMiIG1hcmtlci1zdGFydD0idXJsKCNoZWFkKSIgbWFya2VyLWVuZD0idXJsKCNoZWFkKSIgc3Ryb2tlLXdpZHRoPSI1IiBzdHJva2Utb3BhY2l0eT0iMC41IiBzdHJva2U9ImJsdWUiLz4mI3hhOyAgICA8dGV4dCBmaWxsPSJibHVlIiBmb250LXNpemU9IjUiIHk9IjMzOS40MTE3NjQ3MDU4ODIzIiB4PSIxOTIuNzAyMTQ4NDM3NSI+JiN4YTsgICAgICAgIDAmI3hhOyAgICA8L3RleHQ+JiN4YTsgICAgPHBhdGggZD0iTSAxOTQuNzAyMTQ4NDM3NSAzMjMuNTI5NDExNzY0NzA1ODYgTCAxOTQuNzAyMTQ4NDM3NSAzMjMuNTI5NDExNzY0NzA1ODYiIG1hcmtlci1zdGFydD0idXJsKCNoZWFkKSIgbWFya2VyLWVuZD0idXJsKCNoZWFkKSIgc3Ryb2tlLXdpZHRoPSI1IiBzdHJva2Utb3BhY2l0eT0iMC41IiBzdHJva2U9ImJsdWUiLz4mI3hhOyAgICA8dGV4dCBmaWxsPSJibHVlIiBmb250LXNpemU9IjUiIHk9IjMzMy41Mjk0MTE3NjQ3MDU4NiIgeD0iMTkyLjcwMjE0ODQzNzUiPiYjeGE7ICAgICAgICAwJiN4YTsgICAgPC90ZXh0PiYjeGE7ICAgIDxwYXRoIGQ9Ik0gMTk0LjcwMjE0ODQzNzUgMzE3LjY0NzA1ODgyMzUyOTQgTCAxOTQuNzAyMTQ4NDM3NSAzMTcuNjQ3MDU4ODIzNTI5NCIgbWFya2VyLXN0YXJ0PSJ1cmwoI2hlYWQpIiBtYXJrZXItZW5kPSJ1cmwoI2hlYWQpIiBzdHJva2Utd2lkdGg9IjUiIHN0cm9rZS1vcGFjaXR5PSIwLjUiIHN0cm9rZT0iYmx1ZSIvPiYjeGE7ICAgIDx0ZXh0IGZpbGw9ImJsdWUiIGZvbnQtc2l6ZT0iNSIgeT0iMzI3LjY0NzA1ODgyMzUyOTQiIHg9IjE5Mi43MDIxNDg0Mzc1Ij4mI3hhOyAgICAgICAgMCYjeGE7ICAgIDwvdGV4dD4mI3hhOyAgICA8cGF0aCBkPSJNIDE5NC43MDIxNDg0Mzc1IDMxMS43NjQ3MDU4ODIzNTI5IEwgMTk0LjcwMjE0ODQzNzUgMzExLjc2NDcwNTg4MjM1MjkiIG1hcmtlci1zdGFydD0idXJsKCNoZWFkKSIgbWFya2VyLWVuZD0idXJsKCNoZWFkKSIgc3Ryb2tlLXdpZHRoPSI1IiBzdHJva2Utb3BhY2l0eT0iMC41IiBzdHJva2U9ImJsdWUiLz4mI3hhOyAgICA8dGV4dCBmaWxsPSJibHVlIiBmb250LXNpemU9IjUiIHk9IjMyMS43NjQ3MDU4ODIzNTI5IiB4PSIxOTIuNzAyMTQ4NDM3NSI+JiN4YTsgICAgICAgIDAmI3hhOyAgICA8L3RleHQ+JiN4YTsgICAgPHBhdGggZD0iTSAxOTQuNzAyMTQ4NDM3NSAzMDUuODgyMzUyOTQxMTc2NDYgTCAxOTQuNzAyMTQ4NDM3NSAzMDUuODgyMzUyOTQxMTc2NDYiIG1hcmtlci1zdGFydD0idXJsKCNoZWFkKSIgbWFya2VyLWVuZD0idXJsKCNoZWFkKSIgc3Ryb2tlLXdpZHRoPSI1IiBzdHJva2Utb3BhY2l0eT0iMC41IiBzdHJva2U9ImJsdWUiLz4mI3hhOyAgICA8dGV4dCBmaWxsPSJibHVlIiBmb250LXNpemU9IjUiIHk9IjMxNS44ODIzNTI5NDExNzY0NiIgeD0iMTkyLjcwMjE0ODQzNzUiPiYjeGE7ICAgICAgICAwJiN4YTsgICAgPC90ZXh0PiYjeGE7ICAgIDxwYXRoIGQ9Ik0gMTk0LjcwMjE0ODQzNzUgMzAwIEwgMTk0LjcwMjE0ODQzNzUgMzAwIiBtYXJrZXItc3RhcnQ9InVybCgjaGVhZCkiIG1hcmtlci1lbmQ9InVybCgjaGVhZCkiIHN0cm9rZS13aWR0aD0iNSIgc3Ryb2tlLW9wYWNpdHk9IjAuNSIgc3Ryb2tlPSJibHVlIi8+JiN4YTsgICAgPHRleHQgZmlsbD0iYmx1ZSIgZm9udC1zaXplPSI1IiB5PSIzMTAiIHg9IjE5Mi43MDIxNDg0Mzc1Ij4mI3hhOyAgICAgICAgMCYjeGE7ICAgIDwvdGV4dD4mI3hhOyAgICA8cGF0aCBkPSJNIDE5NC43MDIxNDg0Mzc1IDI5NC4xMTc2NDcwNTg4MjM1NCBMIDE5NC43MDIxNDg0Mzc1IDI5NC4xMTc2NDcwNTg4MjM1NCIgbWFya2VyLXN0YXJ0PSJ1cmwoI2hlYWQpIiBtYXJrZXItZW5kPSJ1cmwoI2hlYWQpIiBzdHJva2Utd2lkdGg9IjUiIHN0cm9rZS1vcGFjaXR5PSIwLjUiIHN0cm9rZT0iYmx1ZSIvPiYjeGE7ICAgIDx0ZXh0IGZpbGw9ImJsdWUiIGZvbnQtc2l6ZT0iNSIgeT0iMzA0LjExNzY0NzA1ODgyMzU0IiB4PSIxOTIuNzAyMTQ4NDM3NSI+JiN4YTsgICAgICAgIDAmI3hhOyAgICA8L3RleHQ+JiN4YTsgICAgPHBhdGggZD0iTSAxOTQuNzAyMTQ4NDM3NSAyODguMjM1Mjk0MTE3NjQ3MSBMIDE5NC43MDIxNDg0Mzc1IDI4OC4yMzUyOTQxMTc2NDcxIiBtYXJrZXItc3RhcnQ9InVybCgjaGVhZCkiIG1hcmtlci1lbmQ9InVybCgjaGVhZCkiIHN0cm9rZS13aWR0aD0iNSIgc3Ryb2tlLW9wYWNpdHk9IjAuNSIgc3Ryb2tlPSJibHVlIi8+JiN4YTsgICAgPHRleHQgZmlsbD0iYmx1ZSIgZm9udC1zaXplPSI1IiB5PSIyOTguMjM1Mjk0MTE3NjQ3MSIgeD0iMTkyLjcwMjE0ODQzNzUiPiYjeGE7ICAgICAgICAwJiN4YTsgICAgPC90ZXh0PiYjeGE7ICAgIDxwYXRoIGQ9Ik0gMTk0LjcwMjE0ODQzNzUgMjgyLjM1Mjk0MTE3NjQ3MDYgTCAxOTQuNzAyMTQ4NDM3NSAyODIuMzUyOTQxMTc2NDcwNiIgbWFya2VyLXN0YXJ0PSJ1cmwoI2hlYWQpIiBtYXJrZXItZW5kPSJ1cmwoI2hlYWQpIiBzdHJva2Utd2lkdGg9IjUiIHN0cm9rZS1vcGFjaXR5PSIwLjUiIHN0cm9rZT0iYmx1ZSIvPiYjeGE7ICAgIDx0ZXh0IGZpbGw9ImJsdWUiIGZvbnQtc2l6ZT0iNSIgeT0iMjkyLjM1Mjk0MTE3NjQ3MDYiIHg9IjE5Mi43MDIxNDg0Mzc1Ij4mI3hhOyAgICAgICAgMCYjeGE7ICAgIDwvdGV4dD4mI3hhOyAgICA8cGF0aCBkPSJNIDE5NC43MDIxNDg0Mzc1IDI3Ni40NzA1ODgyMzUyOTQxNCBMIDE5NC43MDIxNDg0Mzc1IDI3Ni40NzA1ODgyMzUyOTQxNCIgbWFya2VyLXN0YXJ0PSJ1cmwoI2hlYWQpIiBtYXJrZXItZW5kPSJ1cmwoI2hlYWQpIiBzdHJva2Utd2lkdGg9IjUiIHN0cm9rZS1vcGFjaXR5PSIwLjUiIHN0cm9rZT0iYmx1ZSIvPiYjeGE7ICAgIDx0ZXh0IGZpbGw9ImJsdWUiIGZvbnQtc2l6ZT0iNSIgeT0iMjg2LjQ3MDU4ODIzNTI5NDE0IiB4PSIxOTIuNzAyMTQ4NDM3NSI+JiN4YTsgICAgICAgIDAmI3hhOyAgICA8L3RleHQ+JiN4YTsgICAgPHBhdGggZD0iTSAxOTQuNzAyMTQ4NDM3NSAyNzAuNTg4MjM1Mjk0MTE3NyBMIDE5NC43MDIxNDg0Mzc1IDI3MC41ODgyMzUyOTQxMTc3IiBtYXJrZXItc3RhcnQ9InVybCgjaGVhZCkiIG1hcmtlci1lbmQ9InVybCgjaGVhZCkiIHN0cm9rZS13aWR0aD0iNSIgc3Ryb2tlLW9wYWNpdHk9IjAuNSIgc3Ryb2tlPSJibHVlIi8+JiN4YTsgICAgPHRleHQgZmlsbD0iYmx1ZSIgZm9udC1zaXplPSI1IiB5PSIyODAuNTg4MjM1Mjk0MTE3NyIgeD0iMTkyLjcwMjE0ODQzNzUiPiYjeGE7ICAgICAgICAwJiN4YTsgICAgPC90ZXh0PiYjeGE7ICAgIDxwYXRoIGQ9Ik0gMTk0LjcwMjE0ODQzNzUgMjY0LjcwNTg4MjM1Mjk0MTIgTCAxOTQuNzAyMTQ4NDM3NSAyNjQuNzA1ODgyMzUyOTQxMiIgbWFya2VyLXN0YXJ0PSJ1cmwoI2hlYWQpIiBtYXJrZXItZW5kPSJ1cmwoI2hlYWQpIiBzdHJva2Utd2lkdGg9IjUiIHN0cm9rZS1vcGFjaXR5PSIwLjUiIHN0cm9rZT0iYmx1ZSIvPiYjeGE7ICAgIDx0ZXh0IGZpbGw9ImJsdWUiIGZvbnQtc2l6ZT0iNSIgeT0iMjc0LjcwNTg4MjM1Mjk0MTIiIHg9IjE5Mi43MDIxNDg0Mzc1Ij4mI3hhOyAgICAgICAgMCYjeGE7ICAgIDwvdGV4dD4mI3hhOyAgICA8cGF0aCBkPSJNIDE5NC43MDIxNDg0Mzc1IDI1OC44MjM1Mjk0MTE3NjQ3IEwgMTk0LjcwMjE0ODQzNzUgMjU4LjgyMzUyOTQxMTc2NDciIG1hcmtlci1zdGFydD0idXJsKCNoZWFkKSIgbWFya2VyLWVuZD0idXJsKCNoZWFkKSIgc3Ryb2tlLXdpZHRoPSI1IiBzdHJva2Utb3BhY2l0eT0iMC41IiBzdHJva2U9ImJsdWUiLz4mI3hhOyAgICA8dGV4dCBmaWxsPSJibHVlIiBmb250LXNpemU9IjUiIHk9IjI2OC44MjM1Mjk0MTE3NjQ3IiB4PSIxOTIuNzAyMTQ4NDM3NSI+JiN4YTsgICAgICAgIDAmI3hhOyAgICA8L3RleHQ+JiN4YTsgICAgPHBhdGggZD0iTSAxOTQuNzAyMTQ4NDM3NSAyNTIuOTQxMTc2NDcwNTg4MjMgTCAxOTQuNzAyMTQ4NDM3NSAyNTIuOTQxMTc2NDcwNTg4MjMiIG1hcmtlci1zdGFydD0idXJsKCNoZWFkKSIgbWFya2VyLWVuZD0idXJsKCNoZWFkKSIgc3Ryb2tlLXdpZHRoPSI1IiBzdHJva2Utb3BhY2l0eT0iMC41IiBzdHJva2U9ImJsdWUiLz4mI3hhOyAgICA8dGV4dCBmaWxsPSJibHVlIiBmb250LXNpemU9IjUiIHk9IjI2Mi45NDExNzY0NzA1ODgyMyIgeD0iMTkyLjcwMjE0ODQzNzUiPiYjeGE7ICAgICAgICAwJiN4YTsgICAgPC90ZXh0PiYjeGE7ICAgIDxwYXRoIGQ9Ik0gMTk0LjcwMjE0ODQzNzUgMjQ3LjA1ODgyMzUyOTQxMTc3IEwgMTk0LjcwMjE0ODQzNzUgMjQ3LjA1ODgyMzUyOTQxMTc3IiBtYXJrZXItc3RhcnQ9InVybCgjaGVhZCkiIG1hcmtlci1lbmQ9InVybCgjaGVhZCkiIHN0cm9rZS13aWR0aD0iNSIgc3Ryb2tlLW9wYWNpdHk9IjAuNSIgc3Ryb2tlPSJibHVlIi8+JiN4YTsgICAgPHRleHQgZmlsbD0iYmx1ZSIgZm9udC1zaXplPSI1IiB5PSIyNTcuMDU4ODIzNTI5NDExNzciIHg9IjE5Mi43MDIxNDg0Mzc1Ij4mI3hhOyAgICAgICAgMCYjeGE7ICAgIDwvdGV4dD4mI3hhOyAgICA8cGF0aCBkPSJNIDE5NC43MDIxNDg0Mzc1IDI0MS4xNzY0NzA1ODgyMzUzIEwgMTk0LjcwMjE0ODQzNzUgMjQxLjE3NjQ3MDU4ODIzNTMiIG1hcmtlci1zdGFydD0idXJsKCNoZWFkKSIgbWFya2VyLWVuZD0idXJsKCNoZWFkKSIgc3Ryb2tlLXdpZHRoPSI1IiBzdHJva2Utb3BhY2l0eT0iMC41IiBzdHJva2U9ImJsdWUiLz4mI3hhOyAgICA8dGV4dCBmaWxsPSJibHVlIiBmb250LXNpemU9IjUiIHk9IjI1MS4xNzY0NzA1ODgyMzUzIiB4PSIxOTIuNzAyMTQ4NDM3NSI+JiN4YTsgICAgICAgIDAmI3hhOyAgICA8L3RleHQ+JiN4YTsgICAgPHBhdGggZD0iTSAxOTQuNzAyMTQ4NDM3NSAyMzUuMjk0MTE3NjQ3MDU4OCBMIDE5NC43MDIxNDg0Mzc1IDIzNS4yOTQxMTc2NDcwNTg4IiBtYXJrZXItc3RhcnQ9InVybCgjaGVhZCkiIG1hcmtlci1lbmQ9InVybCgjaGVhZCkiIHN0cm9rZS13aWR0aD0iNSIgc3Ryb2tlLW9wYWNpdHk9IjAuNSIgc3Ryb2tlPSJibHVlIi8+JiN4YTsgICAgPHRleHQgZmlsbD0iYmx1ZSIgZm9udC1zaXplPSI1IiB5PSIyNDUuMjk0MTE3NjQ3MDU4OCIgeD0iMTkyLjcwMjE0ODQzNzUiPiYjeGE7ICAgICAgICAwJiN4YTsgICAgPC90ZXh0PiYjeGE7ICAgIDxwYXRoIGQ9Ik0gMTk0LjcwMjE0ODQzNzUgMjI5LjQxMTc2NDcwNTg4MjM1IEwgMTk0LjcwMjE0ODQzNzUgMjI5LjQxMTc2NDcwNTg4MjM1IiBtYXJrZXItc3RhcnQ9InVybCgjaGVhZCkiIG1hcmtlci1lbmQ9InVybCgjaGVhZCkiIHN0cm9rZS13aWR0aD0iNSIgc3Ryb2tlLW9wYWNpdHk9IjAuNSIgc3Ryb2tlPSJibHVlIi8+JiN4YTsgICAgPHRleHQgZmlsbD0iYmx1ZSIgZm9udC1zaXplPSI1IiB5PSIyMzkuNDExNzY0NzA1ODgyMzUiIHg9IjE5Mi43MDIxNDg0Mzc1Ij4mI3hhOyAgICAgICAgMCYjeGE7ICAgIDwvdGV4dD4mI3hhOyAgICA8cGF0aCBkPSJNIDE5NC43MDIxNDg0Mzc1IDIyMy41Mjk0MTE3NjQ3MDU4OCBMIDE5NC43MDIxNDg0Mzc1IDIyMy41Mjk0MTE3NjQ3MDU4OCIgbWFya2VyLXN0YXJ0PSJ1cmwoI2hlYWQpIiBtYXJrZXItZW5kPSJ1cmwoI2hlYWQpIiBzdHJva2Utd2lkdGg9IjUiIHN0cm9rZS1vcGFjaXR5PSIwLjUiIHN0cm9rZT0iYmx1ZSIvPiYjeGE7ICAgIDx0ZXh0IGZpbGw9ImJsdWUiIGZvbnQtc2l6ZT0iNSIgeT0iMjMzLjUyOTQxMTc2NDcwNTg4IiB4PSIxOTIuNzAyMTQ4NDM3NSI+JiN4YTsgICAgICAgIDAmI3hhOyAgICA8L3RleHQ+JiN4YTsgICAgPHBhdGggZD0iTSAxOTQuNzAyMTQ4NDM3NSAyMTcuNjQ3MDU4ODIzNTI5NDIgTCAxOTQuNzAyMTQ4NDM3NSAyMTcuNjQ3MDU4ODIzNTI5NDIiIG1hcmtlci1zdGFydD0idXJsKCNoZWFkKSIgbWFya2VyLWVuZD0idXJsKCNoZWFkKSIgc3Ryb2tlLXdpZHRoPSI1IiBzdHJva2Utb3BhY2l0eT0iMC41IiBzdHJva2U9ImJsdWUiLz4mI3hhOyAgICA8dGV4dCBmaWxsPSJibHVlIiBmb250LXNpemU9IjUiIHk9IjIyNy42NDcwNTg4MjM1Mjk0MiIgeD0iMTkyLjcwMjE0ODQzNzUiPiYjeGE7ICAgICAgICAwJiN4YTsgICAgPC90ZXh0PiYjeGE7ICAgIDxwYXRoIGQ9Ik0gMTk0LjcwMjE0ODQzNzUgMjExLjc2NDcwNTg4MjM1Mjk2IEwgMTk0LjcwMjE0ODQzNzUgMjExLjc2NDcwNTg4MjM1Mjk2IiBtYXJrZXItc3RhcnQ9InVybCgjaGVhZCkiIG1hcmtlci1lbmQ9InVybCgjaGVhZCkiIHN0cm9rZS13aWR0aD0iNSIgc3Ryb2tlLW9wYWNpdHk9IjAuNSIgc3Ryb2tlPSJibHVlIi8+JiN4YTsgICAgPHRleHQgZmlsbD0iYmx1ZSIgZm9udC1zaXplPSI1IiB5PSIyMjEuNzY0NzA1ODgyMzUyOTYiIHg9IjE5Mi43MDIxNDg0Mzc1Ij4mI3hhOyAgICAgICAgMCYjeGE7ICAgIDwvdGV4dD4mI3hhOyAgICA8cGF0aCBkPSJNIDE5NC43MDIxNDg0Mzc1IDIwNS44ODIzNTI5NDExNzY0NiBMIDE5NC43MDIxNDg0Mzc1IDIwNS44ODIzNTI5NDExNzY0NiIgbWFya2VyLXN0YXJ0PSJ1cmwoI2hlYWQpIiBtYXJrZXItZW5kPSJ1cmwoI2hlYWQpIiBzdHJva2Utd2lkdGg9IjUiIHN0cm9rZS1vcGFjaXR5PSIwLjUiIHN0cm9rZT0iYmx1ZSIvPiYjeGE7ICAgIDx0ZXh0IGZpbGw9ImJsdWUiIGZvbnQtc2l6ZT0iNSIgeT0iMjE1Ljg4MjM1Mjk0MTE3NjQ2IiB4PSIxOTIuNzAyMTQ4NDM3NSI+JiN4YTsgICAgICAgIDAmI3hhOyAgICA8L3RleHQ+JiN4YTsgICAgPHBhdGggZD0iTSAxOTQuNzAyMTQ4NDM3NSAyMDAgTCAxOTQuNzAyMTQ4NDM3NSAyMDAiIG1hcmtlci1zdGFydD0idXJsKCNoZWFkKSIgbWFya2VyLWVuZD0idXJsKCNoZWFkKSIgc3Ryb2tlLXdpZHRoPSI1IiBzdHJva2Utb3BhY2l0eT0iMC41IiBzdHJva2U9ImJsdWUiLz4mI3hhOyAgICA8dGV4dCBmaWxsPSJibHVlIiBmb250LXNpemU9IjUiIHk9IjIxMCIgeD0iMTkyLjcwMjE0ODQzNzUiPiYjeGE7ICAgICAgICAwJiN4YTsgICAgPC90ZXh0PiYjeGE7ICAgIDxwYXRoIGQ9Ik0gMTk0LjcwMjE0ODQzNzUgMTk0LjExNzY0NzA1ODgyMzU0IEwgMTk0LjcwMjE0ODQzNzUgMTk0LjExNzY0NzA1ODgyMzU0IiBtYXJrZXItc3RhcnQ9InVybCgjaGVhZCkiIG1hcmtlci1lbmQ9InVybCgjaGVhZCkiIHN0cm9rZS13aWR0aD0iNSIgc3Ryb2tlLW9wYWNpdHk9IjAuNSIgc3Ryb2tlPSJibHVlIi8+JiN4YTsgICAgPHRleHQgZmlsbD0iYmx1ZSIgZm9udC1zaXplPSI1IiB5PSIyMDQuMTE3NjQ3MDU4ODIzNTQiIHg9IjE5Mi43MDIxNDg0Mzc1Ij4mI3hhOyAgICAgICAgMCYjeGE7ICAgIDwvdGV4dD4mI3hhOyAgICA8cGF0aCBkPSJNIDE5NC43MDIxNDg0Mzc1IDE4OC4yMzUyOTQxMTc2NDcwNyBMIDE5NC43MDIxNDg0Mzc1IDE4OC4yMzUyOTQxMTc2NDcwNyIgbWFya2VyLXN0YXJ0PSJ1cmwoI2hlYWQpIiBtYXJrZXItZW5kPSJ1cmwoI2hlYWQpIiBzdHJva2Utd2lkdGg9IjUiIHN0cm9rZS1vcGFjaXR5PSIwLjUiIHN0cm9rZT0iYmx1ZSIvPiYjeGE7ICAgIDx0ZXh0IGZpbGw9ImJsdWUiIGZvbnQtc2l6ZT0iNSIgeT0iMTk4LjIzNTI5NDExNzY0NzA3IiB4PSIxOTIuNzAyMTQ4NDM3NSI+JiN4YTsgICAgICAgIDAmI3hhOyAgICA8L3RleHQ+JiN4YTsgICAgPHBhdGggZD0iTSAxOTQuNzAyMTQ4NDM3NSAxODIuMzUyOTQxMTc2NDcwNiBMIDE5NC43MDIxNDg0Mzc1IDE4Mi4zNTI5NDExNzY0NzA2IiBtYXJrZXItc3RhcnQ9InVybCgjaGVhZCkiIG1hcmtlci1lbmQ9InVybCgjaGVhZCkiIHN0cm9rZS13aWR0aD0iNSIgc3Ryb2tlLW9wYWNpdHk9IjAuNSIgc3Ryb2tlPSJibHVlIi8+JiN4YTsgICAgPHRleHQgZmlsbD0iYmx1ZSIgZm9udC1zaXplPSI1IiB5PSIxOTIuMzUyOTQxMTc2NDcwNiIgeD0iMTkyLjcwMjE0ODQzNzUiPiYjeGE7ICAgICAgICAwJiN4YTsgICAgPC90ZXh0PiYjeGE7ICAgIDxwYXRoIGQ9Ik0gMTk0LjcwMjE0ODQzNzUgMTc2LjQ3MDU4ODIzNTI5NDEyIEwgMTk0LjcwMjE0ODQzNzUgMTc2LjQ3MDU4ODIzNTI5NDEyIiBtYXJrZXItc3RhcnQ9InVybCgjaGVhZCkiIG1hcmtlci1lbmQ9InVybCgjaGVhZCkiIHN0cm9rZS13aWR0aD0iNSIgc3Ryb2tlLW9wYWNpdHk9IjAuNSIgc3Ryb2tlPSJibHVlIi8+JiN4YTsgICAgPHRleHQgZmlsbD0iYmx1ZSIgZm9udC1zaXplPSI1IiB5PSIxODYuNDcwNTg4MjM1Mjk0MTIiIHg9IjE5Mi43MDIxNDg0Mzc1Ij4mI3hhOyAgICAgICAgMCYjeGE7ICAgIDwvdGV4dD4mI3hhOyAgICA8cGF0aCBkPSJNIDE5NC43MDIxNDg0Mzc1IDE3MC41ODgyMzUyOTQxMTc2NSBMIDE5NC43MDIxNDg0Mzc1IDE3MC41ODgyMzUyOTQxMTc2NSIgbWFya2VyLXN0YXJ0PSJ1cmwoI2hlYWQpIiBtYXJrZXItZW5kPSJ1cmwoI2hlYWQpIiBzdHJva2Utd2lkdGg9IjUiIHN0cm9rZS1vcGFjaXR5PSIwLjUiIHN0cm9rZT0iYmx1ZSIvPiYjeGE7ICAgIDx0ZXh0IGZpbGw9ImJsdWUiIGZvbnQtc2l6ZT0iNSIgeT0iMTgwLjU4ODIzNTI5NDExNzY1IiB4PSIxOTIuNzAyMTQ4NDM3NSI+JiN4YTsgICAgICAgIDAmI3hhOyAgICA8L3RleHQ+JiN4YTsgICAgPHBhdGggZD0iTSAxOTQuNzAyMTQ4NDM3NSAxNjQuNzA1ODgyMzUyOTQxMiBMIDE5NC43MDIxNDg0Mzc1IDE2NC43MDU4ODIzNTI5NDEyIiBtYXJrZXItc3RhcnQ9InVybCgjaGVhZCkiIG1hcmtlci1lbmQ9InVybCgjaGVhZCkiIHN0cm9rZS13aWR0aD0iNSIgc3Ryb2tlLW9wYWNpdHk9IjAuNSIgc3Ryb2tlPSJibHVlIi8+JiN4YTsgICAgPHRleHQgZmlsbD0iYmx1ZSIgZm9udC1zaXplPSI1IiB5PSIxNzQuNzA1ODgyMzUyOTQxMiIgeD0iMTkyLjcwMjE0ODQzNzUiPiYjeGE7ICAgICAgICAwJiN4YTsgICAgPC90ZXh0PiYjeGE7ICAgIDxwYXRoIGQ9Ik0gMTk0LjcwMjE0ODQzNzUgMTU4LjgyMzUyOTQxMTc2NDcgTCAxOTQuNzAyMTQ4NDM3NSAxNTguODIzNTI5NDExNzY0NyIgbWFya2VyLXN0YXJ0PSJ1cmwoI2hlYWQpIiBtYXJrZXItZW5kPSJ1cmwoI2hlYWQpIiBzdHJva2Utd2lkdGg9IjUiIHN0cm9rZS1vcGFjaXR5PSIwLjUiIHN0cm9rZT0iYmx1ZSIvPiYjeGE7ICAgIDx0ZXh0IGZpbGw9ImJsdWUiIGZvbnQtc2l6ZT0iNSIgeT0iMTY4LjgyMzUyOTQxMTc2NDciIHg9IjE5Mi43MDIxNDg0Mzc1Ij4mI3hhOyAgICAgICAgMCYjeGE7ICAgIDwvdGV4dD4mI3hhOyAgICA8cGF0aCBkPSJNIDE5NC43MDIxNDg0Mzc1IDE1Mi45NDExNzY0NzA1ODgyNiBMIDE5NC43MDIxNDg0Mzc1IDE1Mi45NDExNzY0NzA1ODgyNiIgbWFya2VyLXN0YXJ0PSJ1cmwoI2hlYWQpIiBtYXJrZXItZW5kPSJ1cmwoI2hlYWQpIiBzdHJva2Utd2lkdGg9IjUiIHN0cm9rZS1vcGFjaXR5PSIwLjUiIHN0cm9rZT0iYmx1ZSIvPiYjeGE7ICAgIDx0ZXh0IGZpbGw9ImJsdWUiIGZvbnQtc2l6ZT0iNSIgeT0iMTYyLjk0MTE3NjQ3MDU4ODI2IiB4PSIxOTIuNzAyMTQ4NDM3NSI+JiN4YTsgICAgICAgIDAmI3hhOyAgICA8L3RleHQ+JiN4YTsgICAgPHBhdGggZD0iTSAxOTQuNzAyMTQ4NDM3NSAxNDcuMDU4ODIzNTI5NDExNzcgTCAxOTQuNzAyMTQ4NDM3NSAxNDcuMDU4ODIzNTI5NDExNzciIG1hcmtlci1zdGFydD0idXJsKCNoZWFkKSIgbWFya2VyLWVuZD0idXJsKCNoZWFkKSIgc3Ryb2tlLXdpZHRoPSI1IiBzdHJva2Utb3BhY2l0eT0iMC41IiBzdHJva2U9ImJsdWUiLz4mI3hhOyAgICA8dGV4dCBmaWxsPSJibHVlIiBmb250LXNpemU9IjUiIHk9IjE1Ny4wNTg4MjM1Mjk0MTE3NyIgeD0iMTkyLjcwMjE0ODQzNzUiPiYjeGE7ICAgICAgICAwJiN4YTsgICAgPC90ZXh0PiYjeGE7ICAgIDxwYXRoIGQ9Ik0gMTk0LjcwMjE0ODQzNzUgMTQxLjE3NjQ3MDU4ODIzNTMgTCAxOTQuNzAyMTQ4NDM3NSAxNDEuMTc2NDcwNTg4MjM1MyIgbWFya2VyLXN0YXJ0PSJ1cmwoI2hlYWQpIiBtYXJrZXItZW5kPSJ1cmwoI2hlYWQpIiBzdHJva2Utd2lkdGg9IjUiIHN0cm9rZS1vcGFjaXR5PSIwLjUiIHN0cm9rZT0iYmx1ZSIvPiYjeGE7ICAgIDx0ZXh0IGZpbGw9ImJsdWUiIGZvbnQtc2l6ZT0iNSIgeT0iMTUxLjE3NjQ3MDU4ODIzNTMiIHg9IjE5Mi43MDIxNDg0Mzc1Ij4mI3hhOyAgICAgICAgMCYjeGE7ICAgIDwvdGV4dD4mI3hhOyAgICA8cGF0aCBkPSJNIDE5NC43MDIxNDg0Mzc1IDEzNS4yOTQxMTc2NDcwNTg4NCBMIDE5NC43MDIxNDg0Mzc1IDEzNS4yOTQxMTc2NDcwNTg4NCIgbWFya2VyLXN0YXJ0PSJ1cmwoI2hlYWQpIiBtYXJrZXItZW5kPSJ1cmwoI2hlYWQpIiBzdHJva2Utd2lkdGg9IjUiIHN0cm9rZS1vcGFjaXR5PSIwLjUiIHN0cm9rZT0iYmx1ZSIvPiYjeGE7ICAgIDx0ZXh0IGZpbGw9ImJsdWUiIGZvbnQtc2l6ZT0iNSIgeT0iMTQ1LjI5NDExNzY0NzA1ODg0IiB4PSIxOTIuNzAyMTQ4NDM3NSI+JiN4YTsgICAgICAgIDAmI3hhOyAgICA8L3RleHQ+JiN4YTsgICAgPHBhdGggZD0iTSAxOTQuNzAyMTQ4NDM3NSAxMjkuNDExNzY0NzA1ODgyMzggTCAxOTQuNzAyMTQ4NDM3NSAxMjkuNDExNzY0NzA1ODgyMzgiIG1hcmtlci1zdGFydD0idXJsKCNoZWFkKSIgbWFya2VyLWVuZD0idXJsKCNoZWFkKSIgc3Ryb2tlLXdpZHRoPSI1IiBzdHJva2Utb3BhY2l0eT0iMC41IiBzdHJva2U9ImJsdWUiLz4mI3hhOyAgICA8dGV4dCBmaWxsPSJibHVlIiBmb250LXNpemU9IjUiIHk9IjEzOS40MTE3NjQ3MDU4ODIzOCIgeD0iMTkyLjcwMjE0ODQzNzUiPiYjeGE7ICAgICAgICAwJiN4YTsgICAgPC90ZXh0PiYjeGE7ICAgIDxwYXRoIGQ9Ik0gMTk0LjcwMjE0ODQzNzUgMTIzLjUyOTQxMTc2NDcwNTkxIEwgMTk0LjcwMjE0ODQzNzUgMTIzLjUyOTQxMTc2NDcwNTkxIiBtYXJrZXItc3RhcnQ9InVybCgjaGVhZCkiIG1hcmtlci1lbmQ9InVybCgjaGVhZCkiIHN0cm9rZS13aWR0aD0iNSIgc3Ryb2tlLW9wYWNpdHk9IjAuNSIgc3Ryb2tlPSJibHVlIi8+JiN4YTsgICAgPHRleHQgZmlsbD0iYmx1ZSIgZm9udC1zaXplPSI1IiB5PSIxMzMuNTI5NDExNzY0NzA1OSIgeD0iMTkyLjcwMjE0ODQzNzUiPiYjeGE7ICAgICAgICAwJiN4YTsgICAgPC90ZXh0PiYjeGE7ICAgIDxwYXRoIGQ9Ik0gMTk0LjcwMjE0ODQzNzUgMTE3LjY0NzA1ODgyMzUyOTM5IEwgMTk0LjcwMjE0ODQzNzUgMTE3LjY0NzA1ODgyMzUyOTM5IiBtYXJrZXItc3RhcnQ9InVybCgjaGVhZCkiIG1hcmtlci1lbmQ9InVybCgjaGVhZCkiIHN0cm9rZS13aWR0aD0iNSIgc3Ryb2tlLW9wYWNpdHk9IjAuNSIgc3Ryb2tlPSJibHVlIi8+JiN4YTsgICAgPHRleHQgZmlsbD0iYmx1ZSIgZm9udC1zaXplPSI1IiB5PSIxMjcuNjQ3MDU4ODIzNTI5MzkiIHg9IjE5Mi43MDIxNDg0Mzc1Ij4mI3hhOyAgICAgICAgMCYjeGE7ICAgIDwvdGV4dD4mI3hhOyAgICA8cGF0aCBkPSJNIDE5NC43MDIxNDg0Mzc1IDExMS43NjQ3MDU4ODIzNTI5MyBMIDE5NC43MDIxNDg0Mzc1IDExMS43NjQ3MDU4ODIzNTI5MyIgbWFya2VyLXN0YXJ0PSJ1cmwoI2hlYWQpIiBtYXJrZXItZW5kPSJ1cmwoI2hlYWQpIiBzdHJva2Utd2lkdGg9IjUiIHN0cm9rZS1vcGFjaXR5PSIwLjUiIHN0cm9rZT0iYmx1ZSIvPiYjeGE7ICAgIDx0ZXh0IGZpbGw9ImJsdWUiIGZvbnQtc2l6ZT0iNSIgeT0iMTIxLjc2NDcwNTg4MjM1MjkzIiB4PSIxOTIuNzAyMTQ4NDM3NSI+JiN4YTsgICAgICAgIDAmI3hhOyAgICA8L3RleHQ+JiN4YTsgICAgPHBhdGggZD0iTSAxOTQuNzAyMTQ4NDM3NSAxMDUuODgyMzUyOTQxMTc2NDYgTCAxOTQuNzAyMTQ4NDM3NSAxMDUuODgyMzUyOTQxMTc2NDYiIG1hcmtlci1zdGFydD0idXJsKCNoZWFkKSIgbWFya2VyLWVuZD0idXJsKCNoZWFkKSIgc3Ryb2tlLXdpZHRoPSI1IiBzdHJva2Utb3BhY2l0eT0iMC41IiBzdHJva2U9ImJsdWUiLz4mI3hhOyAgICA8dGV4dCBmaWxsPSJibHVlIiBmb250LXNpemU9IjUiIHk9IjExNS44ODIzNTI5NDExNzY0NiIgeD0iMTkyLjcwMjE0ODQzNzUiPiYjeGE7ICAgICAgICAwJiN4YTsgICAgPC90ZXh0PiYjeGE7PC9zdmc+;" parent="1" vertex="1">
          <mxGeometry x="750" y="130" width="328" height="500" as="geometry" />
        </mxCell>
        <mxCell id="_Zf1_vYihe4TUAqM4NDD-11" value="" style="shape=image;verticalLabelPosition=bottom;labelBackgroundColor=default;verticalAlign=top;aspect=fixed;imageAspect=0;image=data:image/svg+xml,PHN2ZyB4bWxuczp4bGluaz0iaHR0cDovL3d3dy53My5vcmcvMTk5OS94bGluayIgeG1sbnM9Imh0dHA6Ly93d3cudzMub3JnLzIwMDAvc3ZnIiB2aWV3Qm94PSIwIDAgMzI4LjAyNzM0Mzc1IDUwMCI+JiN4YTsgICAgPHBhdGggdHJhbnNmb3JtPSJtYXRyaXgoMC4xNDY0ODQzNzUgMCAwIC0wLjE0NjQ4NDM3NSAxMDAgMzMxLjAwNTg1OTM3NSkiIGQ9Ik0gMTcwIDEwNDIgUSAyMjUgMTA1MSAyNTMuNSAxMTA0IFEgMjgyIDExNTcgMjgyIDEyMjYgUSAyODIgMTIzMyAyODEuNSAxMjM4LjUgUSAyODEgMTI0NCAyNzkgMTI1MSBMIDE3MCAxMjUxIEwgMTcwIDE0NjkgTCAzODQgMTQ2OSBMIDM4NCAxMjY4IFEgMzg0IDExNDAgMzMxIDEwNTAuNSBRIDI3OCA5NjEgMTcwIDk0OCBMIDE3MCAxMDQyIFoiLz4mI3hhOyAgICA8cmVjdCBzdHJva2U9ImdyZWVuIiBmaWxsPSJub25lIiBoZWlnaHQ9IjMwMCIgd2lkdGg9IjY2LjY1MDM5MDYyNSIgeT0iMTAwIiB4PSIxMDAiLz4mI3hhOyAgICA8cGF0aCB0cmFuc2Zvcm09Im1hdHJpeCgwLjE0NjQ4NDM3NSAwIDAgLTAuMTQ2NDg0Mzc1IDE2MS4zNzY5NTMxMjUgMzMxLjAwNTg1OTM3NSkiIGQ9Ik0gMTcwIDEwNDIgUSAyMjUgMTA1MSAyNTMuNSAxMTA0IFEgMjgyIDExNTcgMjgyIDEyMjYgUSAyODIgMTIzMyAyODEuNSAxMjM4LjUgUSAyODEgMTI0NCAyNzkgMTI1MSBMIDE3MCAxMjUxIEwgMTcwIDE0NjkgTCAzODQgMTQ2OSBMIDM4NCAxMjY4IFEgMzg0IDExNDAgMzMxIDEwNTAuNSBRIDI3OCA5NjEgMTcwIDk0OCBMIDE3MCAxMDQyIFoiLz4mI3hhOyAgICA8cmVjdCBzdHJva2U9ImdyZWVuIiBmaWxsPSJub25lIiBoZWlnaHQ9IjMwMCIgd2lkdGg9IjY2LjY1MDM5MDYyNSIgeT0iMTAwIiB4PSIxNjEuMzc2OTUzMTI1Ii8+JiN4YTsgICAgPHBhdGggZD0iTSAxMzMuMzI1MTk1MzEyNSAzOTQuMTE3NjQ3MDU4ODIzNTQgTCAxNDkuNzMxNDQ1MzEyNSAzOTQuMTE3NjQ3MDU4ODIzNTQiIG1hcmtlci1zdGFydD0idXJsKCNoZWFkKSIgbWFya2VyLWVuZD0idXJsKCNoZWFkKSIgc3Ryb2tlLXdpZHRoPSI1IiBzdHJva2Utb3BhY2l0eT0iMC41IiBzdHJva2U9InJlZCIvPiYjeGE7ICAgIDx0ZXh0IGZpbGw9InJlZCIgZm9udC1zaXplPSI1IiB5PSI0MDQuMTE3NjQ3MDU4ODIzNTQiIHg9IjEzOS41MjgzMjAzMTI1Ij4mI3hhOyAgICAgICAgMTEyJiN4YTsgICAgPC90ZXh0PiYjeGE7ICAgIDxwYXRoIGQ9Ik0gMTMzLjMyNTE5NTMxMjUgMzg4LjIzNTI5NDExNzY0NzEgTCAxNjEuMDEwNzQyMTg3NSAzODguMjM1Mjk0MTE3NjQ3MSIgbWFya2VyLXN0YXJ0PSJ1cmwoI2hlYWQpIiBtYXJrZXItZW5kPSJ1cmwoI2hlYWQpIiBzdHJva2Utd2lkdGg9IjUiIHN0cm9rZS1vcGFjaXR5PSIwLjUiIHN0cm9rZT0icmVkIi8+JiN4YTsgICAgPHRleHQgZmlsbD0icmVkIiBmb250LXNpemU9IjUiIHk9IjM5OC4yMzUyOTQxMTc2NDcxIiB4PSIxNDUuMTY3OTY4NzUiPiYjeGE7ICAgICAgICAxODkmI3hhOyAgICA8L3RleHQ+JiN4YTsgICAgPHBhdGggZD0iTSAxMzMuMzI1MTk1MzEyNSAzODIuMzUyOTQxMTc2NDcwNiBMIDEzNS45NjE5MTQwNjI1IDM4Mi4zNTI5NDExNzY0NzA2IiBtYXJrZXItc3RhcnQ9InVybCgjaGVhZCkiIG1hcmtlci1lbmQ9InVybCgjaGVhZCkiIHN0cm9rZS13aWR0aD0iNSIgc3Ryb2tlLW9wYWNpdHk9IjAuNSIgc3Ryb2tlPSJyZWQiLz4mI3hhOyAgICA8dGV4dCBmaWxsPSJyZWQiIGZvbnQtc2l6ZT0iNSIgeT0iMzkyLjM1Mjk0MTE3NjQ3MDYiIHg9IjEzMi42NDM1NTQ2ODc1Ij4mI3hhOyAgICAgICAgMTgmI3hhOyAgICA8L3RleHQ+JiN4YTsgICAgPHBhdGggZD0iTSAxMzMuMzI1MTk1MzEyNSAzNzYuNDcwNTg4MjM1Mjk0MTQgTCAxNTAuMDI0NDE0MDYyNSAzNzYuNDcwNTg4MjM1Mjk0MTQiIG1hcmtlci1zdGFydD0idXJsKCNoZWFkKSIgbWFya2VyLWVuZD0idXJsKCNoZWFkKSIgc3Ryb2tlLXdpZHRoPSI1IiBzdHJva2Utb3BhY2l0eT0iMC41IiBzdHJva2U9InJlZCIvPiYjeGE7ICAgIDx0ZXh0IGZpbGw9InJlZCIgZm9udC1zaXplPSI1IiB5PSIzODYuNDcwNTg4MjM1Mjk0MTQiIHg9IjEzOS42NzQ4MDQ2ODc1Ij4mI3hhOyAgICAgICAgMTE0JiN4YTsgICAgPC90ZXh0PiYjeGE7ICAgIDxwYXRoIGQ9Ik0gMTMzLjMyNTE5NTMxMjUgMzcwLjU4ODIzNTI5NDExNzcgTCAxNDkuODc3OTI5Njg3NSAzNzAuNTg4MjM1Mjk0MTE3NyIgbWFya2VyLXN0YXJ0PSJ1cmwoI2hlYWQpIiBtYXJrZXItZW5kPSJ1cmwoI2hlYWQpIiBzdHJva2Utd2lkdGg9IjUiIHN0cm9rZS1vcGFjaXR5PSIwLjUiIHN0cm9rZT0icmVkIi8+JiN4YTsgICAgPHRleHQgZmlsbD0icmVkIiBmb250LXNpemU9IjUiIHk9IjM4MC41ODgyMzUyOTQxMTc3IiB4PSIxMzkuNjAxNTYyNSI+JiN4YTsgICAgICAgIDExMyYjeGE7ICAgIDwvdGV4dD4mI3hhOyAgICA8cGF0aCBkPSJNIDEzMy4zMjUxOTUzMTI1IDM2NC43MDU4ODIzNTI5NDExNiBMIDE1NS40NDQzMzU5Mzc1IDM2NC43MDU4ODIzNTI5NDExNiIgbWFya2VyLXN0YXJ0PSJ1cmwoI2hlYWQpIiBtYXJrZXItZW5kPSJ1cmwoI2hlYWQpIiBzdHJva2Utd2lkdGg9IjUiIHN0cm9rZS1vcGFjaXR5PSIwLjUiIHN0cm9rZT0icmVkIi8+JiN4YTsgICAgPHRleHQgZmlsbD0icmVkIiBmb250LXNpemU9IjUiIHk9IjM3NC43MDU4ODIzNTI5NDExNiIgeD0iMTQyLjM4NDc2NTYyNSI+JiN4YTsgICAgICAgIDE1MSYjeGE7ICAgIDwvdGV4dD4mI3hhOyAgICA8cGF0aCBkPSJNIDEzMy4zMjUxOTUzMTI1IDM1OC44MjM1Mjk0MTE3NjQ3IEwgMTQ5Ljg3NzkyOTY4NzUgMzU4LjgyMzUyOTQxMTc2NDciIG1hcmtlci1zdGFydD0idXJsKCNoZWFkKSIgbWFya2VyLWVuZD0idXJsKCNoZWFkKSIgc3Ryb2tlLXdpZHRoPSI1IiBzdHJva2Utb3BhY2l0eT0iMC41IiBzdHJva2U9InJlZCIvPiYjeGE7ICAgIDx0ZXh0IGZpbGw9InJlZCIgZm9udC1zaXplPSI1IiB5PSIzNjguODIzNTI5NDExNzY0NyIgeD0iMTM5LjYwMTU2MjUiPiYjeGE7ICAgICAgICAxMTMmI3hhOyAgICA8L3RleHQ+JiN4YTsgICAgPHBhdGggZD0iTSAxMzMuMzI1MTk1MzEyNSAzNTIuOTQxMTc2NDcwNTg4MjMgTCAxNDkuODc3OTI5Njg3NSAzNTIuOTQxMTc2NDcwNTg4MjMiIG1hcmtlci1zdGFydD0idXJsKCNoZWFkKSIgbWFya2VyLWVuZD0idXJsKCNoZWFkKSIgc3Ryb2tlLXdpZHRoPSI1IiBzdHJva2Utb3BhY2l0eT0iMC41IiBzdHJva2U9InJlZCIvPiYjeGE7ICAgIDx0ZXh0IGZpbGw9InJlZCIgZm9udC1zaXplPSI1IiB5PSIzNjIuOTQxMTc2NDcwNTg4MjMiIHg9IjEzOS42MDE1NjI1Ij4mI3hhOyAgICAgICAgMTEzJiN4YTsgICAgPC90ZXh0PiYjeGE7ICAgIDxwYXRoIGQ9Ik0gMTMzLjMyNTE5NTMxMjUgMzQ3LjA1ODgyMzUyOTQxMTc3IEwgMTU4LjM3NDAyMzQzNzUgMzQ3LjA1ODgyMzUyOTQxMTc3IiBtYXJrZXItc3RhcnQ9InVybCgjaGVhZCkiIG1hcmtlci1lbmQ9InVybCgjaGVhZCkiIHN0cm9rZS13aWR0aD0iNSIgc3Ryb2tlLW9wYWNpdHk9IjAuNSIgc3Ryb2tlPSJyZWQiLz4mI3hhOyAgICA8dGV4dCBmaWxsPSJyZWQiIGZvbnQtc2l6ZT0iNSIgeT0iMzU3LjA1ODgyMzUyOTQxMTc3IiB4PSIxNDMuODQ5NjA5Mzc1Ij4mI3hhOyAgICAgICAgMTcxJiN4YTsgICAgPC90ZXh0PiYjeGE7ICAgIDxwYXRoIGQ9Ik0gMTMzLjMyNTE5NTMxMjUgMzQxLjE3NjQ3MDU4ODIzNTMgTCAxNDkuODc3OTI5Njg3NSAzNDEuMTc2NDcwNTg4MjM1MyIgbWFya2VyLXN0YXJ0PSJ1cmwoI2hlYWQpIiBtYXJrZXItZW5kPSJ1cmwoI2hlYWQpIiBzdHJva2Utd2lkdGg9IjUiIHN0cm9rZS1vcGFjaXR5PSIwLjUiIHN0cm9rZT0icmVkIi8+JiN4YTsgICAgPHRleHQgZmlsbD0icmVkIiBmb250LXNpemU9IjUiIHk9IjM1MS4xNzY0NzA1ODgyMzUzIiB4PSIxMzkuNjAxNTYyNSI+JiN4YTsgICAgICAgIDExMyYjeGE7ICAgIDwvdGV4dD4mI3hhOyAgICA8cGF0aCBkPSJNIDEzMy4zMjUxOTUzMTI1IDMzNS4yOTQxMTc2NDcwNTg4NCBMIDE1OC4zNzQwMjM0Mzc1IDMzNS4yOTQxMTc2NDcwNTg4NCIgbWFya2VyLXN0YXJ0PSJ1cmwoI2hlYWQpIiBtYXJrZXItZW5kPSJ1cmwoI2hlYWQpIiBzdHJva2Utd2lkdGg9IjUiIHN0cm9rZS1vcGFjaXR5PSIwLjUiIHN0cm9rZT0icmVkIi8+JiN4YTsgICAgPHRleHQgZmlsbD0icmVkIiBmb250LXNpemU9IjUiIHk9IjM0NS4yOTQxMTc2NDcwNTg4NCIgeD0iMTQzLjg0OTYwOTM3NSI+JiN4YTsgICAgICAgIDE3MSYjeGE7ICAgIDwvdGV4dD4mI3hhOyAgICA8cGF0aCBkPSJNIDEzMy4zMjUxOTUzMTI1IDMyOS40MTE3NjQ3MDU4ODIzIEwgMTUyLjk1NDEwMTU2MjUgMzI5LjQxMTc2NDcwNTg4MjMiIG1hcmtlci1zdGFydD0idXJsKCNoZWFkKSIgbWFya2VyLWVuZD0idXJsKCNoZWFkKSIgc3Ryb2tlLXdpZHRoPSI1IiBzdHJva2Utb3BhY2l0eT0iMC41IiBzdHJva2U9InJlZCIvPiYjeGE7ICAgIDx0ZXh0IGZpbGw9InJlZCIgZm9udC1zaXplPSI1IiB5PSIzMzkuNDExNzY0NzA1ODgyMyIgeD0iMTQxLjEzOTY0ODQzNzUiPiYjeGE7ICAgICAgICAxMzQmI3hhOyAgICA8L3RleHQ+JiN4YTsgICAgPHBhdGggZD0iTSAxMzMuMzI1MTk1MzEyNSAzMjMuNTI5NDExNzY0NzA1ODYgTCAxNDkuNzMxNDQ1MzEyNSAzMjMuNTI5NDExNzY0NzA1ODYiIG1hcmtlci1zdGFydD0idXJsKCNoZWFkKSIgbWFya2VyLWVuZD0idXJsKCNoZWFkKSIgc3Ryb2tlLXdpZHRoPSI1IiBzdHJva2Utb3BhY2l0eT0iMC41IiBzdHJva2U9InJlZCIvPiYjeGE7ICAgIDx0ZXh0IGZpbGw9InJlZCIgZm9udC1zaXplPSI1IiB5PSIzMzMuNTI5NDExNzY0NzA1ODYiIHg9IjEzOS41MjgzMjAzMTI1Ij4mI3hhOyAgICAgICAgMTEyJiN4YTsgICAgPC90ZXh0PiYjeGE7ICAgIDxwYXRoIGQ9Ik0gMTMzLjMyNTE5NTMxMjUgMzE3LjY0NzA1ODgyMzUyOTQgTCAxNTYuOTA5MTc5Njg3NSAzMTcuNjQ3MDU4ODIzNTI5NCIgbWFya2VyLXN0YXJ0PSJ1cmwoI2hlYWQpIiBtYXJrZXItZW5kPSJ1cmwoI2hlYWQpIiBzdHJva2Utd2lkdGg9IjUiIHN0cm9rZS1vcGFjaXR5PSIwLjUiIHN0cm9rZT0icmVkIi8+JiN4YTsgICAgPHRleHQgZmlsbD0icmVkIiBmb250LXNpemU9IjUiIHk9IjMyNy42NDcwNTg4MjM1Mjk0IiB4PSIxNDMuMTE3MTg3NSI+JiN4YTsgICAgICAgIDE2MSYjeGE7ICAgIDwvdGV4dD4mI3hhOyAgICA8cGF0aCBkPSJNIDEzMy4zMjUxOTUzMTI1IDMxMS43NjQ3MDU4ODIzNTI5IEwgMTU4LjA4MTA1NDY4NzUgMzExLjc2NDcwNTg4MjM1MjkiIG1hcmtlci1zdGFydD0idXJsKCNoZWFkKSIgbWFya2VyLWVuZD0idXJsKCNoZWFkKSIgc3Ryb2tlLXdpZHRoPSI1IiBzdHJva2Utb3BhY2l0eT0iMC41IiBzdHJva2U9InJlZCIvPiYjeGE7ICAgIDx0ZXh0IGZpbGw9InJlZCIgZm9udC1zaXplPSI1IiB5PSIzMjEuNzY0NzA1ODgyMzUyOSIgeD0iMTQzLjcwMzEyNSI+JiN4YTsgICAgICAgIDE2OSYjeGE7ICAgIDwvdGV4dD4mI3hhOyAgICA8cGF0aCBkPSJNIDEzMy4zMjUxOTUzMTI1IDMwNS44ODIzNTI5NDExNzY0NiBMIDE1NS40NDQzMzU5Mzc1IDMwNS44ODIzNTI5NDExNzY0NiIgbWFya2VyLXN0YXJ0PSJ1cmwoI2hlYWQpIiBtYXJrZXItZW5kPSJ1cmwoI2hlYWQpIiBzdHJva2Utd2lkdGg9IjUiIHN0cm9rZS1vcGFjaXR5PSIwLjUiIHN0cm9rZT0icmVkIi8+JiN4YTsgICAgPHRleHQgZmlsbD0icmVkIiBmb250LXNpemU9IjUiIHk9IjMxNS44ODIzNTI5NDExNzY0NiIgeD0iMTQyLjM4NDc2NTYyNSI+JiN4YTsgICAgICAgIDE1MSYjeGE7ICAgIDwvdGV4dD4mI3hhOyAgICA8cGF0aCBkPSJNIDEzMy4zMjUxOTUzMTI1IDMwMCBMIDE2OS43OTk4MDQ2ODc1IDMwMCIgbWFya2VyLXN0YXJ0PSJ1cmwoI2hlYWQpIiBtYXJrZXItZW5kPSJ1cmwoI2hlYWQpIiBzdHJva2Utd2lkdGg9IjUiIHN0cm9rZS1vcGFjaXR5PSIwLjUiIHN0cm9rZT0icmVkIi8+JiN4YTsgICAgPHRleHQgZmlsbD0icmVkIiBmb250LXNpemU9IjUiIHk9IjMxMCIgeD0iMTQ5LjU2MjUiPiYjeGE7ICAgICAgICAyNDkmI3hhOyAgICA8L3RleHQ+JiN4YTsgICAgPHBhdGggZD0iTSAxMzMuMzI1MTk1MzEyNSAyOTQuMTE3NjQ3MDU4ODIzNTQgTCAxNjkuNzk5ODA0Njg3NSAyOTQuMTE3NjQ3MDU4ODIzNTQiIG1hcmtlci1zdGFydD0idXJsKCNoZWFkKSIgbWFya2VyLWVuZD0idXJsKCNoZWFkKSIgc3Ryb2tlLXdpZHRoPSI1IiBzdHJva2Utb3BhY2l0eT0iMC41IiBzdHJva2U9InJlZCIvPiYjeGE7ICAgIDx0ZXh0IGZpbGw9InJlZCIgZm9udC1zaXplPSI1IiB5PSIzMDQuMTE3NjQ3MDU4ODIzNTQiIHg9IjE0OS41NjI1Ij4mI3hhOyAgICAgICAgMjQ5JiN4YTsgICAgPC90ZXh0PiYjeGE7ICAgIDxwYXRoIGQ9Ik0gMTMzLjMyNTE5NTMxMjUgMjg4LjIzNTI5NDExNzY0NzEgTCAxNDkuODc3OTI5Njg3NSAyODguMjM1Mjk0MTE3NjQ3MSIgbWFya2VyLXN0YXJ0PSJ1cmwoI2hlYWQpIiBtYXJrZXItZW5kPSJ1cmwoI2hlYWQpIiBzdHJva2Utd2lkdGg9IjUiIHN0cm9rZS1vcGFjaXR5PSIwLjUiIHN0cm9rZT0icmVkIi8+JiN4YTsgICAgPHRleHQgZmlsbD0icmVkIiBmb250LXNpemU9IjUiIHk9IjI5OC4yMzUyOTQxMTc2NDcxIiB4PSIxMzkuNjAxNTYyNSI+JiN4YTsgICAgICAgIDExMyYjeGE7ICAgIDwvdGV4dD4mI3hhOyAgICA8cGF0aCBkPSJNIDEzMy4zMjUxOTUzMTI1IDI4Mi4zNTI5NDExNzY0NzA2IEwgMTQ2LjgwMTc1NzgxMjUgMjgyLjM1Mjk0MTE3NjQ3MDYiIG1hcmtlci1zdGFydD0idXJsKCNoZWFkKSIgbWFya2VyLWVuZD0idXJsKCNoZWFkKSIgc3Ryb2tlLXdpZHRoPSI1IiBzdHJva2Utb3BhY2l0eT0iMC41IiBzdHJva2U9InJlZCIvPiYjeGE7ICAgIDx0ZXh0IGZpbGw9InJlZCIgZm9udC1zaXplPSI1IiB5PSIyOTIuMzUyOTQxMTc2NDcwNiIgeD0iMTM4LjA2MzQ3NjU2MjUiPiYjeGE7ICAgICAgICA5MiYjeGE7ICAgIDwvdGV4dD4mI3hhOyAgICA8cGF0aCBkPSJNIDEzMy4zMjUxOTUzMTI1IDI3Ni40NzA1ODgyMzUyOTQxNCBMIDE1OC41MjA1MDc4MTI1IDI3Ni40NzA1ODgyMzUyOTQxNCIgbWFya2VyLXN0YXJ0PSJ1cmwoI2hlYWQpIiBtYXJrZXItZW5kPSJ1cmwoI2hlYWQpIiBzdHJva2Utd2lkdGg9IjUiIHN0cm9rZS1vcGFjaXR5PSIwLjUiIHN0cm9rZT0icmVkIi8+JiN4YTsgICAgPHRleHQgZmlsbD0icmVkIiBmb250LXNpemU9IjUiIHk9IjI4Ni40NzA1ODgyMzUyOTQxNCIgeD0iMTQzLjkyMjg1MTU2MjUiPiYjeGE7ICAgICAgICAxNzImI3hhOyAgICA8L3RleHQ+JiN4YTsgICAgPHBhdGggZD0iTSAxMzMuMzI1MTk1MzEyNSAyNzAuNTg4MjM1Mjk0MTE3NyBMIDE1OC4zNzQwMjM0Mzc1IDI3MC41ODgyMzUyOTQxMTc3IiBtYXJrZXItc3RhcnQ9InVybCgjaGVhZCkiIG1hcmtlci1lbmQ9InVybCgjaGVhZCkiIHN0cm9rZS13aWR0aD0iNSIgc3Ryb2tlLW9wYWNpdHk9IjAuNSIgc3Ryb2tlPSJyZWQiLz4mI3hhOyAgICA8dGV4dCBmaWxsPSJyZWQiIGZvbnQtc2l6ZT0iNSIgeT0iMjgwLjU4ODIzNTI5NDExNzciIHg9IjE0My44NDk2MDkzNzUiPiYjeGE7ICAgICAgICAxNzEmI3hhOyAgICA8L3RleHQ+JiN4YTsgICAgPHBhdGggZD0iTSAxMzMuMzI1MTk1MzEyNSAyNjQuNzA1ODgyMzUyOTQxMiBMIDE1MC4wMjQ0MTQwNjI1IDI2NC43MDU4ODIzNTI5NDEyIiBtYXJrZXItc3RhcnQ9InVybCgjaGVhZCkiIG1hcmtlci1lbmQ9InVybCgjaGVhZCkiIHN0cm9rZS13aWR0aD0iNSIgc3Ryb2tlLW9wYWNpdHk9IjAuNSIgc3Ryb2tlPSJyZWQiLz4mI3hhOyAgICA8dGV4dCBmaWxsPSJyZWQiIGZvbnQtc2l6ZT0iNSIgeT0iMjc0LjcwNTg4MjM1Mjk0MTIiIHg9IjEzOS42NzQ4MDQ2ODc1Ij4mI3hhOyAgICAgICAgMTE0JiN4YTsgICAgPC90ZXh0PiYjeGE7ICAgIDxwYXRoIGQ9Ik0gMTMzLjMyNTE5NTMxMjUgMjU4LjgyMzUyOTQxMTc2NDcgTCAxNTguMzc0MDIzNDM3NSAyNTguODIzNTI5NDExNzY0NyIgbWFya2VyLXN0YXJ0PSJ1cmwoI2hlYWQpIiBtYXJrZXItZW5kPSJ1cmwoI2hlYWQpIiBzdHJva2Utd2lkdGg9IjUiIHN0cm9rZS1vcGFjaXR5PSIwLjUiIHN0cm9rZT0icmVkIi8+JiN4YTsgICAgPHRleHQgZmlsbD0icmVkIiBmb250LXNpemU9IjUiIHk9IjI2OC44MjM1Mjk0MTE3NjQ3IiB4PSIxNDMuODQ5NjA5Mzc1Ij4mI3hhOyAgICAgICAgMTcxJiN4YTsgICAgPC90ZXh0PiYjeGE7ICAgIDxwYXRoIGQ9Ik0gMTMzLjMyNTE5NTMxMjUgMjUyLjk0MTE3NjQ3MDU4ODIzIEwgMTU4LjUyMDUwNzgxMjUgMjUyLjk0MTE3NjQ3MDU4ODIzIiBtYXJrZXItc3RhcnQ9InVybCgjaGVhZCkiIG1hcmtlci1lbmQ9InVybCgjaGVhZCkiIHN0cm9rZS13aWR0aD0iNSIgc3Ryb2tlLW9wYWNpdHk9IjAuNSIgc3Ryb2tlPSJyZWQiLz4mI3hhOyAgICA8dGV4dCBmaWxsPSJyZWQiIGZvbnQtc2l6ZT0iNSIgeT0iMjYyLjk0MTE3NjQ3MDU4ODIzIiB4PSIxNDMuOTIyODUxNTYyNSI+JiN4YTsgICAgICAgIDE3MiYjeGE7ICAgIDwvdGV4dD4mI3hhOyAgICA8cGF0aCBkPSJNIDEzMy4zMjUxOTUzMTI1IDI0Ny4wNTg4MjM1Mjk0MTE3NyBMIDE0OS43MzE0NDUzMTI1IDI0Ny4wNTg4MjM1Mjk0MTE3NyIgbWFya2VyLXN0YXJ0PSJ1cmwoI2hlYWQpIiBtYXJrZXItZW5kPSJ1cmwoI2hlYWQpIiBzdHJva2Utd2lkdGg9IjUiIHN0cm9rZS1vcGFjaXR5PSIwLjUiIHN0cm9rZT0icmVkIi8+JiN4YTsgICAgPHRleHQgZmlsbD0icmVkIiBmb250LXNpemU9IjUiIHk9IjI1Ny4wNTg4MjM1Mjk0MTE3NyIgeD0iMTM5LjUyODMyMDMxMjUiPiYjeGE7ICAgICAgICAxMTImI3hhOyAgICA8L3RleHQ+JiN4YTsgICAgPHBhdGggZD0iTSAxMzMuMzI1MTk1MzEyNSAyNDEuMTc2NDcwNTg4MjM1MyBMIDE0OS44Nzc5Mjk2ODc1IDI0MS4xNzY0NzA1ODgyMzUzIiBtYXJrZXItc3RhcnQ9InVybCgjaGVhZCkiIG1hcmtlci1lbmQ9InVybCgjaGVhZCkiIHN0cm9rZS13aWR0aD0iNSIgc3Ryb2tlLW9wYWNpdHk9IjAuNSIgc3Ryb2tlPSJyZWQiLz4mI3hhOyAgICA8dGV4dCBmaWxsPSJyZWQiIGZvbnQtc2l6ZT0iNSIgeT0iMjUxLjE3NjQ3MDU4ODIzNTMiIHg9IjEzOS42MDE1NjI1Ij4mI3hhOyAgICAgICAgMTEzJiN4YTsgICAgPC90ZXh0PiYjeGE7ICAgIDxwYXRoIGQ9Ik0gMTMzLjMyNTE5NTMxMjUgMjM1LjI5NDExNzY0NzA1ODggTCAxNTguMzc0MDIzNDM3NSAyMzUuMjk0MTE3NjQ3MDU4OCIgbWFya2VyLXN0YXJ0PSJ1cmwoI2hlYWQpIiBtYXJrZXItZW5kPSJ1cmwoI2hlYWQpIiBzdHJva2Utd2lkdGg9IjUiIHN0cm9rZS1vcGFjaXR5PSIwLjUiIHN0cm9rZT0icmVkIi8+JiN4YTsgICAgPHRleHQgZmlsbD0icmVkIiBmb250LXNpemU9IjUiIHk9IjI0NS4yOTQxMTc2NDcwNTg4IiB4PSIxNDMuODQ5NjA5Mzc1Ij4mI3hhOyAgICAgICAgMTcxJiN4YTsgICAgPC90ZXh0PiYjeGE7ICAgIDxwYXRoIGQ9Ik0gMTMzLjMyNTE5NTMxMjUgMjI5LjQxMTc2NDcwNTg4MjM1IEwgMTU4LjUyMDUwNzgxMjUgMjI5LjQxMTc2NDcwNTg4MjM1IiBtYXJrZXItc3RhcnQ9InVybCgjaGVhZCkiIG1hcmtlci1lbmQ9InVybCgjaGVhZCkiIHN0cm9rZS13aWR0aD0iNSIgc3Ryb2tlLW9wYWNpdHk9IjAuNSIgc3Ryb2tlPSJyZWQiLz4mI3hhOyAgICA8dGV4dCBmaWxsPSJyZWQiIGZvbnQtc2l6ZT0iNSIgeT0iMjM5LjQxMTc2NDcwNTg4MjM1IiB4PSIxNDMuOTIyODUxNTYyNSI+JiN4YTsgICAgICAgIDE3MiYjeGE7ICAgIDwvdGV4dD4mI3hhOyAgICA8cGF0aCBkPSJNIDEzMy4zMjUxOTUzMTI1IDIyMy41Mjk0MTE3NjQ3MDU4OCBMIDE1OC4yMjc1MzkwNjI1IDIyMy41Mjk0MTE3NjQ3MDU4OCIgbWFya2VyLXN0YXJ0PSJ1cmwoI2hlYWQpIiBtYXJrZXItZW5kPSJ1cmwoI2hlYWQpIiBzdHJva2Utd2lkdGg9IjUiIHN0cm9rZS1vcGFjaXR5PSIwLjUiIHN0cm9rZT0icmVkIi8+JiN4YTsgICAgPHRleHQgZmlsbD0icmVkIiBmb250LXNpemU9IjUiIHk9IjIzMy41Mjk0MTE3NjQ3MDU4OCIgeD0iMTQzLjc3NjM2NzE4NzUiPiYjeGE7ICAgICAgICAxNzAmI3hhOyAgICA8L3RleHQ+JiN4YTsgICAgPHBhdGggZD0iTSAxMzMuMzI1MTk1MzEyNSAyMTcuNjQ3MDU4ODIzNTI5NDIgTCAxNjkuNzk5ODA0Njg3NSAyMTcuNjQ3MDU4ODIzNTI5NDIiIG1hcmtlci1zdGFydD0idXJsKCNoZWFkKSIgbWFya2VyLWVuZD0idXJsKCNoZWFkKSIgc3Ryb2tlLXdpZHRoPSI1IiBzdHJva2Utb3BhY2l0eT0iMC41IiBzdHJva2U9InJlZCIvPiYjeGE7ICAgIDx0ZXh0IGZpbGw9InJlZCIgZm9udC1zaXplPSI1IiB5PSIyMjcuNjQ3MDU4ODIzNTI5NDIiIHg9IjE0OS41NjI1Ij4mI3hhOyAgICAgICAgMjQ5JiN4YTsgICAgPC90ZXh0PiYjeGE7ICAgIDxwYXRoIGQ9Ik0gMTMzLjMyNTE5NTMxMjUgMjExLjc2NDcwNTg4MjM1Mjk2IEwgMTQ5Ljg3NzkyOTY4NzUgMjExLjc2NDcwNTg4MjM1Mjk2IiBtYXJrZXItc3RhcnQ9InVybCgjaGVhZCkiIG1hcmtlci1lbmQ9InVybCgjaGVhZCkiIHN0cm9rZS13aWR0aD0iNSIgc3Ryb2tlLW9wYWNpdHk9IjAuNSIgc3Ryb2tlPSJyZWQiLz4mI3hhOyAgICA8dGV4dCBmaWxsPSJyZWQiIGZvbnQtc2l6ZT0iNSIgeT0iMjIxLjc2NDcwNTg4MjM1Mjk2IiB4PSIxMzkuNjAxNTYyNSI+JiN4YTsgICAgICAgIDExMyYjeGE7ICAgIDwvdGV4dD4mI3hhOyAgICA8cGF0aCBkPSJNIDEzMy4zMjUxOTUzMTI1IDIwNS44ODIzNTI5NDExNzY0NiBMIDE1NS41OTA4MjAzMTI1IDIwNS44ODIzNTI5NDExNzY0NiIgbWFya2VyLXN0YXJ0PSJ1cmwoI2hlYWQpIiBtYXJrZXItZW5kPSJ1cmwoI2hlYWQpIiBzdHJva2Utd2lkdGg9IjUiIHN0cm9rZS1vcGFjaXR5PSIwLjUiIHN0cm9rZT0icmVkIi8+JiN4YTsgICAgPHRleHQgZmlsbD0icmVkIiBmb250LXNpemU9IjUiIHk9IjIxNS44ODIzNTI5NDExNzY0NiIgeD0iMTQyLjQ1ODAwNzgxMjUiPiYjeGE7ICAgICAgICAxNTImI3hhOyAgICA8L3RleHQ+JiN4YTsgICAgPHBhdGggZD0iTSAxMzMuMzI1MTk1MzEyNSAyMDAgTCAxNTguMjI3NTM5MDYyNSAyMDAiIG1hcmtlci1zdGFydD0idXJsKCNoZWFkKSIgbWFya2VyLWVuZD0idXJsKCNoZWFkKSIgc3Ryb2tlLXdpZHRoPSI1IiBzdHJva2Utb3BhY2l0eT0iMC41IiBzdHJva2U9InJlZCIvPiYjeGE7ICAgIDx0ZXh0IGZpbGw9InJlZCIgZm9udC1zaXplPSI1IiB5PSIyMTAiIHg9IjE0My43NzYzNjcxODc1Ij4mI3hhOyAgICAgICAgMTcwJiN4YTsgICAgPC90ZXh0PiYjeGE7ICAgIDxwYXRoIGQ9Ik0gMTMzLjMyNTE5NTMxMjUgMTk0LjExNzY0NzA1ODgyMzU0IEwgMTU4LjM3NDAyMzQzNzUgMTk0LjExNzY0NzA1ODgyMzU0IiBtYXJrZXItc3RhcnQ9InVybCgjaGVhZCkiIG1hcmtlci1lbmQ9InVybCgjaGVhZCkiIHN0cm9rZS13aWR0aD0iNSIgc3Ryb2tlLW9wYWNpdHk9IjAuNSIgc3Ryb2tlPSJyZWQiLz4mI3hhOyAgICA8dGV4dCBmaWxsPSJyZWQiIGZvbnQtc2l6ZT0iNSIgeT0iMjA0LjExNzY0NzA1ODgyMzU0IiB4PSIxNDMuODQ5NjA5Mzc1Ij4mI3hhOyAgICAgICAgMTcxJiN4YTsgICAgPC90ZXh0PiYjeGE7ICAgIDxwYXRoIGQ9Ik0gMTMzLjMyNTE5NTMxMjUgMTg4LjIzNTI5NDExNzY0NzA3IEwgMTQ0LjMxMTUyMzQzNzUgMTg4LjIzNTI5NDExNzY0NzA3IiBtYXJrZXItc3RhcnQ9InVybCgjaGVhZCkiIG1hcmtlci1lbmQ9InVybCgjaGVhZCkiIHN0cm9rZS13aWR0aD0iNSIgc3Ryb2tlLW9wYWNpdHk9IjAuNSIgc3Ryb2tlPSJyZWQiLz4mI3hhOyAgICA8dGV4dCBmaWxsPSJyZWQiIGZvbnQtc2l6ZT0iNSIgeT0iMTk4LjIzNTI5NDExNzY0NzA3IiB4PSIxMzYuODE4MzU5Mzc1Ij4mI3hhOyAgICAgICAgNzUmI3hhOyAgICA8L3RleHQ+JiN4YTsgICAgPHBhdGggZD0iTSAxMzMuMzI1MTk1MzEyNSAxODIuMzUyOTQxMTc2NDcwNiBMIDE0OS44Nzc5Mjk2ODc1IDE4Mi4zNTI5NDExNzY0NzA2IiBtYXJrZXItc3RhcnQ9InVybCgjaGVhZCkiIG1hcmtlci1lbmQ9InVybCgjaGVhZCkiIHN0cm9rZS13aWR0aD0iNSIgc3Ryb2tlLW9wYWNpdHk9IjAuNSIgc3Ryb2tlPSJyZWQiLz4mI3hhOyAgICA8dGV4dCBmaWxsPSJyZWQiIGZvbnQtc2l6ZT0iNSIgeT0iMTkyLjM1Mjk0MTE3NjQ3MDYiIHg9IjEzOS42MDE1NjI1Ij4mI3hhOyAgICAgICAgMTEzJiN4YTsgICAgPC90ZXh0PiYjeGE7ICAgIDxwYXRoIGQ9Ik0gMTMzLjMyNTE5NTMxMjUgMTc2LjQ3MDU4ODIzNTI5NDEyIEwgMTUyLjk1NDEwMTU2MjUgMTc2LjQ3MDU4ODIzNTI5NDEyIiBtYXJrZXItc3RhcnQ9InVybCgjaGVhZCkiIG1hcmtlci1lbmQ9InVybCgjaGVhZCkiIHN0cm9rZS13aWR0aD0iNSIgc3Ryb2tlLW9wYWNpdHk9IjAuNSIgc3Ryb2tlPSJyZWQiLz4mI3hhOyAgICA8dGV4dCBmaWxsPSJyZWQiIGZvbnQtc2l6ZT0iNSIgeT0iMTg2LjQ3MDU4ODIzNTI5NDEyIiB4PSIxNDEuMTM5NjQ4NDM3NSI+JiN4YTsgICAgICAgIDEzNCYjeGE7ICAgIDwvdGV4dD4mI3hhOyAgICA8cGF0aCBkPSJNIDEzMy4zMjUxOTUzMTI1IDE3MC41ODgyMzUyOTQxMTc2NSBMIDE2Ni43MjM2MzI4MTI1IDE3MC41ODgyMzUyOTQxMTc2NSIgbWFya2VyLXN0YXJ0PSJ1cmwoI2hlYWQpIiBtYXJrZXItZW5kPSJ1cmwoI2hlYWQpIiBzdHJva2Utd2lkdGg9IjUiIHN0cm9rZS1vcGFjaXR5PSIwLjUiIHN0cm9rZT0icmVkIi8+JiN4YTsgICAgPHRleHQgZmlsbD0icmVkIiBmb250LXNpemU9IjUiIHk9IjE4MC41ODgyMzUyOTQxMTc2NSIgeD0iMTQ4LjAyNDQxNDA2MjUiPiYjeGE7ICAgICAgICAyMjgmI3hhOyAgICA8L3RleHQ+JiN4YTsgICAgPHBhdGggZD0iTSAxMzMuMzI1MTk1MzEyNSAxNjQuNzA1ODgyMzUyOTQxMiBMIDE0Ny4wOTQ3MjY1NjI1IDE2NC43MDU4ODIzNTI5NDEyIiBtYXJrZXItc3RhcnQ9InVybCgjaGVhZCkiIG1hcmtlci1lbmQ9InVybCgjaGVhZCkiIHN0cm9rZS13aWR0aD0iNSIgc3Ryb2tlLW9wYWNpdHk9IjAuNSIgc3Ryb2tlPSJyZWQiLz4mI3hhOyAgICA8dGV4dCBmaWxsPSJyZWQiIGZvbnQtc2l6ZT0iNSIgeT0iMTc0LjcwNTg4MjM1Mjk0MTIiIHg9IjEzOC4yMDk5NjA5Mzc1Ij4mI3hhOyAgICAgICAgOTQmI3hhOyAgICA8L3RleHQ+JiN4YTsgICAgPHBhdGggZD0iTSAxMzMuMzI1MTk1MzEyNSAxNTguODIzNTI5NDExNzY0NyBMIDE0MS41MjgzMjAzMTI1IDE1OC44MjM1Mjk0MTE3NjQ3IiBtYXJrZXItc3RhcnQ9InVybCgjaGVhZCkiIG1hcmtlci1lbmQ9InVybCgjaGVhZCkiIHN0cm9rZS13aWR0aD0iNSIgc3Ryb2tlLW9wYWNpdHk9IjAuNSIgc3Ryb2tlPSJyZWQiLz4mI3hhOyAgICA8dGV4dCBmaWxsPSJyZWQiIGZvbnQtc2l6ZT0iNSIgeT0iMTY4LjgyMzUyOTQxMTc2NDciIHg9IjEzNS40MjY3NTc4MTI1Ij4mI3hhOyAgICAgICAgNTYmI3hhOyAgICA8L3RleHQ+JiN4YTsgICAgPHBhdGggZD0iTSAxMzMuMzI1MTk1MzEyNSAxNTIuOTQxMTc2NDcwNTg4MjYgTCAxNDEuNTI4MzIwMzEyNSAxNTIuOTQxMTc2NDcwNTg4MjYiIG1hcmtlci1zdGFydD0idXJsKCNoZWFkKSIgbWFya2VyLWVuZD0idXJsKCNoZWFkKSIgc3Ryb2tlLXdpZHRoPSI1IiBzdHJva2Utb3BhY2l0eT0iMC41IiBzdHJva2U9InJlZCIvPiYjeGE7ICAgIDx0ZXh0IGZpbGw9InJlZCIgZm9udC1zaXplPSI1IiB5PSIxNjIuOTQxMTc2NDcwNTg4MjYiIHg9IjEzNS40MjY3NTc4MTI1Ij4mI3hhOyAgICAgICAgNTYmI3hhOyAgICA8L3RleHQ+JiN4YTsgICAgPHBhdGggZD0iTSAxMzMuMzI1MTk1MzEyNSAxNDcuMDU4ODIzNTI5NDExNzcgTCAxMzguNzQ1MTE3MTg3NSAxNDcuMDU4ODIzNTI5NDExNzciIG1hcmtlci1zdGFydD0idXJsKCNoZWFkKSIgbWFya2VyLWVuZD0idXJsKCNoZWFkKSIgc3Ryb2tlLXdpZHRoPSI1IiBzdHJva2Utb3BhY2l0eT0iMC41IiBzdHJva2U9InJlZCIvPiYjeGE7ICAgIDx0ZXh0IGZpbGw9InJlZCIgZm9udC1zaXplPSI1IiB5PSIxNTcuMDU4ODIzNTI5NDExNzciIHg9IjEzNC4wMzUxNTYyNSI+JiN4YTsgICAgICAgIDM3JiN4YTsgICAgPC90ZXh0PiYjeGE7ICAgIDxwYXRoIGQ9Ik0gMTMzLjMyNTE5NTMxMjUgMTQxLjE3NjQ3MDU4ODIzNTMgTCAxNTUuNDQ0MzM1OTM3NSAxNDEuMTc2NDcwNTg4MjM1MyIgbWFya2VyLXN0YXJ0PSJ1cmwoI2hlYWQpIiBtYXJrZXItZW5kPSJ1cmwoI2hlYWQpIiBzdHJva2Utd2lkdGg9IjUiIHN0cm9rZS1vcGFjaXR5PSIwLjUiIHN0cm9rZT0icmVkIi8+JiN4YTsgICAgPHRleHQgZmlsbD0icmVkIiBmb250LXNpemU9IjUiIHk9IjE1MS4xNzY0NzA1ODgyMzUzIiB4PSIxNDIuMzg0NzY1NjI1Ij4mI3hhOyAgICAgICAgMTUxJiN4YTsgICAgPC90ZXh0PiYjeGE7ICAgIDxwYXRoIGQ9Ik0gMTMzLjMyNTE5NTMxMjUgMTM1LjI5NDExNzY0NzA1ODg0IEwgMTQ5Ljg3NzkyOTY4NzUgMTM1LjI5NDExNzY0NzA1ODg0IiBtYXJrZXItc3RhcnQ9InVybCgjaGVhZCkiIG1hcmtlci1lbmQ9InVybCgjaGVhZCkiIHN0cm9rZS13aWR0aD0iNSIgc3Ryb2tlLW9wYWNpdHk9IjAuNSIgc3Ryb2tlPSJyZWQiLz4mI3hhOyAgICA8dGV4dCBmaWxsPSJyZWQiIGZvbnQtc2l6ZT0iNSIgeT0iMTQ1LjI5NDExNzY0NzA1ODg0IiB4PSIxMzkuNjAxNTYyNSI+JiN4YTsgICAgICAgIDExMyYjeGE7ICAgIDwvdGV4dD4mI3hhOyAgICA8cGF0aCBkPSJNIDEzMy4zMjUxOTUzMTI1IDEyOS40MTE3NjQ3MDU4ODIzOCBMIDE1Ni45MDkxNzk2ODc1IDEyOS40MTE3NjQ3MDU4ODIzOCIgbWFya2VyLXN0YXJ0PSJ1cmwoI2hlYWQpIiBtYXJrZXItZW5kPSJ1cmwoI2hlYWQpIiBzdHJva2Utd2lkdGg9IjUiIHN0cm9rZS1vcGFjaXR5PSIwLjUiIHN0cm9rZT0icmVkIi8+JiN4YTsgICAgPHRleHQgZmlsbD0icmVkIiBmb250LXNpemU9IjUiIHk9IjEzOS40MTE3NjQ3MDU4ODIzOCIgeD0iMTQzLjExNzE4NzUiPiYjeGE7ICAgICAgICAxNjEmI3hhOyAgICA8L3RleHQ+JiN4YTsgICAgPHBhdGggZD0iTSAxMzMuMzI1MTk1MzEyNSAxMjMuNTI5NDExNzY0NzA1OTEgTCAxNTguMjI3NTM5MDYyNSAxMjMuNTI5NDExNzY0NzA1OTEiIG1hcmtlci1zdGFydD0idXJsKCNoZWFkKSIgbWFya2VyLWVuZD0idXJsKCNoZWFkKSIgc3Ryb2tlLXdpZHRoPSI1IiBzdHJva2Utb3BhY2l0eT0iMC41IiBzdHJva2U9InJlZCIvPiYjeGE7ICAgIDx0ZXh0IGZpbGw9InJlZCIgZm9udC1zaXplPSI1IiB5PSIxMzMuNTI5NDExNzY0NzA1OSIgeD0iMTQzLjc3NjM2NzE4NzUiPiYjeGE7ICAgICAgICAxNzAmI3hhOyAgICA8L3RleHQ+JiN4YTsgICAgPHBhdGggZD0iTSAxMzMuMzI1MTk1MzEyNSAxMTcuNjQ3MDU4ODIzNTI5MzkgTCA2OS4xNjUwMzkwNjI1IDExNy42NDcwNTg4MjM1MjkzOSIgbWFya2VyLXN0YXJ0PSJ1cmwoI2hlYWQpIiBtYXJrZXItZW5kPSJ1cmwoI2hlYWQpIiBzdHJva2Utd2lkdGg9IjUiIHN0cm9rZS1vcGFjaXR5PSIwLjUiIHN0cm9rZT0icmVkIi8+JiN4YTsgICAgPHRleHQgZmlsbD0icmVkIiBmb250LXNpemU9IjUiIHk9IjEyNy42NDcwNTg4MjM1MjkzOSIgeD0iOTkuMjQ1MTE3MTg3NSI+JiN4YTsgICAgICAgIC00MzgmI3hhOyAgICA8L3RleHQ+JiN4YTsgICAgPHBhdGggZD0iTSAxMzMuMzI1MTk1MzEyNSAxMTEuNzY0NzA1ODgyMzUyOTMgTCAxNTUuNDQ0MzM1OTM3NSAxMTEuNzY0NzA1ODgyMzUyOTMiIG1hcmtlci1zdGFydD0idXJsKCNoZWFkKSIgbWFya2VyLWVuZD0idXJsKCNoZWFkKSIgc3Ryb2tlLXdpZHRoPSI1IiBzdHJva2Utb3BhY2l0eT0iMC41IiBzdHJva2U9InJlZCIvPiYjeGE7ICAgIDx0ZXh0IGZpbGw9InJlZCIgZm9udC1zaXplPSI1IiB5PSIxMjEuNzY0NzA1ODgyMzUyOTMiIHg9IjE0Mi4zODQ3NjU2MjUiPiYjeGE7ICAgICAgICAxNTEmI3hhOyAgICA8L3RleHQ+JiN4YTsgICAgPHBhdGggZD0iTSAxMzMuMzI1MTk1MzEyNSAxMDUuODgyMzUyOTQxMTc2NDYgTCAxNDkuODc3OTI5Njg3NSAxMDUuODgyMzUyOTQxMTc2NDYiIG1hcmtlci1zdGFydD0idXJsKCNoZWFkKSIgbWFya2VyLWVuZD0idXJsKCNoZWFkKSIgc3Ryb2tlLXdpZHRoPSI1IiBzdHJva2Utb3BhY2l0eT0iMC41IiBzdHJva2U9InJlZCIvPiYjeGE7ICAgIDx0ZXh0IGZpbGw9InJlZCIgZm9udC1zaXplPSI1IiB5PSIxMTUuODgyMzUyOTQxMTc2NDYiIHg9IjEzOS42MDE1NjI1Ij4mI3hhOyAgICAgICAgMTEzJiN4YTsgICAgPC90ZXh0PiYjeGE7ICAgIDxwYXRoIGQ9Ik0gMTc4LjI5NTg5ODQzNzUgMzk0LjExNzY0NzA1ODgyMzU0IEwgMTk0LjcwMjE0ODQzNzUgMzk0LjExNzY0NzA1ODgyMzU0IiBtYXJrZXItc3RhcnQ9InVybCgjaGVhZCkiIG1hcmtlci1lbmQ9InVybCgjaGVhZCkiIHN0cm9rZS13aWR0aD0iNSIgc3Ryb2tlLW9wYWNpdHk9IjAuNSIgc3Ryb2tlPSJibHVlIi8+JiN4YTsgICAgPHRleHQgZmlsbD0iYmx1ZSIgZm9udC1zaXplPSI1IiB5PSI0MDQuMTE3NjQ3MDU4ODIzNTQiIHg9IjE4NC40OTkwMjM0Mzc1Ij4mI3hhOyAgICAgICAgMTEyJiN4YTsgICAgPC90ZXh0PiYjeGE7ICAgIDxwYXRoIGQ9Ik0gMTY3LjAxNjYwMTU2MjUgMzg4LjIzNTI5NDExNzY0NzEgTCAxOTQuNzAyMTQ4NDM3NSAzODguMjM1Mjk0MTE3NjQ3MSIgbWFya2VyLXN0YXJ0PSJ1cmwoI2hlYWQpIiBtYXJrZXItZW5kPSJ1cmwoI2hlYWQpIiBzdHJva2Utd2lkdGg9IjUiIHN0cm9rZS1vcGFjaXR5PSIwLjUiIHN0cm9rZT0iYmx1ZSIvPiYjeGE7ICAgIDx0ZXh0IGZpbGw9ImJsdWUiIGZvbnQtc2l6ZT0iNSIgeT0iMzk4LjIzNTI5NDExNzY0NzEiIHg9IjE3OC44NTkzNzUiPiYjeGE7ICAgICAgICAxODkmI3hhOyAgICA8L3RleHQ+JiN4YTsgICAgPHBhdGggZD0iTSAxOTIuMDY1NDI5Njg3NSAzODIuMzUyOTQxMTc2NDcwNiBMIDE5NC43MDIxNDg0Mzc1IDM4Mi4zNTI5NDExNzY0NzA2IiBtYXJrZXItc3RhcnQ9InVybCgjaGVhZCkiIG1hcmtlci1lbmQ9InVybCgjaGVhZCkiIHN0cm9rZS13aWR0aD0iNSIgc3Ryb2tlLW9wYWNpdHk9IjAuNSIgc3Ryb2tlPSJibHVlIi8+JiN4YTsgICAgPHRleHQgZmlsbD0iYmx1ZSIgZm9udC1zaXplPSI1IiB5PSIzOTIuMzUyOTQxMTc2NDcwNiIgeD0iMTkxLjM4Mzc4OTA2MjUiPiYjeGE7ICAgICAgICAxOCYjeGE7ICAgIDwvdGV4dD4mI3hhOyAgICA8cGF0aCBkPSJNIDE3OC4wMDI5Mjk2ODc1IDM3Ni40NzA1ODgyMzUyOTQxNCBMIDE5NC43MDIxNDg0Mzc1IDM3Ni40NzA1ODgyMzUyOTQxNCIgbWFya2VyLXN0YXJ0PSJ1cmwoI2hlYWQpIiBtYXJrZXItZW5kPSJ1cmwoI2hlYWQpIiBzdHJva2Utd2lkdGg9IjUiIHN0cm9rZS1vcGFjaXR5PSIwLjUiIHN0cm9rZT0iYmx1ZSIvPiYjeGE7ICAgIDx0ZXh0IGZpbGw9ImJsdWUiIGZvbnQtc2l6ZT0iNSIgeT0iMzg2LjQ3MDU4ODIzNTI5NDE0IiB4PSIxODQuMzUyNTM5MDYyNSI+JiN4YTsgICAgICAgIDExNCYjeGE7ICAgIDwvdGV4dD4mI3hhOyAgICA8cGF0aCBkPSJNIDE3OC4xNDk0MTQwNjI1IDM3MC41ODgyMzUyOTQxMTc3IEwgMTk0LjcwMjE0ODQzNzUgMzcwLjU4ODIzNTI5NDExNzciIG1hcmtlci1zdGFydD0idXJsKCNoZWFkKSIgbWFya2VyLWVuZD0idXJsKCNoZWFkKSIgc3Ryb2tlLXdpZHRoPSI1IiBzdHJva2Utb3BhY2l0eT0iMC41IiBzdHJva2U9ImJsdWUiLz4mI3hhOyAgICA8dGV4dCBmaWxsPSJibHVlIiBmb250LXNpemU9IjUiIHk9IjM4MC41ODgyMzUyOTQxMTc3IiB4PSIxODQuNDI1NzgxMjUiPiYjeGE7ICAgICAgICAxMTMmI3hhOyAgICA8L3RleHQ+JiN4YTsgICAgPHBhdGggZD0iTSAxNzIuNTgzMDA3ODEyNSAzNjQuNzA1ODgyMzUyOTQxMTYgTCAxOTQuNzAyMTQ4NDM3NSAzNjQuNzA1ODgyMzUyOTQxMTYiIG1hcmtlci1zdGFydD0idXJsKCNoZWFkKSIgbWFya2VyLWVuZD0idXJsKCNoZWFkKSIgc3Ryb2tlLXdpZHRoPSI1IiBzdHJva2Utb3BhY2l0eT0iMC41IiBzdHJva2U9ImJsdWUiLz4mI3hhOyAgICA8dGV4dCBmaWxsPSJibHVlIiBmb250LXNpemU9IjUiIHk9IjM3NC43MDU4ODIzNTI5NDExNiIgeD0iMTgxLjY0MjU3ODEyNSI+JiN4YTsgICAgICAgIDE1MSYjeGE7ICAgIDwvdGV4dD4mI3hhOyAgICA8cGF0aCBkPSJNIDE3OC4xNDk0MTQwNjI1IDM1OC44MjM1Mjk0MTE3NjQ3IEwgMTk0LjcwMjE0ODQzNzUgMzU4LjgyMzUyOTQxMTc2NDciIG1hcmtlci1zdGFydD0idXJsKCNoZWFkKSIgbWFya2VyLWVuZD0idXJsKCNoZWFkKSIgc3Ryb2tlLXdpZHRoPSI1IiBzdHJva2Utb3BhY2l0eT0iMC41IiBzdHJva2U9ImJsdWUiLz4mI3hhOyAgICA8dGV4dCBmaWxsPSJibHVlIiBmb250LXNpemU9IjUiIHk9IjM2OC44MjM1Mjk0MTE3NjQ3IiB4PSIxODQuNDI1NzgxMjUiPiYjeGE7ICAgICAgICAxMTMmI3hhOyAgICA8L3RleHQ+JiN4YTsgICAgPHBhdGggZD0iTSAxNzguMTQ5NDE0MDYyNSAzNTIuOTQxMTc2NDcwNTg4MjMgTCAxOTQuNzAyMTQ4NDM3NSAzNTIuOTQxMTc2NDcwNTg4MjMiIG1hcmtlci1zdGFydD0idXJsKCNoZWFkKSIgbWFya2VyLWVuZD0idXJsKCNoZWFkKSIgc3Ryb2tlLXdpZHRoPSI1IiBzdHJva2Utb3BhY2l0eT0iMC41IiBzdHJva2U9ImJsdWUiLz4mI3hhOyAgICA8dGV4dCBmaWxsPSJibHVlIiBmb250LXNpemU9IjUiIHk9IjM2Mi45NDExNzY0NzA1ODgyMyIgeD0iMTg0LjQyNTc4MTI1Ij4mI3hhOyAgICAgICAgMTEzJiN4YTsgICAgPC90ZXh0PiYjeGE7ICAgIDxwYXRoIGQ9Ik0gMTY5LjY1MzMyMDMxMjUgMzQ3LjA1ODgyMzUyOTQxMTc3IEwgMTk0LjcwMjE0ODQzNzUgMzQ3LjA1ODgyMzUyOTQxMTc3IiBtYXJrZXItc3RhcnQ9InVybCgjaGVhZCkiIG1hcmtlci1lbmQ9InVybCgjaGVhZCkiIHN0cm9rZS13aWR0aD0iNSIgc3Ryb2tlLW9wYWNpdHk9IjAuNSIgc3Ryb2tlPSJibHVlIi8+JiN4YTsgICAgPHRleHQgZmlsbD0iYmx1ZSIgZm9udC1zaXplPSI1IiB5PSIzNTcuMDU4ODIzNTI5NDExNzciIHg9IjE4MC4xNzc3MzQzNzUiPiYjeGE7ICAgICAgICAxNzEmI3hhOyAgICA8L3RleHQ+JiN4YTsgICAgPHBhdGggZD0iTSAxNzguMTQ5NDE0MDYyNSAzNDEuMTc2NDcwNTg4MjM1MyBMIDE5NC43MDIxNDg0Mzc1IDM0MS4xNzY0NzA1ODgyMzUzIiBtYXJrZXItc3RhcnQ9InVybCgjaGVhZCkiIG1hcmtlci1lbmQ9InVybCgjaGVhZCkiIHN0cm9rZS13aWR0aD0iNSIgc3Ryb2tlLW9wYWNpdHk9IjAuNSIgc3Ryb2tlPSJibHVlIi8+JiN4YTsgICAgPHRleHQgZmlsbD0iYmx1ZSIgZm9udC1zaXplPSI1IiB5PSIzNTEuMTc2NDcwNTg4MjM1MyIgeD0iMTg0LjQyNTc4MTI1Ij4mI3hhOyAgICAgICAgMTEzJiN4YTsgICAgPC90ZXh0PiYjeGE7ICAgIDxwYXRoIGQ9Ik0gMTY5LjY1MzMyMDMxMjUgMzM1LjI5NDExNzY0NzA1ODg0IEwgMTk0LjcwMjE0ODQzNzUgMzM1LjI5NDExNzY0NzA1ODg0IiBtYXJrZXItc3RhcnQ9InVybCgjaGVhZCkiIG1hcmtlci1lbmQ9InVybCgjaGVhZCkiIHN0cm9rZS13aWR0aD0iNSIgc3Ryb2tlLW9wYWNpdHk9IjAuNSIgc3Ryb2tlPSJibHVlIi8+JiN4YTsgICAgPHRleHQgZmlsbD0iYmx1ZSIgZm9udC1zaXplPSI1IiB5PSIzNDUuMjk0MTE3NjQ3MDU4ODQiIHg9IjE4MC4xNzc3MzQzNzUiPiYjeGE7ICAgICAgICAxNzEmI3hhOyAgICA8L3RleHQ+JiN4YTsgICAgPHBhdGggZD0iTSAxNzUuMDczMjQyMTg3NSAzMjkuNDExNzY0NzA1ODgyMyBMIDE5NC43MDIxNDg0Mzc1IDMyOS40MTE3NjQ3MDU4ODIzIiBtYXJrZXItc3RhcnQ9InVybCgjaGVhZCkiIG1hcmtlci1lbmQ9InVybCgjaGVhZCkiIHN0cm9rZS13aWR0aD0iNSIgc3Ryb2tlLW9wYWNpdHk9IjAuNSIgc3Ryb2tlPSJibHVlIi8+JiN4YTsgICAgPHRleHQgZmlsbD0iYmx1ZSIgZm9udC1zaXplPSI1IiB5PSIzMzkuNDExNzY0NzA1ODgyMyIgeD0iMTgyLjg4NzY5NTMxMjUiPiYjeGE7ICAgICAgICAxMzQmI3hhOyAgICA8L3RleHQ+JiN4YTsgICAgPHBhdGggZD0iTSAxNzguMjk1ODk4NDM3NSAzMjMuNTI5NDExNzY0NzA1ODYgTCAxOTQuNzAyMTQ4NDM3NSAzMjMuNTI5NDExNzY0NzA1ODYiIG1hcmtlci1zdGFydD0idXJsKCNoZWFkKSIgbWFya2VyLWVuZD0idXJsKCNoZWFkKSIgc3Ryb2tlLXdpZHRoPSI1IiBzdHJva2Utb3BhY2l0eT0iMC41IiBzdHJva2U9ImJsdWUiLz4mI3hhOyAgICA8dGV4dCBmaWxsPSJibHVlIiBmb250LXNpemU9IjUiIHk9IjMzMy41Mjk0MTE3NjQ3MDU4NiIgeD0iMTg0LjQ5OTAyMzQzNzUiPiYjeGE7ICAgICAgICAxMTImI3hhOyAgICA8L3RleHQ+JiN4YTsgICAgPHBhdGggZD0iTSAxNzEuMTE4MTY0MDYyNSAzMTcuNjQ3MDU4ODIzNTI5NCBMIDE5NC43MDIxNDg0Mzc1IDMxNy42NDcwNTg4MjM1Mjk0IiBtYXJrZXItc3RhcnQ9InVybCgjaGVhZCkiIG1hcmtlci1lbmQ9InVybCgjaGVhZCkiIHN0cm9rZS13aWR0aD0iNSIgc3Ryb2tlLW9wYWNpdHk9IjAuNSIgc3Ryb2tlPSJibHVlIi8+JiN4YTsgICAgPHRleHQgZmlsbD0iYmx1ZSIgZm9udC1zaXplPSI1IiB5PSIzMjcuNjQ3MDU4ODIzNTI5NCIgeD0iMTgwLjkxMDE1NjI1Ij4mI3hhOyAgICAgICAgMTYxJiN4YTsgICAgPC90ZXh0PiYjeGE7ICAgIDxwYXRoIGQ9Ik0gMTY5Ljk0NjI4OTA2MjUgMzExLjc2NDcwNTg4MjM1MjkgTCAxOTQuNzAyMTQ4NDM3NSAzMTEuNzY0NzA1ODgyMzUyOSIgbWFya2VyLXN0YXJ0PSJ1cmwoI2hlYWQpIiBtYXJrZXItZW5kPSJ1cmwoI2hlYWQpIiBzdHJva2Utd2lkdGg9IjUiIHN0cm9rZS1vcGFjaXR5PSIwLjUiIHN0cm9rZT0iYmx1ZSIvPiYjeGE7ICAgIDx0ZXh0IGZpbGw9ImJsdWUiIGZvbnQtc2l6ZT0iNSIgeT0iMzIxLjc2NDcwNTg4MjM1MjkiIHg9IjE4MC4zMjQyMTg3NSI+JiN4YTsgICAgICAgIDE2OSYjeGE7ICAgIDwvdGV4dD4mI3hhOyAgICA8cGF0aCBkPSJNIDE3Mi41ODMwMDc4MTI1IDMwNS44ODIzNTI5NDExNzY0NiBMIDE5NC43MDIxNDg0Mzc1IDMwNS44ODIzNTI5NDExNzY0NiIgbWFya2VyLXN0YXJ0PSJ1cmwoI2hlYWQpIiBtYXJrZXItZW5kPSJ1cmwoI2hlYWQpIiBzdHJva2Utd2lkdGg9IjUiIHN0cm9rZS1vcGFjaXR5PSIwLjUiIHN0cm9rZT0iYmx1ZSIvPiYjeGE7ICAgIDx0ZXh0IGZpbGw9ImJsdWUiIGZvbnQtc2l6ZT0iNSIgeT0iMzE1Ljg4MjM1Mjk0MTE3NjQ2IiB4PSIxODEuNjQyNTc4MTI1Ij4mI3hhOyAgICAgICAgMTUxJiN4YTsgICAgPC90ZXh0PiYjeGE7ICAgIDxwYXRoIGQ9Ik0gMTU4LjIyNzUzOTA2MjUgMzAwIEwgMTk0LjcwMjE0ODQzNzUgMzAwIiBtYXJrZXItc3RhcnQ9InVybCgjaGVhZCkiIG1hcmtlci1lbmQ9InVybCgjaGVhZCkiIHN0cm9rZS13aWR0aD0iNSIgc3Ryb2tlLW9wYWNpdHk9IjAuNSIgc3Ryb2tlPSJibHVlIi8+JiN4YTsgICAgPHRleHQgZmlsbD0iYmx1ZSIgZm9udC1zaXplPSI1IiB5PSIzMTAiIHg9IjE3NC40NjQ4NDM3NSI+JiN4YTsgICAgICAgIDI0OSYjeGE7ICAgIDwvdGV4dD4mI3hhOyAgICA8cGF0aCBkPSJNIDE1OC4yMjc1MzkwNjI1IDI5NC4xMTc2NDcwNTg4MjM1NCBMIDE5NC43MDIxNDg0Mzc1IDI5NC4xMTc2NDcwNTg4MjM1NCIgbWFya2VyLXN0YXJ0PSJ1cmwoI2hlYWQpIiBtYXJrZXItZW5kPSJ1cmwoI2hlYWQpIiBzdHJva2Utd2lkdGg9IjUiIHN0cm9rZS1vcGFjaXR5PSIwLjUiIHN0cm9rZT0iYmx1ZSIvPiYjeGE7ICAgIDx0ZXh0IGZpbGw9ImJsdWUiIGZvbnQtc2l6ZT0iNSIgeT0iMzA0LjExNzY0NzA1ODgyMzU0IiB4PSIxNzQuNDY0ODQzNzUiPiYjeGE7ICAgICAgICAyNDkmI3hhOyAgICA8L3RleHQ+JiN4YTsgICAgPHBhdGggZD0iTSAxNzguMTQ5NDE0MDYyNSAyODguMjM1Mjk0MTE3NjQ3MSBMIDE5NC43MDIxNDg0Mzc1IDI4OC4yMzUyOTQxMTc2NDcxIiBtYXJrZXItc3RhcnQ9InVybCgjaGVhZCkiIG1hcmtlci1lbmQ9InVybCgjaGVhZCkiIHN0cm9rZS13aWR0aD0iNSIgc3Ryb2tlLW9wYWNpdHk9IjAuNSIgc3Ryb2tlPSJibHVlIi8+JiN4YTsgICAgPHRleHQgZmlsbD0iYmx1ZSIgZm9udC1zaXplPSI1IiB5PSIyOTguMjM1Mjk0MTE3NjQ3MSIgeD0iMTg0LjQyNTc4MTI1Ij4mI3hhOyAgICAgICAgMTEzJiN4YTsgICAgPC90ZXh0PiYjeGE7ICAgIDxwYXRoIGQ9Ik0gMTgxLjIyNTU4NTkzNzUgMjgyLjM1Mjk0MTE3NjQ3MDYgTCAxOTQuNzAyMTQ4NDM3NSAyODIuMzUyOTQxMTc2NDcwNiIgbWFya2VyLXN0YXJ0PSJ1cmwoI2hlYWQpIiBtYXJrZXItZW5kPSJ1cmwoI2hlYWQpIiBzdHJva2Utd2lkdGg9IjUiIHN0cm9rZS1vcGFjaXR5PSIwLjUiIHN0cm9rZT0iYmx1ZSIvPiYjeGE7ICAgIDx0ZXh0IGZpbGw9ImJsdWUiIGZvbnQtc2l6ZT0iNSIgeT0iMjkyLjM1Mjk0MTE3NjQ3MDYiIHg9IjE4NS45NjM4NjcxODc1Ij4mI3hhOyAgICAgICAgOTImI3hhOyAgICA8L3RleHQ+JiN4YTsgICAgPHBhdGggZD0iTSAxNjkuNTA2ODM1OTM3NSAyNzYuNDcwNTg4MjM1Mjk0MTQgTCAxOTQuNzAyMTQ4NDM3NSAyNzYuNDcwNTg4MjM1Mjk0MTQiIG1hcmtlci1zdGFydD0idXJsKCNoZWFkKSIgbWFya2VyLWVuZD0idXJsKCNoZWFkKSIgc3Ryb2tlLXdpZHRoPSI1IiBzdHJva2Utb3BhY2l0eT0iMC41IiBzdHJva2U9ImJsdWUiLz4mI3hhOyAgICA8dGV4dCBmaWxsPSJibHVlIiBmb250LXNpemU9IjUiIHk9IjI4Ni40NzA1ODgyMzUyOTQxNCIgeD0iMTgwLjEwNDQ5MjE4NzUiPiYjeGE7ICAgICAgICAxNzImI3hhOyAgICA8L3RleHQ+JiN4YTsgICAgPHBhdGggZD0iTSAxNjkuNjUzMzIwMzEyNSAyNzAuNTg4MjM1Mjk0MTE3NyBMIDE5NC43MDIxNDg0Mzc1IDI3MC41ODgyMzUyOTQxMTc3IiBtYXJrZXItc3RhcnQ9InVybCgjaGVhZCkiIG1hcmtlci1lbmQ9InVybCgjaGVhZCkiIHN0cm9rZS13aWR0aD0iNSIgc3Ryb2tlLW9wYWNpdHk9IjAuNSIgc3Ryb2tlPSJibHVlIi8+JiN4YTsgICAgPHRleHQgZmlsbD0iYmx1ZSIgZm9udC1zaXplPSI1IiB5PSIyODAuNTg4MjM1Mjk0MTE3NyIgeD0iMTgwLjE3NzczNDM3NSI+JiN4YTsgICAgICAgIDE3MSYjeGE7ICAgIDwvdGV4dD4mI3hhOyAgICA8cGF0aCBkPSJNIDE3OC4wMDI5Mjk2ODc1IDI2NC43MDU4ODIzNTI5NDEyIEwgMTk0LjcwMjE0ODQzNzUgMjY0LjcwNTg4MjM1Mjk0MTIiIG1hcmtlci1zdGFydD0idXJsKCNoZWFkKSIgbWFya2VyLWVuZD0idXJsKCNoZWFkKSIgc3Ryb2tlLXdpZHRoPSI1IiBzdHJva2Utb3BhY2l0eT0iMC41IiBzdHJva2U9ImJsdWUiLz4mI3hhOyAgICA8dGV4dCBmaWxsPSJibHVlIiBmb250LXNpemU9IjUiIHk9IjI3NC43MDU4ODIzNTI5NDEyIiB4PSIxODQuMzUyNTM5MDYyNSI+JiN4YTsgICAgICAgIDExNCYjeGE7ICAgIDwvdGV4dD4mI3hhOyAgICA8cGF0aCBkPSJNIDE2OS42NTMzMjAzMTI1IDI1OC44MjM1Mjk0MTE3NjQ3IEwgMTk0LjcwMjE0ODQzNzUgMjU4LjgyMzUyOTQxMTc2NDciIG1hcmtlci1zdGFydD0idXJsKCNoZWFkKSIgbWFya2VyLWVuZD0idXJsKCNoZWFkKSIgc3Ryb2tlLXdpZHRoPSI1IiBzdHJva2Utb3BhY2l0eT0iMC41IiBzdHJva2U9ImJsdWUiLz4mI3hhOyAgICA8dGV4dCBmaWxsPSJibHVlIiBmb250LXNpemU9IjUiIHk9IjI2OC44MjM1Mjk0MTE3NjQ3IiB4PSIxODAuMTc3NzM0Mzc1Ij4mI3hhOyAgICAgICAgMTcxJiN4YTsgICAgPC90ZXh0PiYjeGE7ICAgIDxwYXRoIGQ9Ik0gMTY5LjUwNjgzNTkzNzUgMjUyLjk0MTE3NjQ3MDU4ODIzIEwgMTk0LjcwMjE0ODQzNzUgMjUyLjk0MTE3NjQ3MDU4ODIzIiBtYXJrZXItc3RhcnQ9InVybCgjaGVhZCkiIG1hcmtlci1lbmQ9InVybCgjaGVhZCkiIHN0cm9rZS13aWR0aD0iNSIgc3Ryb2tlLW9wYWNpdHk9IjAuNSIgc3Ryb2tlPSJibHVlIi8+JiN4YTsgICAgPHRleHQgZmlsbD0iYmx1ZSIgZm9udC1zaXplPSI1IiB5PSIyNjIuOTQxMTc2NDcwNTg4MjMiIHg9IjE4MC4xMDQ0OTIxODc1Ij4mI3hhOyAgICAgICAgMTcyJiN4YTsgICAgPC90ZXh0PiYjeGE7ICAgIDxwYXRoIGQ9Ik0gMTc4LjI5NTg5ODQzNzUgMjQ3LjA1ODgyMzUyOTQxMTc3IEwgMTk0LjcwMjE0ODQzNzUgMjQ3LjA1ODgyMzUyOTQxMTc3IiBtYXJrZXItc3RhcnQ9InVybCgjaGVhZCkiIG1hcmtlci1lbmQ9InVybCgjaGVhZCkiIHN0cm9rZS13aWR0aD0iNSIgc3Ryb2tlLW9wYWNpdHk9IjAuNSIgc3Ryb2tlPSJibHVlIi8+JiN4YTsgICAgPHRleHQgZmlsbD0iYmx1ZSIgZm9udC1zaXplPSI1IiB5PSIyNTcuMDU4ODIzNTI5NDExNzciIHg9IjE4NC40OTkwMjM0Mzc1Ij4mI3hhOyAgICAgICAgMTEyJiN4YTsgICAgPC90ZXh0PiYjeGE7ICAgIDxwYXRoIGQ9Ik0gMTc4LjE0OTQxNDA2MjUgMjQxLjE3NjQ3MDU4ODIzNTMgTCAxOTQuNzAyMTQ4NDM3NSAyNDEuMTc2NDcwNTg4MjM1MyIgbWFya2VyLXN0YXJ0PSJ1cmwoI2hlYWQpIiBtYXJrZXItZW5kPSJ1cmwoI2hlYWQpIiBzdHJva2Utd2lkdGg9IjUiIHN0cm9rZS1vcGFjaXR5PSIwLjUiIHN0cm9rZT0iYmx1ZSIvPiYjeGE7ICAgIDx0ZXh0IGZpbGw9ImJsdWUiIGZvbnQtc2l6ZT0iNSIgeT0iMjUxLjE3NjQ3MDU4ODIzNTMiIHg9IjE4NC40MjU3ODEyNSI+JiN4YTsgICAgICAgIDExMyYjeGE7ICAgIDwvdGV4dD4mI3hhOyAgICA8cGF0aCBkPSJNIDE2OS42NTMzMjAzMTI1IDIzNS4yOTQxMTc2NDcwNTg4IEwgMTk0LjcwMjE0ODQzNzUgMjM1LjI5NDExNzY0NzA1ODgiIG1hcmtlci1zdGFydD0idXJsKCNoZWFkKSIgbWFya2VyLWVuZD0idXJsKCNoZWFkKSIgc3Ryb2tlLXdpZHRoPSI1IiBzdHJva2Utb3BhY2l0eT0iMC41IiBzdHJva2U9ImJsdWUiLz4mI3hhOyAgICA8dGV4dCBmaWxsPSJibHVlIiBmb250LXNpemU9IjUiIHk9IjI0NS4yOTQxMTc2NDcwNTg4IiB4PSIxODAuMTc3NzM0Mzc1Ij4mI3hhOyAgICAgICAgMTcxJiN4YTsgICAgPC90ZXh0PiYjeGE7ICAgIDxwYXRoIGQ9Ik0gMTY5LjUwNjgzNTkzNzUgMjI5LjQxMTc2NDcwNTg4MjM1IEwgMTk0LjcwMjE0ODQzNzUgMjI5LjQxMTc2NDcwNTg4MjM1IiBtYXJrZXItc3RhcnQ9InVybCgjaGVhZCkiIG1hcmtlci1lbmQ9InVybCgjaGVhZCkiIHN0cm9rZS13aWR0aD0iNSIgc3Ryb2tlLW9wYWNpdHk9IjAuNSIgc3Ryb2tlPSJibHVlIi8+JiN4YTsgICAgPHRleHQgZmlsbD0iYmx1ZSIgZm9udC1zaXplPSI1IiB5PSIyMzkuNDExNzY0NzA1ODgyMzUiIHg9IjE4MC4xMDQ0OTIxODc1Ij4mI3hhOyAgICAgICAgMTcyJiN4YTsgICAgPC90ZXh0PiYjeGE7ICAgIDxwYXRoIGQ9Ik0gMTY5Ljc5OTgwNDY4NzUgMjIzLjUyOTQxMTc2NDcwNTg4IEwgMTk0LjcwMjE0ODQzNzUgMjIzLjUyOTQxMTc2NDcwNTg4IiBtYXJrZXItc3RhcnQ9InVybCgjaGVhZCkiIG1hcmtlci1lbmQ9InVybCgjaGVhZCkiIHN0cm9rZS13aWR0aD0iNSIgc3Ryb2tlLW9wYWNpdHk9IjAuNSIgc3Ryb2tlPSJibHVlIi8+JiN4YTsgICAgPHRleHQgZmlsbD0iYmx1ZSIgZm9udC1zaXplPSI1IiB5PSIyMzMuNTI5NDExNzY0NzA1ODgiIHg9IjE4MC4yNTA5NzY1NjI1Ij4mI3hhOyAgICAgICAgMTcwJiN4YTsgICAgPC90ZXh0PiYjeGE7ICAgIDxwYXRoIGQ9Ik0gMTU4LjIyNzUzOTA2MjUgMjE3LjY0NzA1ODgyMzUyOTQyIEwgMTk0LjcwMjE0ODQzNzUgMjE3LjY0NzA1ODgyMzUyOTQyIiBtYXJrZXItc3RhcnQ9InVybCgjaGVhZCkiIG1hcmtlci1lbmQ9InVybCgjaGVhZCkiIHN0cm9rZS13aWR0aD0iNSIgc3Ryb2tlLW9wYWNpdHk9IjAuNSIgc3Ryb2tlPSJibHVlIi8+JiN4YTsgICAgPHRleHQgZmlsbD0iYmx1ZSIgZm9udC1zaXplPSI1IiB5PSIyMjcuNjQ3MDU4ODIzNTI5NDIiIHg9IjE3NC40NjQ4NDM3NSI+JiN4YTsgICAgICAgIDI0OSYjeGE7ICAgIDwvdGV4dD4mI3hhOyAgICA8cGF0aCBkPSJNIDE3OC4xNDk0MTQwNjI1IDIxMS43NjQ3MDU4ODIzNTI5NiBMIDE5NC43MDIxNDg0Mzc1IDIxMS43NjQ3MDU4ODIzNTI5NiIgbWFya2VyLXN0YXJ0PSJ1cmwoI2hlYWQpIiBtYXJrZXItZW5kPSJ1cmwoI2hlYWQpIiBzdHJva2Utd2lkdGg9IjUiIHN0cm9rZS1vcGFjaXR5PSIwLjUiIHN0cm9rZT0iYmx1ZSIvPiYjeGE7ICAgIDx0ZXh0IGZpbGw9ImJsdWUiIGZvbnQtc2l6ZT0iNSIgeT0iMjIxLjc2NDcwNTg4MjM1Mjk2IiB4PSIxODQuNDI1NzgxMjUiPiYjeGE7ICAgICAgICAxMTMmI3hhOyAgICA8L3RleHQ+JiN4YTsgICAgPHBhdGggZD0iTSAxNzIuNDM2NTIzNDM3NSAyMDUuODgyMzUyOTQxMTc2NDYgTCAxOTQuNzAyMTQ4NDM3NSAyMDUuODgyMzUyOTQxMTc2NDYiIG1hcmtlci1zdGFydD0idXJsKCNoZWFkKSIgbWFya2VyLWVuZD0idXJsKCNoZWFkKSIgc3Ryb2tlLXdpZHRoPSI1IiBzdHJva2Utb3BhY2l0eT0iMC41IiBzdHJva2U9ImJsdWUiLz4mI3hhOyAgICA8dGV4dCBmaWxsPSJibHVlIiBmb250LXNpemU9IjUiIHk9IjIxNS44ODIzNTI5NDExNzY0NiIgeD0iMTgxLjU2OTMzNTkzNzUiPiYjeGE7ICAgICAgICAxNTImI3hhOyAgICA8L3RleHQ+JiN4YTsgICAgPHBhdGggZD0iTSAxNjkuNzk5ODA0Njg3NSAyMDAgTCAxOTQuNzAyMTQ4NDM3NSAyMDAiIG1hcmtlci1zdGFydD0idXJsKCNoZWFkKSIgbWFya2VyLWVuZD0idXJsKCNoZWFkKSIgc3Ryb2tlLXdpZHRoPSI1IiBzdHJva2Utb3BhY2l0eT0iMC41IiBzdHJva2U9ImJsdWUiLz4mI3hhOyAgICA8dGV4dCBmaWxsPSJibHVlIiBmb250LXNpemU9IjUiIHk9IjIxMCIgeD0iMTgwLjI1MDk3NjU2MjUiPiYjeGE7ICAgICAgICAxNzAmI3hhOyAgICA8L3RleHQ+JiN4YTsgICAgPHBhdGggZD0iTSAxNjkuNjUzMzIwMzEyNSAxOTQuMTE3NjQ3MDU4ODIzNTQgTCAxOTQuNzAyMTQ4NDM3NSAxOTQuMTE3NjQ3MDU4ODIzNTQiIG1hcmtlci1zdGFydD0idXJsKCNoZWFkKSIgbWFya2VyLWVuZD0idXJsKCNoZWFkKSIgc3Ryb2tlLXdpZHRoPSI1IiBzdHJva2Utb3BhY2l0eT0iMC41IiBzdHJva2U9ImJsdWUiLz4mI3hhOyAgICA8dGV4dCBmaWxsPSJibHVlIiBmb250LXNpemU9IjUiIHk9IjIwNC4xMTc2NDcwNTg4MjM1NCIgeD0iMTgwLjE3NzczNDM3NSI+JiN4YTsgICAgICAgIDE3MSYjeGE7ICAgIDwvdGV4dD4mI3hhOyAgICA8cGF0aCBkPSJNIDE4My43MTU4MjAzMTI1IDE4OC4yMzUyOTQxMTc2NDcwNyBMIDE5NC43MDIxNDg0Mzc1IDE4OC4yMzUyOTQxMTc2NDcwNyIgbWFya2VyLXN0YXJ0PSJ1cmwoI2hlYWQpIiBtYXJrZXItZW5kPSJ1cmwoI2hlYWQpIiBzdHJva2Utd2lkdGg9IjUiIHN0cm9rZS1vcGFjaXR5PSIwLjUiIHN0cm9rZT0iYmx1ZSIvPiYjeGE7ICAgIDx0ZXh0IGZpbGw9ImJsdWUiIGZvbnQtc2l6ZT0iNSIgeT0iMTk4LjIzNTI5NDExNzY0NzA3IiB4PSIxODcuMjA4OTg0Mzc1Ij4mI3hhOyAgICAgICAgNzUmI3hhOyAgICA8L3RleHQ+JiN4YTsgICAgPHBhdGggZD0iTSAxNzguMTQ5NDE0MDYyNSAxODIuMzUyOTQxMTc2NDcwNiBMIDE5NC43MDIxNDg0Mzc1IDE4Mi4zNTI5NDExNzY0NzA2IiBtYXJrZXItc3RhcnQ9InVybCgjaGVhZCkiIG1hcmtlci1lbmQ9InVybCgjaGVhZCkiIHN0cm9rZS13aWR0aD0iNSIgc3Ryb2tlLW9wYWNpdHk9IjAuNSIgc3Ryb2tlPSJibHVlIi8+JiN4YTsgICAgPHRleHQgZmlsbD0iYmx1ZSIgZm9udC1zaXplPSI1IiB5PSIxOTIuMzUyOTQxMTc2NDcwNiIgeD0iMTg0LjQyNTc4MTI1Ij4mI3hhOyAgICAgICAgMTEzJiN4YTsgICAgPC90ZXh0PiYjeGE7ICAgIDxwYXRoIGQ9Ik0gMTc1LjA3MzI0MjE4NzUgMTc2LjQ3MDU4ODIzNTI5NDEyIEwgMTk0LjcwMjE0ODQzNzUgMTc2LjQ3MDU4ODIzNTI5NDEyIiBtYXJrZXItc3RhcnQ9InVybCgjaGVhZCkiIG1hcmtlci1lbmQ9InVybCgjaGVhZCkiIHN0cm9rZS13aWR0aD0iNSIgc3Ryb2tlLW9wYWNpdHk9IjAuNSIgc3Ryb2tlPSJibHVlIi8+JiN4YTsgICAgPHRleHQgZmlsbD0iYmx1ZSIgZm9udC1zaXplPSI1IiB5PSIxODYuNDcwNTg4MjM1Mjk0MTIiIHg9IjE4Mi44ODc2OTUzMTI1Ij4mI3hhOyAgICAgICAgMTM0JiN4YTsgICAgPC90ZXh0PiYjeGE7ICAgIDxwYXRoIGQ9Ik0gMTYxLjMwMzcxMDkzNzUgMTcwLjU4ODIzNTI5NDExNzY1IEwgMTk0LjcwMjE0ODQzNzUgMTcwLjU4ODIzNTI5NDExNzY1IiBtYXJrZXItc3RhcnQ9InVybCgjaGVhZCkiIG1hcmtlci1lbmQ9InVybCgjaGVhZCkiIHN0cm9rZS13aWR0aD0iNSIgc3Ryb2tlLW9wYWNpdHk9IjAuNSIgc3Ryb2tlPSJibHVlIi8+JiN4YTsgICAgPHRleHQgZmlsbD0iYmx1ZSIgZm9udC1zaXplPSI1IiB5PSIxODAuNTg4MjM1Mjk0MTE3NjUiIHg9IjE3Ni4wMDI5Mjk2ODc1Ij4mI3hhOyAgICAgICAgMjI4JiN4YTsgICAgPC90ZXh0PiYjeGE7ICAgIDxwYXRoIGQ9Ik0gMTgwLjkzMjYxNzE4NzUgMTY0LjcwNTg4MjM1Mjk0MTIgTCAxOTQuNzAyMTQ4NDM3NSAxNjQuNzA1ODgyMzUyOTQxMiIgbWFya2VyLXN0YXJ0PSJ1cmwoI2hlYWQpIiBtYXJrZXItZW5kPSJ1cmwoI2hlYWQpIiBzdHJva2Utd2lkdGg9IjUiIHN0cm9rZS1vcGFjaXR5PSIwLjUiIHN0cm9rZT0iYmx1ZSIvPiYjeGE7ICAgIDx0ZXh0IGZpbGw9ImJsdWUiIGZvbnQtc2l6ZT0iNSIgeT0iMTc0LjcwNTg4MjM1Mjk0MTIiIHg9IjE4NS44MTczODI4MTI1Ij4mI3hhOyAgICAgICAgOTQmI3hhOyAgICA8L3RleHQ+JiN4YTsgICAgPHBhdGggZD0iTSAxODYuNDk5MDIzNDM3NSAxNTguODIzNTI5NDExNzY0NyBMIDE5NC43MDIxNDg0Mzc1IDE1OC44MjM1Mjk0MTE3NjQ3IiBtYXJrZXItc3RhcnQ9InVybCgjaGVhZCkiIG1hcmtlci1lbmQ9InVybCgjaGVhZCkiIHN0cm9rZS13aWR0aD0iNSIgc3Ryb2tlLW9wYWNpdHk9IjAuNSIgc3Ryb2tlPSJibHVlIi8+JiN4YTsgICAgPHRleHQgZmlsbD0iYmx1ZSIgZm9udC1zaXplPSI1IiB5PSIxNjguODIzNTI5NDExNzY0NyIgeD0iMTg4LjYwMDU4NTkzNzUiPiYjeGE7ICAgICAgICA1NiYjeGE7ICAgIDwvdGV4dD4mI3hhOyAgICA8cGF0aCBkPSJNIDE4Ni40OTkwMjM0Mzc1IDE1Mi45NDExNzY0NzA1ODgyNiBMIDE5NC43MDIxNDg0Mzc1IDE1Mi45NDExNzY0NzA1ODgyNiIgbWFya2VyLXN0YXJ0PSJ1cmwoI2hlYWQpIiBtYXJrZXItZW5kPSJ1cmwoI2hlYWQpIiBzdHJva2Utd2lkdGg9IjUiIHN0cm9rZS1vcGFjaXR5PSIwLjUiIHN0cm9rZT0iYmx1ZSIvPiYjeGE7ICAgIDx0ZXh0IGZpbGw9ImJsdWUiIGZvbnQtc2l6ZT0iNSIgeT0iMTYyLjk0MTE3NjQ3MDU4ODI2IiB4PSIxODguNjAwNTg1OTM3NSI+JiN4YTsgICAgICAgIDU2JiN4YTsgICAgPC90ZXh0PiYjeGE7ICAgIDxwYXRoIGQ9Ik0gMTg5LjI4MjIyNjU2MjUgMTQ3LjA1ODgyMzUyOTQxMTc3IEwgMTk0LjcwMjE0ODQzNzUgMTQ3LjA1ODgyMzUyOTQxMTc3IiBtYXJrZXItc3RhcnQ9InVybCgjaGVhZCkiIG1hcmtlci1lbmQ9InVybCgjaGVhZCkiIHN0cm9rZS13aWR0aD0iNSIgc3Ryb2tlLW9wYWNpdHk9IjAuNSIgc3Ryb2tlPSJibHVlIi8+JiN4YTsgICAgPHRleHQgZmlsbD0iYmx1ZSIgZm9udC1zaXplPSI1IiB5PSIxNTcuMDU4ODIzNTI5NDExNzciIHg9IjE4OS45OTIxODc1Ij4mI3hhOyAgICAgICAgMzcmI3hhOyAgICA8L3RleHQ+JiN4YTsgICAgPHBhdGggZD0iTSAxNzIuNTgzMDA3ODEyNSAxNDEuMTc2NDcwNTg4MjM1MyBMIDE5NC43MDIxNDg0Mzc1IDE0MS4xNzY0NzA1ODgyMzUzIiBtYXJrZXItc3RhcnQ9InVybCgjaGVhZCkiIG1hcmtlci1lbmQ9InVybCgjaGVhZCkiIHN0cm9rZS13aWR0aD0iNSIgc3Ryb2tlLW9wYWNpdHk9IjAuNSIgc3Ryb2tlPSJibHVlIi8+JiN4YTsgICAgPHRleHQgZmlsbD0iYmx1ZSIgZm9udC1zaXplPSI1IiB5PSIxNTEuMTc2NDcwNTg4MjM1MyIgeD0iMTgxLjY0MjU3ODEyNSI+JiN4YTsgICAgICAgIDE1MSYjeGE7ICAgIDwvdGV4dD4mI3hhOyAgICA8cGF0aCBkPSJNIDE3OC4xNDk0MTQwNjI1IDEzNS4yOTQxMTc2NDcwNTg4NCBMIDE5NC43MDIxNDg0Mzc1IDEzNS4yOTQxMTc2NDcwNTg4NCIgbWFya2VyLXN0YXJ0PSJ1cmwoI2hlYWQpIiBtYXJrZXItZW5kPSJ1cmwoI2hlYWQpIiBzdHJva2Utd2lkdGg9IjUiIHN0cm9rZS1vcGFjaXR5PSIwLjUiIHN0cm9rZT0iYmx1ZSIvPiYjeGE7ICAgIDx0ZXh0IGZpbGw9ImJsdWUiIGZvbnQtc2l6ZT0iNSIgeT0iMTQ1LjI5NDExNzY0NzA1ODg0IiB4PSIxODQuNDI1NzgxMjUiPiYjeGE7ICAgICAgICAxMTMmI3hhOyAgICA8L3RleHQ+JiN4YTsgICAgPHBhdGggZD0iTSAxNzEuMTE4MTY0MDYyNSAxMjkuNDExNzY0NzA1ODgyMzggTCAxOTQuNzAyMTQ4NDM3NSAxMjkuNDExNzY0NzA1ODgyMzgiIG1hcmtlci1zdGFydD0idXJsKCNoZWFkKSIgbWFya2VyLWVuZD0idXJsKCNoZWFkKSIgc3Ryb2tlLXdpZHRoPSI1IiBzdHJva2Utb3BhY2l0eT0iMC41IiBzdHJva2U9ImJsdWUiLz4mI3hhOyAgICA8dGV4dCBmaWxsPSJibHVlIiBmb250LXNpemU9IjUiIHk9IjEzOS40MTE3NjQ3MDU4ODIzOCIgeD0iMTgwLjkxMDE1NjI1Ij4mI3hhOyAgICAgICAgMTYxJiN4YTsgICAgPC90ZXh0PiYjeGE7ICAgIDxwYXRoIGQ9Ik0gMTY5Ljc5OTgwNDY4NzUgMTIzLjUyOTQxMTc2NDcwNTkxIEwgMTk0LjcwMjE0ODQzNzUgMTIzLjUyOTQxMTc2NDcwNTkxIiBtYXJrZXItc3RhcnQ9InVybCgjaGVhZCkiIG1hcmtlci1lbmQ9InVybCgjaGVhZCkiIHN0cm9rZS13aWR0aD0iNSIgc3Ryb2tlLW9wYWNpdHk9IjAuNSIgc3Ryb2tlPSJibHVlIi8+JiN4YTsgICAgPHRleHQgZmlsbD0iYmx1ZSIgZm9udC1zaXplPSI1IiB5PSIxMzMuNTI5NDExNzY0NzA1OSIgeD0iMTgwLjI1MDk3NjU2MjUiPiYjeGE7ICAgICAgICAxNzAmI3hhOyAgICA8L3RleHQ+JiN4YTsgICAgPHBhdGggZD0iTSAyNTguODYyMzA0Njg3NSAxMTcuNjQ3MDU4ODIzNTI5MzkgTCAxOTQuNzAyMTQ4NDM3NSAxMTcuNjQ3MDU4ODIzNTI5MzkiIG1hcmtlci1zdGFydD0idXJsKCNoZWFkKSIgbWFya2VyLWVuZD0idXJsKCNoZWFkKSIgc3Ryb2tlLXdpZHRoPSI1IiBzdHJva2Utb3BhY2l0eT0iMC41IiBzdHJva2U9ImJsdWUiLz4mI3hhOyAgICA8dGV4dCBmaWxsPSJibHVlIiBmb250LXNpemU9IjUiIHk9IjEyNy42NDcwNTg4MjM1MjkzOSIgeD0iMjI0Ljc4MjIyNjU2MjUiPiYjeGE7ICAgICAgICAtNDM4JiN4YTsgICAgPC90ZXh0PiYjeGE7ICAgIDxwYXRoIGQ9Ik0gMTcyLjU4MzAwNzgxMjUgMTExLjc2NDcwNTg4MjM1MjkzIEwgMTk0LjcwMjE0ODQzNzUgMTExLjc2NDcwNTg4MjM1MjkzIiBtYXJrZXItc3RhcnQ9InVybCgjaGVhZCkiIG1hcmtlci1lbmQ9InVybCgjaGVhZCkiIHN0cm9rZS13aWR0aD0iNSIgc3Ryb2tlLW9wYWNpdHk9IjAuNSIgc3Ryb2tlPSJibHVlIi8+JiN4YTsgICAgPHRleHQgZmlsbD0iYmx1ZSIgZm9udC1zaXplPSI1IiB5PSIxMjEuNzY0NzA1ODgyMzUyOTMiIHg9IjE4MS42NDI1NzgxMjUiPiYjeGE7ICAgICAgICAxNTEmI3hhOyAgICA8L3RleHQ+JiN4YTsgICAgPHBhdGggZD0iTSAxNzguMTQ5NDE0MDYyNSAxMDUuODgyMzUyOTQxMTc2NDYgTCAxOTQuNzAyMTQ4NDM3NSAxMDUuODgyMzUyOTQxMTc2NDYiIG1hcmtlci1zdGFydD0idXJsKCNoZWFkKSIgbWFya2VyLWVuZD0idXJsKCNoZWFkKSIgc3Ryb2tlLXdpZHRoPSI1IiBzdHJva2Utb3BhY2l0eT0iMC41IiBzdHJva2U9ImJsdWUiLz4mI3hhOyAgICA8dGV4dCBmaWxsPSJibHVlIiBmb250LXNpemU9IjUiIHk9IjExNS44ODIzNTI5NDExNzY0NiIgeD0iMTg0LjQyNTc4MTI1Ij4mI3hhOyAgICAgICAgMTEzJiN4YTsgICAgPC90ZXh0PiYjeGE7PC9zdmc+;" parent="1" vertex="1">
          <mxGeometry x="920" y="130" width="328" height="500" as="geometry" />
        </mxCell>
        <mxCell id="_Zf1_vYihe4TUAqM4NDD-12" value="&lt;font style=&quot;font-size: 23px;&quot;&gt;K=50&lt;/font&gt;" style="text;html=1;strokeColor=none;fillColor=none;align=center;verticalAlign=middle;whiteSpace=wrap;rounded=0;" parent="1" vertex="1">
          <mxGeometry x="730" y="240" width="60" height="30" as="geometry" />
        </mxCell>
      </root>
    </mxGraphModel>
  </diagram>
</mxfile>
